SplineFontDB: 3.0
FontName: Rokkitt-Regular
FullName: Rokkitt
FamilyName: Rokkitt
Weight: Book
Copyright: Copyright (c) 2011 by vernon adams. All rights reserved.
Version: 1.000
ItalicAngle: 0
UnderlinePosition: -103
UnderlineWidth: 102
Ascent: 1638
Descent: 410
sfntRevision: 0x00010000
LayerCount: 2
Layer: 0 1 "Back"  1
Layer: 1 1 "Fore"  0
XUID: [1021 288 713564382 8064431]
FSType: 0
OS2Version: 2
OS2_WeightWidthSlopeOnly: 0
OS2_UseTypoMetrics: 1
CreationTime: 1310381820
ModificationTime: 1311358847
PfmFamily: 17
TTFWeight: 400
TTFWidth: 5
LineGap: 0
VLineGap: 0
Panose: 2 0 5 3 5 0 0 2 0 3
OS2TypoAscent: -86
OS2TypoAOffset: 1
OS2TypoDescent: -184
OS2TypoDOffset: 1
OS2TypoLinegap: 0
OS2WinAscent: 0
OS2WinAOffset: 1
OS2WinDescent: 0
OS2WinDOffset: 1
HheadAscent: 0
HheadAOffset: 1
HheadDescent: 0
HheadDOffset: 1
OS2SubXSize: 1346
OS2SubYSize: 1243
OS2SubXOff: 0
OS2SubYOff: 174
OS2SupXSize: 1346
OS2SupYSize: 1243
OS2SupXOff: 0
OS2SupYOff: 756
OS2StrikeYSize: 102
OS2StrikeYPos: 512
OS2Vendor: 'newt'
OS2CodePages: 00000001.00000000
OS2UnicodeRanges: 800000ef.0000000a.00000000.00000000
MarkAttachClasses: 1
DEI: 91125
TtTable: prep
PUSHW_2
 2048
 2048
MUL
DUP
PUSHB_1
 10
SWAP
WS
DUP
PUSHB_1
 0
SWAP
WCVTF
PUSHB_1
 16
RCVT
DUP
DUP
PUSHB_1
 40
ADD
FLOOR
DUP
ROLL
NEQ
IF
PUSHB_1
 10
RS
MUL
SWAP
DIV
PUSHB_1
 9
SWAP
WS
PUSHB_4
 5
 6
 3
 2
CALL
PUSHB_4
 7
 12
 3
 2
CALL
PUSHB_4
 13
 18
 3
 2
CALL
ELSE
PUSHB_2
 9
 10
RS
WS
EIF
PUSHB_3
 11
 40
 2
RCVT
GT
WS
PUSHB_4
 7
 12
 4
 2
CALL
EndTTInstrs
TtTable: fpgm
PUSHB_1
 0
FDEF
DUP
ABS
PUSHB_1
 32
ADD
FLOOR
SWAP
PUSHB_1
 0
LT
IF
NEG
EIF
ENDF
PUSHB_1
 1
FDEF
DUP
ABS
DUP
PUSHB_1
 192
LT
PUSHB_1
 4
MINDEX
AND
PUSHB_1
 11
RS
OR
IF
POP
SWAP
POP
ELSE
ROLL
IF
DUP
PUSHB_1
 80
LT
IF
POP
PUSHB_1
 64
EIF
ELSE
DUP
PUSHB_1
 56
LT
IF
POP
PUSHB_1
 56
EIF
EIF
DUP
PUSHB_1
 5
RCVT
SUB
ABS
PUSHB_1
 40
LT
IF
POP
PUSHB_1
 5
RCVT
DUP
PUSHB_1
 48
LT
IF
POP
PUSHB_1
 48
EIF
ELSE
DUP
PUSHB_1
 192
LT
IF
DUP
FLOOR
DUP
ROLL
ROLL
SUB
DUP
PUSHB_1
 10
LT
IF
ADD
ELSE

StartChar: .notdef
Encoding: 65536 -1 0
Width: 748
Flags: W
LayerCount: 2
Fore
SplineSet
68 0 m 1,0,-1
 68 1365 l 1,1,-1
 612 1365 l 1,2,-1
 612 0 l 1,3,-1
 68 0 l 1,0,-1
136 68 m 1,4,-1
 544 68 l 1,5,-1
 544 1297 l 1,6,-1
 136 1297 l 1,7,-1
 136 68 l 1,4,-1
EndSplineSet
EndChar

StartChar: exclam
Encoding: 33 33 23
Width: 466
GlyphClass: 2
Flags: W
LayerCount: 2
Fore
SplineSet
147 821 m 1,0,-1
 147 1171 l 1,1,-1
 319 1171 l 1,2,-1
 319 821 l 1,3,-1
 277 324 l 1,4,-1
 189 324 l 1,5,-1
 147 821 l 1,0,-1
127 212 m 1,6,-1
 339 212 l 1,7,-1
 339 0 l 1,8,-1
 127 0 l 1,9,-1
 127 212 l 1,6,-1
EndSplineSet
EndChar

StartChar: quotedbl
Encoding: 34 34 24
Width: 665
GlyphClass: 2
Flags: W
LayerCount: 2
Fore
SplineSet
557 756 m 1,0,-1
 427 756 l 1,1,-1
 382 1171 l 1,2,-1
 599 1171 l 1,3,-1
 557 756 l 1,0,-1
234 756 m 1,4,-1
 104 756 l 1,5,-1
 59 1171 l 1,6,-1
 276 1171 l 1,7,-1
 234 756 l 1,4,-1
EndSplineSet
EndChar

StartChar: numbersign
Encoding: 35 35 25
Width: 1186
GlyphClass: 2
Flags: W
LayerCount: 2
Fore
SplineSet
236 0 m 1,0,-1
 268 333 l 1,1,-1
 90 333 l 1,2,-1
 102 442 l 1,3,-1
 284 442 l 1,4,-1
 317 733 l 1,5,-1
 110 733 l 1,6,-1
 122 844 l 1,7,-1
 333 844 l 1,8,-1
 367 1171 l 1,9,-1
 490 1171 l 1,10,-1
 456 844 l 1,11,-1
 781 844 l 1,12,-1
 819 1171 l 1,13,-1
 942 1171 l 1,14,-1
 905 844 l 1,15,-1
 1102 844 l 1,16,-1
 1090 733 l 1,17,-1
 889 733 l 1,18,-1
 860 442 l 1,19,-1
 1082 442 l 1,20,-1
 1070 333 l 1,21,-1
 844 333 l 1,22,-1
 809 0 l 1,23,-1
 688 0 l 1,24,-1
 719 333 l 1,25,-1
 392 333 l 1,26,-1
 357 0 l 1,27,-1
 236 0 l 1,0,-1
408 442 m 1,28,-1
 735 442 l 1,29,-1
 765 733 l 1,30,-1
 439 733 l 1,31,-1
 408 442 l 1,28,-1
EndSplineSet
EndChar

StartChar: dollar
Encoding: 36 36 26
Width: 940
GlyphClass: 2
Flags: W
LayerCount: 2
Fore
SplineSet
411 -4 m 1,0,1
 312 18 312 18 231 87 c 1,2,-1
 231 0 l 1,3,-1
 96 0 l 1,4,-1
 96 387 l 1,5,-1
 231 387 l 1,6,-1
 231 271 l 1,7,8
 270 217 270 217 313.5 183.5 c 128,-1,9
 357 150 357 150 411 133 c 1,10,-1
 411 532 l 1,11,12
 345 547 345 547 286 570 c 128,-1,13
 227 593 227 593 183 630.5 c 128,-1,14
 139 668 139 668 113.5 723.5 c 128,-1,15
 88 779 88 779 88 859 c 0,16,17
 88 931 88 931 112.5 986.5 c 128,-1,18
 137 1042 137 1042 180.5 1081 c 128,-1,19
 224 1120 224 1120 283 1142 c 128,-1,20
 342 1164 342 1164 411 1169 c 1,21,-1
 411 1305 l 1,22,-1
 542 1305 l 1,23,-1
 542 1161 l 1,24,25
 636 1138 636 1138 713 1079 c 1,26,-1
 713 1153 l 1,27,-1
 848 1153 l 1,28,-1
 848 826 l 1,29,-1
 713 826 l 1,30,-1
 713 908 l 1,31,32
 678 956 678 956 637 986 c 128,-1,33
 596 1016 596 1016 542 1027 c 1,34,-1
 542 662 l 1,35,36
 613 647 613 647 679.5 621 c 128,-1,37
 746 595 746 595 797 553 c 128,-1,38
 848 511 848 511 879 450.5 c 128,-1,39
 910 390 910 390 910 306 c 0,40,41
 910 238 910 238 883.5 180 c 128,-1,42
 857 122 857 122 808.5 79 c 128,-1,43
 760 36 760 36 692 10.5 c 128,-1,44
 624 -15 624 -15 542 -17 c 1,45,-1
 542 -143 l 1,46,-1
 411 -143 l 1,47,-1
 411 -4 l 1,0,1
745 304 m 0,48,49
 745 346 745 346 730 377 c 128,-1,50
 715 408 715 408 688 431 c 128,-1,51
 661 454 661 454 624 470 c 128,-1,52
 587 486 587 486 542 499 c 1,53,-1
 542 117 l 1,54,55
 588 120 588 120 626 135 c 128,-1,56
 664 150 664 150 690 175 c 128,-1,57
 716 200 716 200 730.5 233 c 128,-1,58
 745 266 745 266 745 304 c 0,48,49
244 867 m 0,59,60
 244 829 244 829 256.5 802 c 128,-1,61
 269 775 269 775 291.5 754.5 c 128,-1,62
 314 734 314 734 344.5 720 c 128,-1,63
 375 706 375 706 411 695 c 1,64,-1
 411 1030 l 1,65,66
 326 1017 326 1017 285 972.5 c 128,-1,67
 244 928 244 928 244 867 c 0,59,60
EndSplineSet
EndChar

StartChar: percent
Encoding: 37 37 27
Width: 1579
GlyphClass: 2
Flags: W
LayerCount: 2
Fore
SplineSet
586 863 m 256,0,1
 586 781 586 781 563.5 723 c 128,-1,2
 541 665 541 665 504.5 628 c 128,-1,3
 468 591 468 591 421.5 574 c 128,-1,4
 375 557 375 557 326 557 c 256,5,6
 277 557 277 557 230.5 574 c 128,-1,7
 184 591 184 591 147.5 628 c 128,-1,8
 111 665 111 665 88.5 723 c 128,-1,9
 66 781 66 781 66 863 c 256,10,11
 66 945 66 945 88.5 1003 c 128,-1,12
 111 1061 111 1061 147.5 1098 c 128,-1,13
 184 1135 184 1135 230.5 1152.5 c 128,-1,14
 277 1170 277 1170 326 1170 c 256,15,16
 375 1170 375 1170 421.5 1152.5 c 128,-1,17
 468 1135 468 1135 504.5 1098 c 128,-1,18
 541 1061 541 1061 563.5 1003 c 128,-1,19
 586 945 586 945 586 863 c 256,0,1
447 863 m 256,20,21
 447 919 447 919 436.5 957.5 c 128,-1,22
 426 996 426 996 409 1020 c 128,-1,23
 392 1044 392 1044 370 1054.5 c 128,-1,24
 348 1065 348 1065 326 1065 c 0,25,26
 303 1065 303 1065 281.5 1054.5 c 128,-1,27
 260 1044 260 1044 243 1020 c 128,-1,28
 226 996 226 996 215.5 957.5 c 128,-1,29
 205 919 205 919 205 863 c 256,30,31
 205 807 205 807 215.5 768.5 c 128,-1,32
 226 730 226 730 243 706 c 128,-1,33
 260 682 260 682 281.5 671 c 128,-1,34
 303 660 303 660 326 660 c 0,35,36
 348 660 348 660 370 671 c 128,-1,37
 392 682 392 682 409 706 c 128,-1,38
 426 730 426 730 436.5 768.5 c 128,-1,39
 447 807 447 807 447 863 c 256,20,21
1223 1196 m 1,40,-1
 1284 1146 l 1,41,-1
 341 -50 l 1,42,-1
 273 0 l 1,43,-1
 1223 1196 l 1,40,-1
1519 287 m 256,44,45
 1519 205 1519 205 1496.5 147 c 128,-1,46
 1474 89 1474 89 1437.5 52 c 128,-1,47
 1401 15 1401 15 1354.5 -2 c 128,-1,48
 1308 -19 1308 -19 1259 -19 c 256,49,50
 1210 -19 1210 -19 1163.5 -2 c 128,-1,51
 1117 15 1117 15 1080.5 52 c 128,-1,52
 1044 89 1044 89 1021.5 147 c 128,-1,53
 999 205 999 205 999 287 c 256,54,55
 999 369 999 369 1021.5 427 c 128,-1,56
 1044 485 1044 485 1080.5 522 c 128,-1,57
 1117 559 1117 559 1163.5 576.5 c 128,-1,58
 1210 594 1210 594 1259 594 c 256,59,60
 1308 594 1308 594 1354.5 576.5 c 128,-1,61
 1401 559 1401 559 1437.5 522 c 128,-1,62
 1474 485 1474 485 1496.5 427 c 128,-1,63
 1519 369 1519 369 1519 287 c 256,44,45
1380 287 m 256,64,65
 1380 343 1380 343 1369.5 381.5 c 128,-1,66
 1359 420 1359 420 1342 444 c 128,-1,67
 1325 468 1325 468 1303 478.5 c 128,-1,68
 1281 489 1281 489 1259 489 c 0,69,70
 1236 489 1236 489 1214.5 478.5 c 128,-1,71
 1193 468 1193 468 1176 444 c 128,-1,72
 1159 420 1159 420 1148.5 381.5 c 128,-1,73
 1138 343 1138 343 1138 287 c 256,74,75
 1138 231 1138 231 1148.5 192.5 c 128,-1,76
 1159 154 1159 154 1176 130 c 128,-1,77
 1193 106 1193 106 1214.5 95 c 128,-1,78
 1236 84 1236 84 1259 84 c 0,79,80
 1281 84 1281 84 1303 95 c 128,-1,81
 1325 106 1325 106 1342 130 c 128,-1,82
 1359 154 1359 154 1369.5 192.5 c 128,-1,83
 1380 231 1380 231 1380 287 c 256,64,65
EndSplineSet
EndChar

StartChar: ampersand
Encoding: 38 38 28
Width: 1201
GlyphClass: 2
Flags: W
LayerCount: 2
Fore
SplineSet
797 115 m 1,0,1
 716 46 716 46 637.5 13.5 c 128,-1,2
 559 -19 559 -19 471 -19 c 0,3,4
 382 -19 382 -19 306 7.5 c 128,-1,5
 230 34 230 34 174.5 80 c 128,-1,6
 119 126 119 126 87.5 189 c 128,-1,7
 56 252 56 252 56 325 c 0,8,9
 56 446 56 446 133.5 530.5 c 128,-1,10
 211 615 211 615 362 670 c 1,11,12
 307 740 307 740 276 799.5 c 128,-1,13
 245 859 245 859 245 921 c 0,14,15
 245 973 245 973 267.5 1018.5 c 128,-1,16
 290 1064 290 1064 329 1097.5 c 128,-1,17
 368 1131 368 1131 420.5 1150.5 c 128,-1,18
 473 1170 473 1170 533 1170 c 0,19,20
 592 1170 592 1170 643 1151.5 c 128,-1,21
 694 1133 694 1133 732 1100.5 c 128,-1,22
 770 1068 770 1068 791.5 1024.5 c 128,-1,23
 813 981 813 981 813 930 c 0,24,25
 813 881 813 881 799.5 838 c 128,-1,26
 786 795 786 795 756.5 756.5 c 128,-1,27
 727 718 727 718 680 684.5 c 128,-1,28
 633 651 633 651 566 621 c 1,29,-1
 806 332 l 1,30,31
 844 384 844 384 870.5 445.5 c 128,-1,32
 897 507 897 507 913 583 c 1,33,-1
 1143 583 l 1,34,-1
 1143 456 l 1,35,-1
 1014 456 l 1,36,37
 988 377 988 377 958 322 c 128,-1,38
 928 267 928 267 886 223 c 1,39,-1
 959 125 l 1,40,-1
 1143 125 l 1,41,-1
 1143 0 l 1,42,-1
 883 0 l 1,43,-1
 797 115 l 1,0,1
438 573 m 1,44,45
 210 493 210 493 210 335 c 0,46,47
 210 292 210 292 230.5 252.5 c 128,-1,48
 251 213 251 213 287.5 183 c 128,-1,49
 324 153 324 153 375 135 c 128,-1,50
 426 117 426 117 487 117 c 0,51,52
 551 117 551 117 608.5 141 c 128,-1,53
 666 165 666 165 720 219 c 1,54,-1
 438 573 l 1,44,45
494 720 m 1,55,56
 588 769 588 769 633.5 817.5 c 128,-1,57
 679 866 679 866 679 932 c 0,58,59
 679 986 679 986 637.5 1015.5 c 128,-1,60
 596 1045 596 1045 533 1045 c 0,61,62
 467 1045 467 1045 426 1015 c 128,-1,63
 385 985 385 985 385 928 c 0,64,65
 385 886 385 886 412.5 839 c 128,-1,66
 440 792 440 792 494 720 c 1,55,56
EndSplineSet
EndChar

StartChar: quotesingle
Encoding: 39 39 29
Width: 337
GlyphClass: 2
Flags: W
LayerCount: 2
Fore
SplineSet
242 756 m 1,0,-1
 112 756 l 1,1,-1
 67 1171 l 1,2,-1
 284 1171 l 1,3,-1
 242 756 l 1,0,-1
EndSplineSet
EndChar

StartChar: parenleft
Encoding: 40 40 30
Width: 522
GlyphClass: 2
Flags: W
LayerCount: 2
Fore
SplineSet
34 517 m 0,0,1
 34 646 34 646 69 749 c 128,-1,2
 104 852 104 852 164 932 c 128,-1,3
 224 1012 224 1012 304.5 1069.5 c 128,-1,4
 385 1127 385 1127 476 1165 c 1,5,-1
 476 1037 l 1,6,7
 419 1003 419 1003 368 957 c 128,-1,8
 317 911 317 911 278.5 848.5 c 128,-1,9
 240 786 240 786 217.5 704.5 c 128,-1,10
 195 623 195 623 195 517 c 256,11,12
 195 411 195 411 217.5 329.5 c 128,-1,13
 240 248 240 248 278.5 185.5 c 128,-1,14
 317 123 317 123 368 77.5 c 128,-1,15
 419 32 419 32 476 -1 c 1,16,-1
 476 -132 l 1,17,18
 385 -95 385 -95 304.5 -37 c 128,-1,19
 224 21 224 21 164 101.5 c 128,-1,20
 104 182 104 182 69 285.5 c 128,-1,21
 34 389 34 389 34 517 c 0,0,1
EndSplineSet
EndChar

StartChar: parenright
Encoding: 41 41 31
Width: 522
GlyphClass: 2
Flags: W
LayerCount: 2
Fore
SplineSet
476 517 m 0,0,1
 476 389 476 389 441 285.5 c 128,-1,2
 406 182 406 182 346 101.5 c 128,-1,3
 286 21 286 21 205.5 -37 c 128,-1,4
 125 -95 125 -95 34 -132 c 1,5,-1
 34 -1 l 1,6,7
 91 32 91 32 142 77.5 c 128,-1,8
 193 123 193 123 231.5 185.5 c 128,-1,9
 270 248 270 248 292.5 329.5 c 128,-1,10
 315 411 315 411 315 517 c 256,11,12
 315 623 315 623 292.5 704.5 c 128,-1,13
 270 786 270 786 231.5 848.5 c 128,-1,14
 193 911 193 911 142 957 c 128,-1,15
 91 1003 91 1003 34 1037 c 1,16,-1
 34 1165 l 1,17,18
 125 1127 125 1127 205.5 1069.5 c 128,-1,19
 286 1012 286 1012 346 932 c 128,-1,20
 406 852 406 852 441 749 c 128,-1,21
 476 646 476 646 476 517 c 0,0,1
EndSplineSet
EndChar

StartChar: asterisk
Encoding: 42 42 32
Width: 916
GlyphClass: 2
Flags: W
LayerCount: 2
Fore
SplineSet
282 351 m 1,0,-1
 141 450 l 1,1,-1
 237 582 l 1,2,-1
 411 729 l 1,3,-1
 183 743 l 1,4,-1
 32 797 l 1,5,-1
 82 960 l 1,6,-1
 237 909 l 1,7,-1
 437 783 l 1,8,-1
 379 1013 l 1,9,-1
 379 1171 l 1,10,-1
 548 1171 l 1,11,-1
 548 1013 l 1,12,-1
 488 783 l 1,13,-1
 688 909 l 1,14,-1
 844 960 l 1,15,-1
 894 797 l 1,16,-1
 744 743 l 1,17,-1
 515 729 l 1,18,-1
 688 582 l 1,19,-1
 783 450 l 1,20,-1
 644 351 l 1,21,-1
 548 483 l 1,22,-1
 463 698 l 1,23,-1
 379 483 l 1,24,-1
 282 351 l 1,0,-1
EndSplineSet
EndChar

StartChar: plus
Encoding: 43 43 33
Width: 1047
GlyphClass: 2
Flags: W
LayerCount: 2
Fore
SplineSet
990 602 m 1,0,-1
 990 485 l 1,1,-1
 585 485 l 1,2,-1
 585 93 l 1,3,-1
 461 93 l 1,4,-1
 461 485 l 1,5,-1
 57 485 l 1,6,-1
 57 602 l 1,7,-1
 461 602 l 1,8,-1
 461 994 l 1,9,-1
 585 994 l 1,10,-1
 585 602 l 1,11,-1
 990 602 l 1,0,-1
EndSplineSet
EndChar

StartChar: comma
Encoding: 44 44 34
Width: 414
GlyphClass: 2
Flags: W
LayerCount: 2
Fore
SplineSet
86 211 m 1,0,-1
 313 211 l 1,1,-1
 313 0 l 2,2,3
 313 -57 313 -57 301.5 -101.5 c 128,-1,4
 290 -146 290 -146 263.5 -176 c 128,-1,5
 237 -206 237 -206 193.5 -221.5 c 128,-1,6
 150 -237 150 -237 86 -237 c 1,7,-1
 86 -150 l 1,8,9
 120 -143 120 -143 143 -132.5 c 128,-1,10
 166 -122 166 -122 180 -104.5 c 128,-1,11
 194 -87 194 -87 200.5 -61.5 c 128,-1,12
 207 -36 207 -36 207 0 c 1,13,-1
 86 0 l 1,14,-1
 86 211 l 1,0,-1
EndSplineSet
EndChar

StartChar: hyphen
Encoding: 45 45 35
Width: 719
GlyphClass: 2
Flags: W
LayerCount: 2
Fore
SplineSet
101 484 m 1,0,-1
 618 484 l 1,1,-1
 618 340 l 1,2,-1
 101 340 l 1,3,-1
 101 484 l 1,0,-1
EndSplineSet
EndChar

StartChar: period
Encoding: 46 46 36
Width: 414
GlyphClass: 2
Flags: W
LayerCount: 2
Fore
SplineSet
86 211 m 1,0,-1
 313 211 l 1,1,-1
 313 0 l 1,2,-1
 86 0 l 1,3,-1
 86 211 l 1,0,-1
EndSplineSet
EndChar

StartChar: slash
Encoding: 47 47 37
Width: 793
GlyphClass: 2
Flags: W
LayerCount: 2
Fore
SplineSet
692 1171 m 1,0,-1
 258 -18 l 1,1,-1
 129 -18 l 1,2,-1
 563 1171 l 1,3,-1
 692 1171 l 1,0,-1
EndSplineSet
EndChar

StartChar: zero
Encoding: 48 48 38
Width: 1004
GlyphClass: 2
Flags: W
LayerCount: 2
Fore
SplineSet
502 -19 m 0,0,1
 395 -19 395 -19 317 24 c 128,-1,2
 239 67 239 67 188 145 c 128,-1,3
 137 223 137 223 112 333 c 128,-1,4
 87 443 87 443 87 577 c 0,5,6
 87 710 87 710 112 819.5 c 128,-1,7
 137 929 137 929 188 1007 c 128,-1,8
 239 1085 239 1085 317 1128 c 128,-1,9
 395 1171 395 1171 502 1171 c 0,10,11
 608 1171 608 1171 686.5 1128 c 128,-1,12
 765 1085 765 1085 816 1007 c 128,-1,13
 867 929 867 929 892 819.5 c 128,-1,14
 917 710 917 710 917 577 c 0,15,16
 917 443 917 443 892 333 c 128,-1,17
 867 223 867 223 816 145 c 128,-1,18
 765 67 765 67 686.5 24 c 128,-1,19
 608 -19 608 -19 502 -19 c 0,0,1
501 101 m 0,20,21
 568 101 568 101 617.5 128.5 c 128,-1,22
 667 156 667 156 699.5 214 c 128,-1,23
 732 272 732 272 747.5 362 c 128,-1,24
 763 452 763 452 763 577 c 0,25,26
 763 823 763 823 700 937 c 128,-1,27
 637 1051 637 1051 501 1051 c 0,28,29
 427 1051 427 1051 377 1018 c 128,-1,30
 327 985 327 985 297 923.5 c 128,-1,31
 267 862 267 862 254 774 c 128,-1,32
 241 686 241 686 241 577 c 0,33,34
 241 465 241 465 254 377 c 128,-1,35
 267 289 267 289 297 227.5 c 128,-1,36
 327 166 327 166 377 133.5 c 128,-1,37
 427 101 427 101 501 101 c 0,20,21
EndSplineSet
EndChar

StartChar: one
Encoding: 49 49 39
Width: 584
GlyphClass: 2
Flags: W
LayerCount: 2
Fore
SplineSet
65 125 m 1,0,-1
 231 125 l 1,1,-1
 231 1026 l 1,2,-1
 57 1026 l 1,3,-1
 57 1153 l 1,4,-1
 380 1153 l 1,5,-1
 380 125 l 1,6,-1
 534 125 l 1,7,-1
 534 0 l 1,8,-1
 65 0 l 1,9,-1
 65 125 l 1,0,-1
EndSplineSet
EndChar

StartChar: two
Encoding: 50 50 40
Width: 936
GlyphClass: 2
Flags: W
LayerCount: 2
Fore
SplineSet
700 378 m 1,0,-1
 827 378 l 1,1,-1
 827 0 l 1,2,-1
 66 0 l 1,3,4
 63 27 63 27 63 52 c 0,5,6
 63 135 63 135 89 202 c 128,-1,7
 115 269 115 269 157.5 324.5 c 128,-1,8
 200 380 200 380 254 426.5 c 128,-1,9
 308 473 308 473 364.5 514.5 c 128,-1,10
 421 556 421 556 475 594.5 c 128,-1,11
 529 633 529 633 571.5 673.5 c 128,-1,12
 614 714 614 714 640 758 c 128,-1,13
 666 802 666 802 666 855 c 0,14,15
 666 940 666 940 614 987.5 c 128,-1,16
 562 1035 562 1035 453 1035 c 0,17,18
 393 1035 393 1035 352.5 1018.5 c 128,-1,19
 312 1002 312 1002 286.5 966.5 c 128,-1,20
 261 931 261 931 250 876 c 128,-1,21
 239 821 239 821 239 744 c 1,22,-1
 95 744 l 1,23,24
 95 963 95 963 184.5 1066.5 c 128,-1,25
 274 1170 274 1170 452 1170 c 0,26,27
 560 1170 560 1170 633 1141 c 128,-1,28
 706 1112 706 1112 750.5 1066.5 c 128,-1,29
 795 1021 795 1021 813.5 965.5 c 128,-1,30
 832 910 832 910 832 858 c 0,31,32
 832 792 832 792 808.5 738 c 128,-1,33
 785 684 785 684 746.5 638 c 128,-1,34
 708 592 708 592 658 551.5 c 128,-1,35
 608 511 608 511 554 473.5 c 128,-1,36
 500 436 500 436 447 399 c 128,-1,37
 394 362 394 362 349.5 321.5 c 128,-1,38
 305 281 305 281 272.5 235.5 c 128,-1,39
 240 190 240 190 228 136 c 1,40,-1
 700 136 l 1,41,-1
 700 378 l 1,0,-1
EndSplineSet
EndChar

StartChar: three
Encoding: 51 51 41
Width: 953
GlyphClass: 2
Flags: W
LayerCount: 2
Fore
SplineSet
198 350 m 1,0,1
 208 238 208 238 271 177.5 c 128,-1,2
 334 117 334 117 443 117 c 0,3,4
 509 117 509 117 558.5 132 c 128,-1,5
 608 147 608 147 641 174 c 128,-1,6
 674 201 674 201 691 237.5 c 128,-1,7
 708 274 708 274 708 317 c 0,8,9
 708 381 708 381 680 423 c 128,-1,10
 652 465 652 465 602.5 489 c 128,-1,11
 553 513 553 513 486.5 522.5 c 128,-1,12
 420 532 420 532 342 532 c 1,13,-1
 342 664 l 1,14,-1
 429 664 l 2,15,16
 550 664 550 664 609.5 707.5 c 128,-1,17
 669 751 669 751 669 848 c 0,18,19
 669 887 669 887 654.5 921.5 c 128,-1,20
 640 956 640 956 611 981 c 128,-1,21
 582 1006 582 1006 537 1020.5 c 128,-1,22
 492 1035 492 1035 432 1035 c 0,23,24
 382 1035 382 1035 345 1020.5 c 128,-1,25
 308 1006 308 1006 282.5 980 c 128,-1,26
 257 954 257 954 243.5 917.5 c 128,-1,27
 230 881 230 881 227 837 c 1,28,-1
 79 863 l 1,29,30
 82 933 82 933 108 990 c 128,-1,31
 134 1047 134 1047 179.5 1087 c 128,-1,32
 225 1127 225 1127 288 1149 c 128,-1,33
 351 1171 351 1171 428 1171 c 0,34,35
 519 1171 519 1171 592 1150.5 c 128,-1,36
 665 1130 665 1130 716.5 1090.5 c 128,-1,37
 768 1051 768 1051 795.5 994 c 128,-1,38
 823 937 823 937 823 864 c 0,39,40
 823 822 823 822 813.5 781.5 c 128,-1,41
 804 741 804 741 781.5 706.5 c 128,-1,42
 759 672 759 672 721.5 645 c 128,-1,43
 684 618 684 618 628 602 c 1,44,45
 687 591 687 591 732 566 c 128,-1,46
 777 541 777 541 807.5 505 c 128,-1,47
 838 469 838 469 853.5 423 c 128,-1,48
 869 377 869 377 869 325 c 0,49,50
 869 249 869 249 839.5 186 c 128,-1,51
 810 123 810 123 754.5 77.5 c 128,-1,52
 699 32 699 32 617.5 7 c 128,-1,53
 536 -18 536 -18 433 -18 c 0,54,55
 350 -18 350 -18 280 4.5 c 128,-1,56
 210 27 210 27 159 72 c 128,-1,57
 108 117 108 117 79.5 185.5 c 128,-1,58
 51 254 51 254 51 346 c 1,59,-1
 198 350 l 1,0,1
EndSplineSet
EndChar

StartChar: four
Encoding: 52 52 42
Width: 875
GlyphClass: 2
Flags: W
LayerCount: 2
Fore
SplineSet
319 125 m 1,0,-1
 483 125 l 1,1,-1
 483 315 l 1,2,-1
 24 315 l 1,3,-1
 24 436 l 1,4,-1
 487 1153 l 1,5,-1
 625 1153 l 1,6,-1
 625 436 l 1,7,-1
 815 436 l 1,8,-1
 815 315 l 1,9,-1
 625 315 l 1,10,-1
 625 125 l 1,11,-1
 774 125 l 1,12,-1
 774 0 l 1,13,-1
 319 0 l 1,14,-1
 319 125 l 1,0,-1
483 947 m 1,15,-1
 168 436 l 1,16,-1
 483 436 l 1,17,-1
 483 947 l 1,15,-1
EndSplineSet
EndChar

StartChar: five
Encoding: 53 53 43
Width: 947
GlyphClass: 2
Flags: W
LayerCount: 2
Fore
SplineSet
235 330 m 1,0,1
 254 224 254 224 313.5 166 c 128,-1,2
 373 108 373 108 470 108 c 0,3,4
 530 108 530 108 575.5 127.5 c 128,-1,5
 621 147 621 147 651.5 180.5 c 128,-1,6
 682 214 682 214 697.5 260 c 128,-1,7
 713 306 713 306 713 360 c 0,8,9
 713 427 713 427 695 476.5 c 128,-1,10
 677 526 677 526 646 559 c 128,-1,11
 615 592 615 592 573.5 608.5 c 128,-1,12
 532 625 532 625 485 625 c 0,13,14
 422 625 422 625 359 597.5 c 128,-1,15
 296 570 296 570 238 512 c 1,16,-1
 155 557 l 1,17,-1
 155 1153 l 1,18,-1
 800 1153 l 1,19,-1
 800 916 l 1,20,-1
 662 916 l 1,21,-1
 662 1016 l 1,22,-1
 283 1016 l 1,23,24
 275 922 275 922 268 833.5 c 128,-1,25
 261 745 261 745 254 651 c 1,26,27
 297 711 297 711 358.5 737.5 c 128,-1,28
 420 764 420 764 498 764 c 0,29,30
 584 764 584 764 653.5 734.5 c 128,-1,31
 723 705 723 705 771.5 651.5 c 128,-1,32
 820 598 820 598 846.5 524 c 128,-1,33
 873 450 873 450 873 361 c 0,34,35
 873 284 873 284 849.5 215.5 c 128,-1,36
 826 147 826 147 776.5 94.5 c 128,-1,37
 727 42 727 42 651 11.5 c 128,-1,38
 575 -19 575 -19 470 -19 c 0,39,40
 384 -19 384 -19 316.5 5 c 128,-1,41
 249 29 249 29 201 74 c 128,-1,42
 153 119 153 119 125.5 183.5 c 128,-1,43
 98 248 98 248 92 329 c 1,44,-1
 235 330 l 1,0,1
EndSplineSet
EndChar

StartChar: six
Encoding: 54 54 44
Width: 947
GlyphClass: 2
Flags: W
LayerCount: 2
Fore
SplineSet
710 848 m 1,0,1
 705 893 705 893 687 929 c 128,-1,2
 669 965 669 965 641.5 991 c 128,-1,3
 614 1017 614 1017 579.5 1031 c 128,-1,4
 545 1045 545 1045 508 1045 c 0,5,6
 445 1045 445 1045 394.5 1018.5 c 128,-1,7
 344 992 344 992 308.5 940 c 128,-1,8
 273 888 273 888 254.5 812.5 c 128,-1,9
 236 737 236 737 236 639 c 1,10,11
 287 681 287 681 363 702 c 128,-1,12
 439 723 439 723 524 723 c 0,13,14
 602 723 602 723 665 696.5 c 128,-1,15
 728 670 728 670 773 622.5 c 128,-1,16
 818 575 818 575 842.5 511 c 128,-1,17
 867 447 867 447 867 372 c 0,18,19
 867 289 867 289 842 218 c 128,-1,20
 817 147 817 147 770 94.5 c 128,-1,21
 723 42 723 42 654 12 c 128,-1,22
 585 -18 585 -18 498 -18 c 0,23,24
 396 -18 396 -18 318.5 21.5 c 128,-1,25
 241 61 241 61 189.5 136.5 c 128,-1,26
 138 212 138 212 111.5 321.5 c 128,-1,27
 85 431 85 431 85 571 c 0,28,29
 85 707 85 707 110.5 818 c 128,-1,30
 136 929 136 929 187 1007.5 c 128,-1,31
 238 1086 238 1086 315.5 1128.5 c 128,-1,32
 393 1171 393 1171 497 1171 c 0,33,34
 575 1171 575 1171 638.5 1147.5 c 128,-1,35
 702 1124 702 1124 748 1081 c 128,-1,36
 794 1038 794 1038 819.5 979 c 128,-1,37
 845 920 845 920 847 848 c 1,38,-1
 710 848 l 1,0,1
507 592 m 0,39,40
 480 592 480 592 446 587 c 128,-1,41
 412 582 412 582 376 571.5 c 128,-1,42
 340 561 340 561 305 545.5 c 128,-1,43
 270 530 270 530 242 509 c 1,44,45
 256 315 256 315 314 216 c 128,-1,46
 372 117 372 117 492 117 c 0,47,48
 549 117 549 117 592 136 c 128,-1,49
 635 155 635 155 664 188 c 128,-1,50
 693 221 693 221 707.5 265.5 c 128,-1,51
 722 310 722 310 722 362 c 0,52,53
 722 412 722 412 707.5 454.5 c 128,-1,54
 693 497 693 497 665.5 527.5 c 128,-1,55
 638 558 638 558 598 575 c 128,-1,56
 558 592 558 592 507 592 c 0,39,40
EndSplineSet
EndChar

StartChar: seven
Encoding: 55 55 45
Width: 819
GlyphClass: 2
Flags: W
LayerCount: 2
Fore
SplineSet
809 1153 m 1,0,-1
 809 1025 l 1,1,2
 716 932 716 932 648.5 824.5 c 128,-1,3
 581 717 581 717 536.5 601 c 128,-1,4
 492 485 492 485 471 364.5 c 128,-1,5
 450 244 450 244 450 125 c 1,6,-1
 632 125 l 1,7,-1
 632 0 l 1,8,-1
 121 0 l 1,9,-1
 121 125 l 1,10,-1
 293 125 l 1,11,12
 293 261 293 261 318.5 389 c 128,-1,13
 344 517 344 517 389 632 c 128,-1,14
 434 747 434 747 496 846.5 c 128,-1,15
 558 946 558 946 631 1026 c 1,16,-1
 188 1026 l 1,17,-1
 188 860 l 1,18,-1
 51 860 l 1,19,-1
 51 1153 l 1,20,-1
 809 1153 l 1,0,-1
EndSplineSet
EndChar

StartChar: eight
Encoding: 56 56 46
Width: 1007
GlyphClass: 2
Flags: W
LayerCount: 2
Fore
SplineSet
499 -18 m 256,0,1
 404 -18 404 -18 326 6 c 128,-1,2
 248 30 248 30 192.5 73.5 c 128,-1,3
 137 117 137 117 106.5 178.5 c 128,-1,4
 76 240 76 240 76 315 c 0,5,6
 76 417 76 417 131.5 493 c 128,-1,7
 187 569 187 569 303 599 c 1,8,9
 247 620 247 620 210 648 c 128,-1,10
 173 676 173 676 150.5 710 c 128,-1,11
 128 744 128 744 118.5 783.5 c 128,-1,12
 109 823 109 823 109 867 c 0,13,14
 109 934 109 934 136.5 990 c 128,-1,15
 164 1046 164 1046 215 1086.5 c 128,-1,16
 266 1127 266 1127 338 1149 c 128,-1,17
 410 1171 410 1171 499 1171 c 256,18,19
 588 1171 588 1171 660 1149 c 128,-1,20
 732 1127 732 1127 783 1086.5 c 128,-1,21
 834 1046 834 1046 861.5 990 c 128,-1,22
 889 934 889 934 889 867 c 0,23,24
 889 823 889 823 879.5 783.5 c 128,-1,25
 870 744 870 744 847.5 710 c 128,-1,26
 825 676 825 676 787.5 648 c 128,-1,27
 750 620 750 620 695 599 c 1,28,29
 810 569 810 569 866 493 c 128,-1,30
 922 417 922 417 922 315 c 0,31,32
 922 240 922 240 891.5 178.5 c 128,-1,33
 861 117 861 117 805.5 73.5 c 128,-1,34
 750 30 750 30 672 6 c 128,-1,35
 594 -18 594 -18 499 -18 c 256,0,1
499 533 m 256,36,37
 370 533 370 533 305.5 477 c 128,-1,38
 241 421 241 421 241 321 c 0,39,40
 241 276 241 276 260 238.5 c 128,-1,41
 279 201 279 201 313 174 c 128,-1,42
 347 147 347 147 394.5 132 c 128,-1,43
 442 117 442 117 499 117 c 256,44,45
 556 117 556 117 603.5 132 c 128,-1,46
 651 147 651 147 685 174 c 128,-1,47
 719 201 719 201 738 238.5 c 128,-1,48
 757 276 757 276 757 321 c 0,49,50
 757 421 757 421 692.5 477 c 128,-1,51
 628 533 628 533 499 533 c 256,36,37
499 1040 m 256,52,53
 387 1040 387 1040 325 989.5 c 128,-1,54
 263 939 263 939 263 854 c 0,55,56
 263 812 263 812 280.5 777.5 c 128,-1,57
 298 743 298 743 329.5 717.5 c 128,-1,58
 361 692 361 692 404.5 677 c 128,-1,59
 448 662 448 662 499 659 c 1,60,61
 550 662 550 662 593 677 c 128,-1,62
 636 692 636 692 667.5 717.5 c 128,-1,63
 699 743 699 743 717 777.5 c 128,-1,64
 735 812 735 812 735 854 c 0,65,66
 735 939 735 939 673 989.5 c 128,-1,67
 611 1040 611 1040 499 1040 c 256,52,53
EndSplineSet
EndChar

StartChar: nine
Encoding: 57 57 47
Width: 949
GlyphClass: 2
Flags: W
LayerCount: 2
Fore
SplineSet
235 305 m 1,0,1
 241 260 241 260 260.5 224 c 128,-1,2
 280 188 280 188 309.5 162 c 128,-1,3
 339 136 339 136 376.5 122 c 128,-1,4
 414 108 414 108 455 108 c 0,5,6
 513 108 513 108 560 134 c 128,-1,7
 607 160 607 160 640 212.5 c 128,-1,8
 673 265 673 265 691 345.5 c 128,-1,9
 709 426 709 426 709 534 c 1,10,11
 658 483 658 483 582 456.5 c 128,-1,12
 506 430 506 430 421 430 c 0,13,14
 343 430 343 430 280 456.5 c 128,-1,15
 217 483 217 483 172 530.5 c 128,-1,16
 127 578 127 578 102.5 642 c 128,-1,17
 78 706 78 706 78 781 c 0,18,19
 78 865 78 865 103 936.5 c 128,-1,20
 128 1008 128 1008 175 1060 c 128,-1,21
 222 1112 222 1112 291 1141.5 c 128,-1,22
 360 1171 360 1171 447 1171 c 0,23,24
 651 1171 651 1171 755.5 1019 c 128,-1,25
 860 867 860 867 860 582 c 0,26,27
 860 445 860 445 834.5 334.5 c 128,-1,28
 809 224 809 224 758 145.5 c 128,-1,29
 707 67 707 67 629.5 24.5 c 128,-1,30
 552 -18 552 -18 448 -18 c 0,31,32
 370 -18 370 -18 306.5 5.5 c 128,-1,33
 243 29 243 29 197 72 c 128,-1,34
 151 115 151 115 125.5 174 c 128,-1,35
 100 233 100 233 98 305 c 1,36,-1
 235 305 l 1,0,1
438 571 m 0,37,38
 465 571 465 571 499 578.5 c 128,-1,39
 533 586 533 586 569 601 c 128,-1,40
 605 616 605 616 640 639 c 128,-1,41
 675 662 675 662 703 694 c 1,42,43
 695 778 695 778 678 841.5 c 128,-1,44
 661 905 661 905 631 948 c 128,-1,45
 601 991 601 991 557.5 1013 c 128,-1,46
 514 1035 514 1035 453 1035 c 0,47,48
 396 1035 396 1035 353 1016.5 c 128,-1,49
 310 998 310 998 281 965 c 128,-1,50
 252 932 252 932 237.5 887.5 c 128,-1,51
 223 843 223 843 223 791 c 0,52,53
 223 743 223 743 237.5 702.5 c 128,-1,54
 252 662 252 662 279.5 633 c 128,-1,55
 307 604 307 604 347 587.5 c 128,-1,56
 387 571 387 571 438 571 c 0,37,38
EndSplineSet
EndChar

StartChar: colon
Encoding: 58 58 48
Width: 414
GlyphClass: 2
Flags: W
LayerCount: 2
Fore
SplineSet
93 211 m 1,0,-1
 320 211 l 1,1,-1
 320 0 l 1,2,-1
 93 0 l 1,3,-1
 93 211 l 1,0,-1
93 820 m 1,4,-1
 320 820 l 1,5,-1
 320 609 l 1,6,-1
 93 609 l 1,7,-1
 93 820 l 1,4,-1
EndSplineSet
EndChar

StartChar: semicolon
Encoding: 59 59 49
Width: 414
GlyphClass: 2
Flags: W
LayerCount: 2
Fore
SplineSet
93 820 m 1,0,-1
 320 820 l 1,1,-1
 320 609 l 1,2,-1
 93 609 l 1,3,-1
 93 820 l 1,0,-1
100 211 m 1,4,-1
 327 211 l 1,5,-1
 327 0 l 2,6,7
 327 -57 327 -57 315.5 -101.5 c 128,-1,8
 304 -146 304 -146 277.5 -176 c 128,-1,9
 251 -206 251 -206 207.5 -221.5 c 128,-1,10
 164 -237 164 -237 100 -237 c 1,11,-1
 100 -150 l 1,12,13
 134 -143 134 -143 157 -132.5 c 128,-1,14
 180 -122 180 -122 194 -104.5 c 128,-1,15
 208 -87 208 -87 214.5 -61.5 c 128,-1,16
 221 -36 221 -36 221 0 c 1,17,-1
 100 0 l 1,18,-1
 100 211 l 1,4,-1
EndSplineSet
EndChar

StartChar: less
Encoding: 60 60 50
Width: 1109
GlyphClass: 2
Flags: W
LayerCount: 2
Fore
SplineSet
212 572 m 1,0,-1
 991 252 l 1,1,-1
 991 124 l 1,2,-1
 55 518 l 1,3,-1
 55 625 l 1,4,-1
 991 1019 l 1,5,-1
 991 891 l 1,6,-1
 212 572 l 1,0,-1
EndSplineSet
EndChar

StartChar: equal
Encoding: 61 61 51
Width: 1152
GlyphClass: 2
Flags: W
LayerCount: 2
Fore
SplineSet
931 673 m 1,0,-1
 931 555 l 1,1,-1
 220 555 l 1,2,-1
 220 673 l 1,3,-1
 931 673 l 1,0,-1
931 299 m 1,4,-1
 931 182 l 1,5,-1
 220 182 l 1,6,-1
 220 299 l 1,7,-1
 931 299 l 1,4,-1
EndSplineSet
EndChar

StartChar: greater
Encoding: 62 62 52
Width: 1108
GlyphClass: 2
Flags: W
LayerCount: 2
Fore
SplineSet
117 891 m 1,0,-1
 117 1019 l 1,1,-1
 1053 625 l 1,2,-1
 1053 518 l 1,3,-1
 117 124 l 1,4,-1
 117 252 l 1,5,-1
 896 572 l 1,6,-1
 117 891 l 1,0,-1
EndSplineSet
EndChar

StartChar: question
Encoding: 63 63 53
Width: 796
GlyphClass: 2
Flags: W
LayerCount: 2
Fore
SplineSet
319 323 m 1,0,1
 319 331 319 331 318.5 338.5 c 128,-1,2
 318 346 318 346 318 354 c 0,3,4
 318 439 318 439 330 498 c 128,-1,5
 342 557 342 557 361.5 598 c 128,-1,6
 381 639 381 639 406 665 c 128,-1,7
 431 691 431 691 457.5 710.5 c 128,-1,8
 484 730 484 730 509 746.5 c 128,-1,9
 534 763 534 763 553.5 784.5 c 128,-1,10
 573 806 573 806 585 836 c 128,-1,11
 597 866 597 866 597 912 c 0,12,13
 597 953 597 953 581.5 986.5 c 128,-1,14
 566 1020 566 1020 539.5 1044 c 128,-1,15
 513 1068 513 1068 477 1081 c 128,-1,16
 441 1094 441 1094 401 1094 c 0,17,18
 301 1094 301 1094 245 1035.5 c 128,-1,19
 189 977 189 977 189 865 c 2,20,-1
 189 855 l 2,21,22
 189 850 189 850 190 849 c 1,23,-1
 56 849 l 1,24,25
 55 855 55 855 54.5 860.5 c 128,-1,26
 54 866 54 866 54 872 c 0,27,28
 54 965 54 965 84.5 1030.5 c 128,-1,29
 115 1096 115 1096 163.5 1137 c 128,-1,30
 212 1178 212 1178 274 1196.5 c 128,-1,31
 336 1215 336 1215 399 1215 c 0,32,33
 470 1215 470 1215 532 1193.5 c 128,-1,34
 594 1172 594 1172 639.5 1132.5 c 128,-1,35
 685 1093 685 1093 711.5 1037 c 128,-1,36
 738 981 738 981 738 912 c 0,37,38
 738 851 738 851 724.5 810 c 128,-1,39
 711 769 711 769 689 740 c 128,-1,40
 667 711 667 711 638 690 c 128,-1,41
 609 669 609 669 579 647.5 c 128,-1,42
 549 626 549 626 519 601.5 c 128,-1,43
 489 577 489 577 465 540 c 128,-1,44
 441 503 441 503 424.5 451 c 128,-1,45
 408 399 408 399 404 323 c 1,46,-1
 319 323 l 1,0,1
452 0 m 1,47,-1
 280 0 l 1,48,-1
 280 197 l 1,49,-1
 452 197 l 1,50,-1
 452 0 l 1,47,-1
EndSplineSet
EndChar

StartChar: at
Encoding: 64 64 54
Width: 1418
GlyphClass: 2
Flags: W
LayerCount: 2
Fore
SplineSet
1202 -3 m 1,0,1
 1115 -70 1115 -70 1006 -106.5 c 128,-1,2
 897 -143 897 -143 755 -143 c 0,3,4
 635 -143 635 -143 536.5 -118.5 c 128,-1,5
 438 -94 438 -94 360 -50.5 c 128,-1,6
 282 -7 282 -7 224.5 53 c 128,-1,7
 167 113 167 113 129 183 c 128,-1,8
 91 253 91 253 72.5 331 c 128,-1,9
 54 409 54 409 54 489 c 0,10,11
 54 573 54 573 74 656.5 c 128,-1,12
 94 740 94 740 134 815.5 c 128,-1,13
 174 891 174 891 232.5 956 c 128,-1,14
 291 1021 291 1021 367.5 1069 c 128,-1,15
 444 1117 444 1117 538.5 1144 c 128,-1,16
 633 1171 633 1171 745 1171 c 0,17,18
 849 1171 849 1171 933 1149.5 c 128,-1,19
 1017 1128 1017 1128 1082.5 1090.5 c 128,-1,20
 1148 1053 1148 1053 1196 1001.5 c 128,-1,21
 1244 950 1244 950 1274.5 890 c 128,-1,22
 1305 830 1305 830 1320 764.5 c 128,-1,23
 1335 699 1335 699 1335 633 c 0,24,25
 1335 539 1335 539 1307 450.5 c 128,-1,26
 1279 362 1279 362 1226 293 c 128,-1,27
 1173 224 1173 224 1097.5 182.5 c 128,-1,28
 1022 141 1022 141 928 141 c 0,29,30
 889 141 889 141 861 169 c 128,-1,31
 833 197 833 197 826 263 c 1,32,33
 781 197 781 197 724 169 c 128,-1,34
 667 141 667 141 607 141 c 0,35,36
 556 141 556 141 507 162 c 128,-1,37
 458 183 458 183 420.5 224 c 128,-1,38
 383 265 383 265 360 325 c 128,-1,39
 337 385 337 385 337 463 c 0,40,41
 337 540 337 540 360 617.5 c 128,-1,42
 383 695 383 695 429.5 757 c 128,-1,43
 476 819 476 819 545.5 858 c 128,-1,44
 615 897 615 897 708 897 c 0,45,46
 831 897 831 897 908 766 c 1,47,48
 909 769 909 769 910.5 774.5 c 128,-1,49
 912 780 912 780 914 792 c 128,-1,50
 916 804 916 804 920 824.5 c 128,-1,51
 924 845 924 845 930 879 c 1,52,-1
 1066 879 l 1,53,54
 1035 735 1035 735 1013.5 636 c 128,-1,55
 992 537 992 537 978.5 472.5 c 128,-1,56
 965 408 965 408 957 372.5 c 128,-1,57
 949 337 949 337 945.5 320 c 128,-1,58
 942 303 942 303 941.5 299.5 c 128,-1,59
 941 296 941 296 941 295 c 0,60,61
 941 280 941 280 948 269 c 128,-1,62
 955 258 955 258 970 258 c 0,63,64
 987 258 987 258 1011.5 269 c 128,-1,65
 1036 280 1036 280 1062.5 301 c 128,-1,66
 1089 322 1089 322 1115.5 353.5 c 128,-1,67
 1142 385 1142 385 1163 426.5 c 128,-1,68
 1184 468 1184 468 1197 519.5 c 128,-1,69
 1210 571 1210 571 1210 632 c 0,70,71
 1210 715 1210 715 1179.5 792 c 128,-1,72
 1149 869 1149 869 1089.5 928.5 c 128,-1,73
 1030 988 1030 988 942 1023.5 c 128,-1,74
 854 1059 854 1059 740 1059 c 0,75,76
 620 1059 620 1059 518.5 1016.5 c 128,-1,77
 417 974 417 974 343.5 898 c 128,-1,78
 270 822 270 822 228.5 717 c 128,-1,79
 187 612 187 612 187 487 c 0,80,81
 187 370 187 370 224.5 274 c 128,-1,82
 262 178 262 178 334 110 c 128,-1,83
 406 42 406 42 512 4.5 c 128,-1,84
 618 -33 618 -33 755 -33 c 0,85,86
 984 -33 984 -33 1133 81 c 1,87,-1
 1202 -3 l 1,0,1
866 600 m 0,88,89
 866 684 866 684 819.5 734 c 128,-1,90
 773 784 773 784 695 784 c 0,91,92
 641 784 641 784 599.5 754.5 c 128,-1,93
 558 725 558 725 530 678.5 c 128,-1,94
 502 632 502 632 487.5 574.5 c 128,-1,95
 473 517 473 517 473 461 c 0,96,97
 473 419 473 419 483 381 c 128,-1,98
 493 343 493 343 513.5 313.5 c 128,-1,99
 534 284 534 284 565 267 c 128,-1,100
 596 250 596 250 638 250 c 0,101,102
 686 250 686 250 727.5 282 c 128,-1,103
 769 314 769 314 799.5 364 c 128,-1,104
 830 414 830 414 848 476.5 c 128,-1,105
 866 539 866 539 866 600 c 0,88,89
EndSplineSet
EndChar

StartChar: A
Encoding: 65 65 55
Width: 1196
GlyphClass: 2
Flags: W
LayerCount: 2
Fore
SplineSet
878 1153 m 1,0,-1
 878 1035 l 1,1,-1
 777 1035 l 1,2,3
 846 831 846 831 885.5 710 c 128,-1,4
 925 589 925 589 938 551 c 0,5,6
 976 436 976 436 1010 326 c 128,-1,7
 1044 216 1044 216 1071 117 c 1,8,-1
 1208 117 l 1,9,-1
 1208 0 l 1,10,-1
 755 0 l 1,11,-1
 755 117 l 1,12,-1
 905 117 l 1,13,-1
 820 424 l 1,14,-1
 375 424 l 1,15,-1
 291 117 l 1,16,-1
 440 117 l 1,17,-1
 440 0 l 1,18,-1
 -13 0 l 1,19,-1
 -13 117 l 1,20,-1
 125 117 l 1,21,22
 154 224 154 224 189.5 340 c 128,-1,23
 225 456 225 456 263.5 574.5 c 128,-1,24
 302 693 302 693 341.5 809.5 c 128,-1,25
 381 926 381 926 418 1035 c 1,26,-1
 318 1035 l 1,27,-1
 318 1153 l 1,28,-1
 878 1153 l 1,0,-1
790 545 m 1,29,30
 770 611 770 611 734.5 731.5 c 128,-1,31
 699 852 699 852 635 1035 c 1,32,-1
 561 1035 l 1,33,34
 497 852 497 852 460.5 731.5 c 128,-1,35
 424 611 424 611 405 545 c 1,36,-1
 790 545 l 1,29,30
EndSplineSet
EndChar

StartChar: B
Encoding: 66 66 56
Width: 1047
GlyphClass: 2
Flags: W
LayerCount: 2
Fore
SplineSet
214 117 m 1,0,-1
 214 1035 l 1,1,-1
 66 1035 l 1,2,-1
 66 1153 l 1,3,-1
 552 1153 l 2,4,5
 656 1153 656 1153 727.5 1128.5 c 128,-1,6
 799 1104 799 1104 843.5 1062.5 c 128,-1,7
 888 1021 888 1021 907.5 967.5 c 128,-1,8
 927 914 927 914 927 857 c 0,9,10
 927 811 927 811 914.5 771.5 c 128,-1,11
 902 732 902 732 880.5 700.5 c 128,-1,12
 859 669 859 669 830 645.5 c 128,-1,13
 801 622 801 622 767 607 c 1,14,15
 813 592 813 592 852.5 565.5 c 128,-1,16
 892 539 892 539 920.5 503 c 128,-1,17
 949 467 949 467 965.5 421.5 c 128,-1,18
 982 376 982 376 982 322 c 0,19,20
 982 270 982 270 963.5 213.5 c 128,-1,21
 945 157 945 157 896.5 109.5 c 128,-1,22
 848 62 848 62 762 31 c 128,-1,23
 676 0 676 0 541 0 c 2,24,-1
 66 0 l 1,25,-1
 66 117 l 1,26,-1
 214 117 l 1,0,-1
374 117 m 1,27,-1
 540 117 l 2,28,29
 616 117 616 117 668.5 132.5 c 128,-1,30
 721 148 721 148 753.5 176 c 128,-1,31
 786 204 786 204 800.5 243.5 c 128,-1,32
 815 283 815 283 815 332 c 0,33,34
 815 371 815 371 801.5 407 c 128,-1,35
 788 443 788 443 757 470.5 c 128,-1,36
 726 498 726 498 674 515 c 128,-1,37
 622 532 622 532 546 532 c 2,38,-1
 374 532 l 1,39,-1
 374 117 l 1,27,-1
537 661 m 2,40,41
 600 661 600 661 643 676 c 128,-1,42
 686 691 686 691 712.5 716.5 c 128,-1,43
 739 742 739 742 750.5 775.5 c 128,-1,44
 762 809 762 809 762 847 c 0,45,46
 762 892 762 892 748.5 927 c 128,-1,47
 735 962 735 962 705.5 986 c 128,-1,48
 676 1010 676 1010 628.5 1022.5 c 128,-1,49
 581 1035 581 1035 513 1035 c 2,50,-1
 374 1035 l 1,51,-1
 374 661 l 1,52,-1
 537 661 l 2,40,41
EndSplineSet
EndChar

StartChar: C
Encoding: 67 67 57
Width: 1249
GlyphClass: 2
Flags: W
LayerCount: 2
Fore
SplineSet
643 -19 m 0,0,1
 511 -19 511 -19 404.5 24.5 c 128,-1,2
 298 68 298 68 223.5 146 c 128,-1,3
 149 224 149 224 109 333.5 c 128,-1,4
 69 443 69 443 69 575 c 256,5,6
 69 707 69 707 109 817 c 128,-1,7
 149 927 149 927 226 1005.5 c 128,-1,8
 303 1084 303 1084 415 1127.5 c 128,-1,9
 527 1171 527 1171 670 1171 c 0,10,11
 785 1171 785 1171 874.5 1129.5 c 128,-1,12
 964 1088 964 1088 1027 1022 c 1,13,-1
 1027 1153 l 1,14,-1
 1157 1153 l 1,15,-1
 1157 804 l 1,16,-1
 1032 804 l 1,17,18
 974 921 974 921 874 978 c 128,-1,19
 774 1035 774 1035 648 1035 c 0,20,21
 553 1035 553 1035 478.5 1000.5 c 128,-1,22
 404 966 404 966 352.5 905 c 128,-1,23
 301 844 301 844 273.5 760.5 c 128,-1,24
 246 677 246 677 246 580 c 0,25,26
 246 484 246 484 268.5 399.5 c 128,-1,27
 291 315 291 315 340 252 c 128,-1,28
 389 189 389 189 466.5 153 c 128,-1,29
 544 117 544 117 654 117 c 0,30,31
 717 117 717 117 778 130 c 128,-1,32
 839 143 839 143 892 174 c 128,-1,33
 945 205 945 205 986.5 254.5 c 128,-1,34
 1028 304 1028 304 1053 378 c 1,35,-1
 1188 307 l 1,36,37
 1147 208 1147 208 1085 145 c 128,-1,38
 1023 82 1023 82 949.5 45.5 c 128,-1,39
 876 9 876 9 797 -5 c 128,-1,40
 718 -19 718 -19 643 -19 c 0,0,1
EndSplineSet
EndChar

StartChar: D
Encoding: 68 68 58
Width: 1271
GlyphClass: 2
Flags: W
LayerCount: 2
Fore
SplineSet
59 117 m 1,0,-1
 218 117 l 1,1,-1
 218 1035 l 1,2,-1
 59 1035 l 1,3,-1
 59 1153 l 1,4,-1
 613 1153 l 2,5,6
 727 1153 727 1153 815 1130 c 128,-1,7
 903 1107 903 1107 968 1066.5 c 128,-1,8
 1033 1026 1033 1026 1077.5 971.5 c 128,-1,9
 1122 917 1122 917 1149 854 c 128,-1,10
 1176 791 1176 791 1187.5 722.5 c 128,-1,11
 1199 654 1199 654 1199 587 c 0,12,13
 1199 454 1199 454 1165.5 346 c 128,-1,14
 1132 238 1132 238 1060 161 c 128,-1,15
 988 84 988 84 874 42 c 128,-1,16
 760 0 760 0 599 0 c 2,17,-1
 59 0 l 1,18,-1
 59 117 l 1,0,-1
380 117 m 1,19,-1
 625 117 l 2,20,21
 733 117 733 117 810.5 153.5 c 128,-1,22
 888 190 888 190 937.5 253 c 128,-1,23
 987 316 987 316 1010.5 400.5 c 128,-1,24
 1034 485 1034 485 1034 581 c 0,25,26
 1034 675 1034 675 1011.5 758 c 128,-1,27
 989 841 989 841 938.5 902.5 c 128,-1,28
 888 964 888 964 807 999.5 c 128,-1,29
 726 1035 726 1035 609 1035 c 2,30,-1
 380 1035 l 1,31,-1
 380 117 l 1,19,-1
EndSplineSet
EndChar

StartChar: E
Encoding: 69 69 59
Width: 1119
GlyphClass: 2
Flags: W
LayerCount: 2
Fore
SplineSet
60 117 m 1,0,-1
 216 117 l 1,1,-1
 216 1035 l 1,2,-1
 60 1035 l 1,3,-1
 60 1153 l 1,4,-1
 1031 1153 l 1,5,-1
 1031 832 l 1,6,-1
 900 832 l 1,7,-1
 900 1035 l 1,8,-1
 375 1035 l 1,9,-1
 375 655 l 1,10,-1
 737 655 l 1,11,-1
 737 769 l 1,12,-1
 837 769 l 1,13,-1
 837 410 l 1,14,-1
 736 410 l 1,15,-1
 736 526 l 1,16,-1
 377 526 l 1,17,-1
 377 117 l 1,18,-1
 902 117 l 1,19,-1
 902 328 l 1,20,-1
 1031 328 l 1,21,-1
 1031 0 l 1,22,-1
 60 0 l 1,23,-1
 60 117 l 1,0,-1
EndSplineSet
EndChar

StartChar: F
Encoding: 70 70 60
Width: 1006
GlyphClass: 2
Flags: W
LayerCount: 2
Fore
SplineSet
375 528 m 1,0,-1
 375 117 l 1,1,-1
 531 117 l 1,2,-1
 531 0 l 1,3,-1
 62 0 l 1,4,-1
 62 117 l 1,5,-1
 214 117 l 1,6,-1
 214 1035 l 1,7,-1
 62 1035 l 1,8,-1
 62 1153 l 1,9,-1
 979 1153 l 1,10,-1
 979 832 l 1,11,-1
 847 832 l 1,12,-1
 847 1035 l 1,13,-1
 374 1035 l 1,14,-1
 374 657 l 1,15,-1
 688 657 l 1,16,-1
 688 771 l 1,17,-1
 788 771 l 1,18,-1
 788 412 l 1,19,-1
 687 412 l 1,20,-1
 687 528 l 1,21,-1
 375 528 l 1,0,-1
EndSplineSet
EndChar

StartChar: G
Encoding: 71 71 61
Width: 1294
GlyphClass: 2
Flags: W
LayerCount: 2
Fore
SplineSet
653 1171 m 0,0,1
 778 1171 778 1171 876 1129.5 c 128,-1,2
 974 1088 974 1088 1040 1022 c 1,3,-1
 1040 1153 l 1,4,-1
 1170 1153 l 1,5,-1
 1170 804 l 1,6,-1
 1046 804 l 1,7,8
 986 922 986 922 888 978.5 c 128,-1,9
 790 1035 790 1035 662 1035 c 0,10,11
 562 1035 562 1035 484.5 1001 c 128,-1,12
 407 967 407 967 353.5 906 c 128,-1,13
 300 845 300 845 272.5 761.5 c 128,-1,14
 245 678 245 678 245 579 c 256,15,16
 245 480 245 480 272.5 395.5 c 128,-1,17
 300 311 300 311 354.5 249 c 128,-1,18
 409 187 409 187 489.5 152 c 128,-1,19
 570 117 570 117 677 117 c 0,20,21
 776 117 776 117 846 138 c 128,-1,22
 916 159 916 159 961 199.5 c 128,-1,23
 1006 240 1006 240 1029.5 299.5 c 128,-1,24
 1053 359 1053 359 1059 436 c 1,25,-1
 832 436 l 1,26,-1
 832 563 l 1,27,-1
 1239 563 l 1,28,29
 1236 405 1236 405 1192 295 c 128,-1,30
 1148 185 1148 185 1072.5 115 c 128,-1,31
 997 45 997 45 895.5 13.5 c 128,-1,32
 794 -18 794 -18 676 -18 c 0,33,34
 551 -18 551 -18 457.5 10.5 c 128,-1,35
 364 39 364 39 296.5 86.5 c 128,-1,36
 229 134 229 134 184.5 195.5 c 128,-1,37
 140 257 140 257 114 323.5 c 128,-1,38
 88 390 88 390 77.5 456.5 c 128,-1,39
 67 523 67 523 67 580 c 0,40,41
 67 646 67 646 80 715.5 c 128,-1,42
 93 785 93 785 122 851 c 128,-1,43
 151 917 151 917 196.5 975 c 128,-1,44
 242 1033 242 1033 307 1076.5 c 128,-1,45
 372 1120 372 1120 458 1145.5 c 128,-1,46
 544 1171 544 1171 653 1171 c 0,0,1
EndSplineSet
EndChar

StartChar: H
Encoding: 72 72 62
Width: 1294
GlyphClass: 2
Flags: W
LayerCount: 2
Fore
SplineSet
72 117 m 1,0,-1
 211 117 l 1,1,-1
 211 1035 l 1,2,-1
 72 1035 l 1,3,-1
 72 1153 l 1,4,-1
 515 1153 l 1,5,-1
 515 1035 l 1,6,-1
 371 1035 l 1,7,-1
 371 667 l 1,8,-1
 922 667 l 1,9,-1
 922 1035 l 1,10,-1
 780 1035 l 1,11,-1
 780 1153 l 1,12,-1
 1222 1153 l 1,13,-1
 1222 1035 l 1,14,-1
 1083 1035 l 1,15,-1
 1083 117 l 1,16,-1
 1222 117 l 1,17,-1
 1222 0 l 1,18,-1
 780 0 l 1,19,-1
 780 117 l 1,20,-1
 923 117 l 1,21,-1
 923 538 l 1,22,-1
 372 538 l 1,23,-1
 372 117 l 1,24,-1
 515 117 l 1,25,-1
 515 0 l 1,26,-1
 72 0 l 1,27,-1
 72 117 l 1,0,-1
EndSplineSet
EndChar

StartChar: I
Encoding: 73 73 63
Width: 581
GlyphClass: 2
Flags: W
LayerCount: 2
Fore
SplineSet
75 117 m 1,0,-1
 209 117 l 1,1,-1
 209 1035 l 1,2,-1
 75 1035 l 1,3,-1
 75 1153 l 1,4,-1
 503 1153 l 1,5,-1
 503 1035 l 1,6,-1
 371 1035 l 1,7,-1
 371 117 l 1,8,-1
 503 117 l 1,9,-1
 503 0 l 1,10,-1
 75 0 l 1,11,-1
 75 117 l 1,0,-1
EndSplineSet
EndChar

StartChar: J
Encoding: 74 74 64
Width: 557
GlyphClass: 2
Flags: W
LayerCount: 2
Fore
SplineSet
-64 -61 m 1,0,1
 -41 -63 -41 -63 -12.5 -64 c 128,-1,2
 16 -65 16 -65 56 -65 c 0,3,4
 134 -65 134 -65 165.5 -25.5 c 128,-1,5
 197 14 197 14 197 96 c 2,6,-1
 197 1035 l 1,7,-1
 42 1035 l 1,8,-1
 42 1153 l 1,9,-1
 513 1153 l 1,10,-1
 513 1035 l 1,11,-1
 360 1035 l 1,12,-1
 360 78 l 2,13,14
 360 -6 360 -6 335 -61.5 c 128,-1,15
 310 -117 310 -117 270 -150 c 128,-1,16
 230 -183 230 -183 180.5 -196.5 c 128,-1,17
 131 -210 131 -210 83 -210 c 0,18,19
 46 -210 46 -210 6 -205.5 c 128,-1,20
 -34 -201 -34 -201 -64 -194 c 1,21,-1
 -64 -61 l 1,0,1
EndSplineSet
EndChar

StartChar: K
Encoding: 75 75 65
Width: 1139
GlyphClass: 2
Flags: W
LayerCount: 2
Fore
SplineSet
655 117 m 1,0,-1
 783 117 l 1,1,-1
 375 587 l 1,2,-1
 375 117 l 1,3,-1
 514 117 l 1,4,-1
 514 0 l 1,5,-1
 64 0 l 1,6,-1
 64 117 l 1,7,-1
 214 117 l 1,8,-1
 214 1035 l 1,9,-1
 64 1035 l 1,10,-1
 64 1153 l 1,11,-1
 530 1153 l 1,12,-1
 530 1035 l 1,13,-1
 374 1035 l 1,14,-1
 374 618 l 1,15,-1
 795 1035 l 1,16,-1
 659 1035 l 1,17,-1
 659 1153 l 1,18,-1
 1110 1153 l 1,19,-1
 1110 1035 l 1,20,-1
 981 1035 l 1,21,-1
 560 605 l 1,22,-1
 990 117 l 1,23,-1
 1121 117 l 1,24,-1
 1121 0 l 1,25,-1
 655 0 l 1,26,-1
 655 117 l 1,0,-1
EndSplineSet
EndChar

StartChar: L
Encoding: 76 76 66
Width: 984
GlyphClass: 2
Flags: W
LayerCount: 2
Fore
SplineSet
59 117 m 1,0,-1
 217 117 l 1,1,-1
 217 1035 l 1,2,-1
 59 1035 l 1,3,-1
 59 1153 l 1,4,-1
 533 1153 l 1,5,-1
 533 1035 l 1,6,-1
 378 1035 l 1,7,-1
 378 117 l 1,8,-1
 788 117 l 1,9,-1
 788 452 l 1,10,-1
 933 452 l 1,11,-1
 933 0 l 1,12,-1
 59 0 l 1,13,-1
 59 117 l 1,0,-1
EndSplineSet
EndChar

StartChar: M
Encoding: 77 77 67
Width: 1577
GlyphClass: 2
Flags: W
LayerCount: 2
Fore
SplineSet
213 1035 m 1,0,-1
 65 1035 l 1,1,-1
 65 1153 l 1,2,-1
 450 1153 l 1,3,-1
 618 736 l 1,4,-1
 783 317 l 1,5,-1
 1121 1153 l 1,6,-1
 1511 1153 l 1,7,-1
 1511 1035 l 1,8,-1
 1364 1035 l 1,9,-1
 1364 117 l 1,10,-1
 1511 117 l 1,11,-1
 1511 0 l 1,12,-1
 1083 0 l 1,13,-1
 1083 117 l 1,14,-1
 1216 117 l 1,15,-1
 1216 1023 l 1,16,-1
 801 0 l 1,17,-1
 759 0 l 1,18,-1
 347 1022 l 1,19,-1
 347 117 l 1,20,-1
 480 117 l 1,21,-1
 480 0 l 1,22,-1
 65 0 l 1,23,-1
 65 117 l 1,24,-1
 213 117 l 1,25,-1
 213 1035 l 1,0,-1
EndSplineSet
EndChar

StartChar: N
Encoding: 78 78 68
Width: 1322
GlyphClass: 2
Flags: W
LayerCount: 2
Fore
SplineSet
56 117 m 1,0,-1
 225 117 l 1,1,-1
 225 1035 l 1,2,-1
 56 1035 l 1,3,-1
 56 1153 l 1,4,-1
 438 1153 l 1,5,-1
 986 211 l 1,6,-1
 986 1035 l 1,7,-1
 821 1035 l 1,8,-1
 821 1153 l 1,9,-1
 1293 1153 l 1,10,-1
 1293 1035 l 1,11,-1
 1120 1035 l 1,12,-1
 1120 0 l 1,13,-1
 937 0 l 1,14,-1
 359 997 l 1,15,-1
 359 117 l 1,16,-1
 528 117 l 1,17,-1
 528 0 l 1,18,-1
 56 0 l 1,19,-1
 56 117 l 1,0,-1
EndSplineSet
EndChar

StartChar: O
Encoding: 79 79 69
Width: 1321
GlyphClass: 2
Flags: W
LayerCount: 2
Fore
SplineSet
66 575 m 256,0,1
 66 700 66 700 107 809 c 128,-1,2
 148 918 148 918 224.5 998.5 c 128,-1,3
 301 1079 301 1079 411.5 1125 c 128,-1,4
 522 1171 522 1171 660 1171 c 0,5,6
 799 1171 799 1171 909.5 1124.5 c 128,-1,7
 1020 1078 1020 1078 1097 997.5 c 128,-1,8
 1174 917 1174 917 1215 808 c 128,-1,9
 1256 699 1256 699 1256 575 c 256,10,11
 1256 451 1256 451 1215 342.5 c 128,-1,12
 1174 234 1174 234 1097 154 c 128,-1,13
 1020 74 1020 74 909.5 27.5 c 128,-1,14
 799 -19 799 -19 660 -19 c 256,15,16
 521 -19 521 -19 411 27 c 128,-1,17
 301 73 301 73 224.5 153.5 c 128,-1,18
 148 234 148 234 107 342 c 128,-1,19
 66 450 66 450 66 575 c 256,0,1
243 575 m 0,20,21
 243 480 243 480 272.5 397 c 128,-1,22
 302 314 302 314 357 251.5 c 128,-1,23
 412 189 412 189 488.5 153 c 128,-1,24
 565 117 565 117 660 117 c 256,25,26
 755 117 755 117 832.5 153 c 128,-1,27
 910 189 910 189 964.5 251.5 c 128,-1,28
 1019 314 1019 314 1048.5 397 c 128,-1,29
 1078 480 1078 480 1078 575 c 0,30,31
 1078 671 1078 671 1048.5 755 c 128,-1,32
 1019 839 1019 839 964.5 901.5 c 128,-1,33
 910 964 910 964 832.5 999.5 c 128,-1,34
 755 1035 755 1035 660 1035 c 256,35,36
 565 1035 565 1035 488.5 999.5 c 128,-1,37
 412 964 412 964 357 901.5 c 128,-1,38
 302 839 302 839 272.5 755 c 128,-1,39
 243 671 243 671 243 575 c 0,20,21
EndSplineSet
EndChar

StartChar: P
Encoding: 80 80 70
Width: 1030
GlyphClass: 2
Flags: W
LayerCount: 2
Fore
SplineSet
63 117 m 1,0,-1
 214 117 l 1,1,-1
 214 1035 l 1,2,-1
 63 1035 l 1,3,-1
 63 1153 l 1,4,-1
 596 1153 l 2,5,6
 716 1153 716 1153 792.5 1120.5 c 128,-1,7
 869 1088 869 1088 913.5 1037.5 c 128,-1,8
 958 987 958 987 975 925 c 128,-1,9
 992 863 992 863 992 805 c 0,10,11
 992 705 992 705 957 640.5 c 128,-1,12
 922 576 922 576 859.5 538.5 c 128,-1,13
 797 501 797 501 710.5 486.5 c 128,-1,14
 624 472 624 472 522 472 c 2,15,-1
 376 472 l 1,16,-1
 376 117 l 1,17,-1
 534 117 l 1,18,-1
 534 0 l 1,19,-1
 63 0 l 1,20,-1
 63 117 l 1,0,-1
374 577 m 1,21,-1
 552 577 l 2,22,23
 633 577 633 577 686.5 594.5 c 128,-1,24
 740 612 740 612 771 643 c 128,-1,25
 802 674 802 674 814.5 716 c 128,-1,26
 827 758 827 758 827 807 c 0,27,28
 827 916 827 916 768.5 975.5 c 128,-1,29
 710 1035 710 1035 601 1035 c 2,30,-1
 374 1035 l 1,31,-1
 374 577 l 1,21,-1
EndSplineSet
EndChar

StartChar: Q
Encoding: 81 81 71
Width: 1323
GlyphClass: 2
Flags: W
LayerCount: 2
Fore
SplineSet
67 575 m 0,0,1
 67 700 67 700 108 809 c 128,-1,2
 149 918 149 918 225.5 998.5 c 128,-1,3
 302 1079 302 1079 412.5 1125 c 128,-1,4
 523 1171 523 1171 661 1171 c 0,5,6
 800 1171 800 1171 910.5 1124.5 c 128,-1,7
 1021 1078 1021 1078 1098 997.5 c 128,-1,8
 1175 917 1175 917 1216 808 c 128,-1,9
 1257 699 1257 699 1257 575 c 0,10,11
 1257 462 1257 462 1220.5 362 c 128,-1,12
 1184 262 1184 262 1115.5 185 c 128,-1,13
 1047 108 1047 108 948.5 58 c 128,-1,14
 850 8 850 8 726 -5 c 1,15,16
 760 -15 760 -15 795 -28 c 128,-1,17
 830 -41 830 -41 866.5 -53 c 128,-1,18
 903 -65 903 -65 940 -73 c 128,-1,19
 977 -81 977 -81 1014 -81 c 0,20,21
 1034 -81 1034 -81 1052.5 -78.5 c 128,-1,22
 1071 -76 1071 -76 1090 -70 c 1,23,-1
 1091 -218 l 1,24,25
 1045 -231 1045 -231 996 -231 c 0,26,27
 959 -231 959 -231 925.5 -223.5 c 128,-1,28
 892 -216 892 -216 860.5 -205 c 128,-1,29
 829 -194 829 -194 797.5 -180.5 c 128,-1,30
 766 -167 766 -167 732 -156 c 128,-1,31
 698 -145 698 -145 661 -137.5 c 128,-1,32
 624 -130 624 -130 581 -130 c 0,33,34
 505 -130 505 -130 440.5 -144 c 128,-1,35
 376 -158 376 -158 319 -183 c 1,36,-1
 318 -46 l 1,37,38
 378 -15 378 -15 425.5 -3 c 128,-1,39
 473 9 473 9 513 9 c 1,40,41
 408 33 408 33 325 86 c 128,-1,42
 242 139 242 139 184.5 213 c 128,-1,43
 127 287 127 287 97 379.5 c 128,-1,44
 67 472 67 472 67 575 c 0,0,1
244 575 m 0,45,46
 244 477 244 477 273.5 393.5 c 128,-1,47
 303 310 303 310 358 248.5 c 128,-1,48
 413 187 413 187 489.5 152 c 128,-1,49
 566 117 566 117 661 117 c 256,50,51
 756 117 756 117 833.5 152 c 128,-1,52
 911 187 911 187 965.5 248.5 c 128,-1,53
 1020 310 1020 310 1049.5 393.5 c 128,-1,54
 1079 477 1079 477 1079 575 c 0,55,56
 1079 671 1079 671 1049.5 755 c 128,-1,57
 1020 839 1020 839 965.5 901.5 c 128,-1,58
 911 964 911 964 833.5 999.5 c 128,-1,59
 756 1035 756 1035 661 1035 c 256,60,61
 566 1035 566 1035 489.5 999.5 c 128,-1,62
 413 964 413 964 358 901.5 c 128,-1,63
 303 839 303 839 273.5 755 c 128,-1,64
 244 671 244 671 244 575 c 0,45,46
EndSplineSet
EndChar

StartChar: R
Encoding: 82 82 72
Width: 1107
GlyphClass: 2
Flags: W
LayerCount: 2
Fore
SplineSet
57 117 m 1,0,-1
 220 117 l 1,1,-1
 220 1035 l 1,2,-1
 57 1035 l 1,3,-1
 57 1153 l 1,4,-1
 608 1153 l 2,5,6
 707 1153 707 1153 778.5 1131.5 c 128,-1,7
 850 1110 850 1110 896.5 1071 c 128,-1,8
 943 1032 943 1032 965.5 977 c 128,-1,9
 988 922 988 922 988 855 c 0,10,11
 988 737 988 737 925 660.5 c 128,-1,12
 862 584 862 584 729 558 c 1,13,-1
 963 117 l 1,14,-1
 1109 117 l 1,15,-1
 1109 0 l 1,16,-1
 856 0 l 1,17,-1
 573 538 l 1,18,-1
 380 538 l 1,19,-1
 380 117 l 1,20,-1
 536 117 l 1,21,-1
 536 0 l 1,22,-1
 57 0 l 1,23,-1
 57 117 l 1,0,-1
603 657 m 2,24,25
 668 657 668 657 710.5 674.5 c 128,-1,26
 753 692 753 692 778 720 c 128,-1,27
 803 748 803 748 813 783.5 c 128,-1,28
 823 819 823 819 823 855 c 0,29,30
 823 940 823 940 762.5 987.5 c 128,-1,31
 702 1035 702 1035 596 1035 c 2,32,-1
 380 1035 l 1,33,-1
 380 657 l 1,34,-1
 603 657 l 2,24,25
EndSplineSet
EndChar

StartChar: S
Encoding: 83 83 73
Width: 972
GlyphClass: 2
Flags: W
LayerCount: 2
Fore
SplineSet
527 -18 m 0,0,1
 357 -18 357 -18 231 87 c 1,2,-1
 231 0 l 1,3,-1
 96 0 l 1,4,-1
 96 387 l 1,5,-1
 231 387 l 1,6,-1
 231 271 l 1,7,8
 291 193 291 193 360 155 c 128,-1,9
 429 117 429 117 523 117 c 0,10,11
 574 117 574 117 615 131.5 c 128,-1,12
 656 146 656 146 685 171 c 128,-1,13
 714 196 714 196 729.5 230 c 128,-1,14
 745 264 745 264 745 304 c 0,15,16
 745 360 745 360 719.5 396.5 c 128,-1,17
 694 433 694 433 650 457.5 c 128,-1,18
 606 482 606 482 547.5 498 c 128,-1,19
 489 514 489 514 422 530 c 1,20,21
 354 545 354 545 293 568 c 128,-1,22
 232 591 232 591 186.5 628.5 c 128,-1,23
 141 666 141 666 114.5 722 c 128,-1,24
 88 778 88 778 88 859 c 0,25,26
 88 936 88 936 116 994.5 c 128,-1,27
 144 1053 144 1053 193 1092 c 128,-1,28
 242 1131 242 1131 308 1151 c 128,-1,29
 374 1171 374 1171 449 1171 c 0,30,31
 522 1171 522 1171 589 1147.5 c 128,-1,32
 656 1124 656 1124 713 1079 c 1,33,-1
 713 1153 l 1,34,-1
 848 1153 l 1,35,-1
 848 826 l 1,36,-1
 713 826 l 1,37,-1
 713 908 l 1,38,39
 667 971 667 971 609.5 1003 c 128,-1,40
 552 1035 552 1035 470 1035 c 0,41,42
 414 1035 414 1035 372 1022 c 128,-1,43
 330 1009 330 1009 301.5 986.5 c 128,-1,44
 273 964 273 964 258.5 933.5 c 128,-1,45
 244 903 244 903 244 867 c 0,46,47
 244 807 244 807 275 771.5 c 128,-1,48
 306 736 306 736 356.5 714.5 c 128,-1,49
 407 693 407 693 470.5 679 c 128,-1,50
 534 665 534 665 600 648 c 0,51,52
 663 631 663 631 719 603.5 c 128,-1,53
 775 576 775 576 817.5 535 c 128,-1,54
 860 494 860 494 885 437.5 c 128,-1,55
 910 381 910 381 910 306 c 0,56,57
 910 237 910 237 882 177.5 c 128,-1,58
 854 118 854 118 804 74.5 c 128,-1,59
 754 31 754 31 683 6.5 c 128,-1,60
 612 -18 612 -18 527 -18 c 0,0,1
EndSplineSet
EndChar

StartChar: T
Encoding: 84 84 74
Width: 1034
GlyphClass: 2
Flags: W
LayerCount: 2
Fore
SplineSet
262 117 m 1,0,-1
 437 117 l 1,1,-1
 437 1035 l 1,2,-1
 172 1035 l 1,3,-1
 172 805 l 1,4,-1
 43 805 l 1,5,-1
 43 1153 l 1,6,-1
 990 1153 l 1,7,-1
 990 805 l 1,8,-1
 859 805 l 1,9,-1
 859 1035 l 1,10,-1
 600 1035 l 1,11,-1
 600 117 l 1,12,-1
 774 117 l 1,13,-1
 774 0 l 1,14,-1
 262 0 l 1,15,-1
 262 117 l 1,0,-1
EndSplineSet
EndChar

StartChar: U
Encoding: 85 85 75
Width: 1211
GlyphClass: 2
Flags: W
LayerCount: 2
Fore
SplineSet
34 1035 m 1,0,-1
 34 1153 l 1,1,-1
 486 1153 l 1,2,-1
 486 1035 l 1,3,-1
 344 1035 l 1,4,-1
 344 378 l 2,5,6
 344 314 344 314 357.5 265.5 c 128,-1,7
 371 217 371 217 401.5 184 c 128,-1,8
 432 151 432 151 481.5 134 c 128,-1,9
 531 117 531 117 602 117 c 0,10,11
 678 117 678 117 729.5 135 c 128,-1,12
 781 153 781 153 811.5 187.5 c 128,-1,13
 842 222 842 222 855 273 c 128,-1,14
 868 324 868 324 868 389 c 2,15,-1
 868 1035 l 1,16,-1
 726 1035 l 1,17,-1
 726 1153 l 1,18,-1
 1177 1153 l 1,19,-1
 1177 1035 l 1,20,-1
 1028 1035 l 1,21,22
 1028 916 1028 916 1028.5 805.5 c 128,-1,23
 1029 695 1029 695 1029 606.5 c 128,-1,24
 1029 518 1029 518 1029.5 458 c 128,-1,25
 1030 398 1030 398 1030 380 c 0,26,27
 1030 272 1030 272 996.5 196.5 c 128,-1,28
 963 121 963 121 906 73 c 128,-1,29
 849 25 849 25 773.5 3.5 c 128,-1,30
 698 -18 698 -18 614 -18 c 0,31,32
 480 -18 480 -18 396 16 c 128,-1,33
 312 50 312 50 264.5 105.5 c 128,-1,34
 217 161 217 161 199.5 233 c 128,-1,35
 182 305 182 305 182 382 c 0,36,37
 182 388 182 388 182 419 c 128,-1,38
 182 450 182 450 182.5 496.5 c 128,-1,39
 183 543 183 543 183 600.5 c 128,-1,40
 183 658 183 658 183.5 717 c 128,-1,41
 184 776 184 776 184 831 c 128,-1,42
 184 886 184 886 184 928 c 2,43,-1
 184 1035 l 1,44,-1
 34 1035 l 1,0,-1
EndSplineSet
EndChar

StartChar: V
Encoding: 86 86 76
Width: 1208
GlyphClass: 2
Flags: W
LayerCount: 2
Fore
SplineSet
125 1035 m 1,0,-1
 -21 1035 l 1,1,-1
 -21 1153 l 1,2,-1
 434 1153 l 1,3,-1
 434 1035 l 1,4,-1
 293 1035 l 1,5,-1
 610 184 l 1,6,-1
 922 1035 l 1,7,-1
 781 1035 l 1,8,-1
 781 1153 l 1,9,-1
 1226 1153 l 1,10,-1
 1226 1035 l 1,11,-1
 1080 1035 l 1,12,-1
 682 0 l 1,13,-1
 528 0 l 1,14,-1
 125 1035 l 1,0,-1
EndSplineSet
EndChar

StartChar: W
Encoding: 87 87 77
Width: 1759
GlyphClass: 2
Flags: W
LayerCount: 2
Fore
SplineSet
125 1035 m 1,0,-1
 -20 1035 l 1,1,-1
 -20 1153 l 1,2,-1
 423 1153 l 1,3,-1
 423 1035 l 1,4,-1
 279 1035 l 1,5,-1
 524 210 l 1,6,-1
 647 623 l 1,7,-1
 764 1035 l 1,8,-1
 624 1035 l 1,9,-1
 624 1153 l 1,10,-1
 1143 1153 l 1,11,-1
 1143 1035 l 1,12,-1
 1004 1035 l 1,13,-1
 1245 210 l 1,14,-1
 1370 623 l 1,15,-1
 1489 1035 l 1,16,-1
 1345 1035 l 1,17,-1
 1345 1153 l 1,18,-1
 1772 1153 l 1,19,-1
 1772 1035 l 1,20,-1
 1630 1035 l 1,21,-1
 1320 -10 l 1,22,-1
 1162 -10 l 1,23,-1
 876 928 l 1,24,-1
 594 -10 l 1,25,-1
 441 -10 l 1,26,-1
 125 1035 l 1,0,-1
EndSplineSet
EndChar

StartChar: X
Encoding: 88 88 78
Width: 1149
GlyphClass: 2
Flags: W
LayerCount: 2
Fore
SplineSet
18 117 m 1,0,-1
 179 117 l 1,1,-1
 492 582 l 1,2,-1
 183 1035 l 1,3,-1
 29 1035 l 1,4,-1
 29 1153 l 1,5,-1
 491 1153 l 1,6,-1
 491 1035 l 1,7,-1
 356 1035 l 1,8,-1
 578 705 l 1,9,-1
 804 1035 l 1,10,-1
 664 1035 l 1,11,-1
 664 1153 l 1,12,-1
 1110 1153 l 1,13,-1
 1110 1035 l 1,14,-1
 959 1035 l 1,15,-1
 657 595 l 1,16,-1
 985 117 l 1,17,-1
 1140 117 l 1,18,-1
 1140 0 l 1,19,-1
 668 0 l 1,20,-1
 668 117 l 1,21,-1
 807 117 l 1,22,-1
 571 470 l 1,23,-1
 335 117 l 1,24,-1
 479 117 l 1,25,-1
 479 0 l 1,26,-1
 18 0 l 1,27,-1
 18 117 l 1,0,-1
EndSplineSet
EndChar

StartChar: Y
Encoding: 89 89 79
Width: 1130
GlyphClass: 2
Flags: W
LayerCount: 2
Fore
SplineSet
327 117 m 1,0,-1
 486 117 l 1,1,-1
 486 530 l 1,2,-1
 128 1035 l 1,3,-1
 -18 1035 l 1,4,-1
 -18 1153 l 1,5,-1
 454 1153 l 1,6,-1
 454 1035 l 1,7,-1
 304 1035 l 1,8,-1
 578 648 l 1,9,-1
 835 1035 l 1,10,-1
 685 1035 l 1,11,-1
 685 1153 l 1,12,-1
 1145 1153 l 1,13,-1
 1145 1035 l 1,14,-1
 989 1035 l 1,15,-1
 646 530 l 1,16,-1
 646 117 l 1,17,-1
 810 117 l 1,18,-1
 810 0 l 1,19,-1
 327 0 l 1,20,-1
 327 117 l 1,0,-1
EndSplineSet
EndChar

StartChar: Z
Encoding: 90 90 80
Width: 1010
GlyphClass: 2
Flags: W
LayerCount: 2
Fore
SplineSet
62 128 m 1,0,-1
 719 1035 l 1,1,-1
 221 1035 l 1,2,-1
 221 833 l 1,3,-1
 92 833 l 1,4,-1
 92 1153 l 1,5,-1
 924 1153 l 1,6,-1
 924 1041 l 1,7,-1
 257 117 l 1,8,-1
 805 117 l 1,9,-1
 805 335 l 1,10,-1
 934 335 l 1,11,-1
 934 0 l 1,12,-1
 62 0 l 1,13,-1
 62 128 l 1,0,-1
EndSplineSet
EndChar

StartChar: bracketleft
Encoding: 91 91 81
Width: 569
GlyphClass: 2
Flags: W
LayerCount: 2
Fore
SplineSet
541 1263 m 1,0,-1
 541 1154 l 1,1,-1
 290 1154 l 1,2,-1
 290 -112 l 1,3,-1
 541 -112 l 1,4,-1
 541 -219 l 1,5,-1
 147 -219 l 1,6,-1
 147 1263 l 1,7,-1
 541 1263 l 1,0,-1
EndSplineSet
EndChar

StartChar: backslash
Encoding: 92 92 82
Width: 793
GlyphClass: 2
Flags: W
LayerCount: 2
Fore
SplineSet
258 1171 m 1,0,-1
 692 -18 l 1,1,-1
 563 -18 l 1,2,-1
 129 1171 l 1,3,-1
 258 1171 l 1,0,-1
EndSplineSet
EndChar

StartChar: bracketright
Encoding: 93 93 83
Width: 569
GlyphClass: 2
Flags: W
LayerCount: 2
Fore
SplineSet
426 1263 m 1,0,-1
 426 -219 l 1,1,-1
 32 -219 l 1,2,-1
 32 -112 l 1,3,-1
 283 -112 l 1,4,-1
 283 1154 l 1,5,-1
 32 1154 l 1,6,-1
 32 1263 l 1,7,-1
 426 1263 l 1,0,-1
EndSplineSet
EndChar

StartChar: asciicircum
Encoding: 94 94 84
Width: 826
GlyphClass: 2
Flags: W
LayerCount: 2
Fore
SplineSet
788 605 m 1,0,-1
 637 605 l 1,1,-1
 415 1040 l 1,2,-1
 189 605 l 1,3,-1
 38 605 l 1,4,-1
 339 1171 l 1,5,-1
 492 1171 l 1,6,-1
 788 605 l 1,0,-1
EndSplineSet
EndChar

StartChar: underscore
Encoding: 95 95 85
Width: 898
GlyphClass: 2
Flags: W
LayerCount: 2
Fore
SplineSet
898 -82 m 1,0,-1
 898 -199 l 1,1,-1
 0 -199 l 1,2,-1
 0 -82 l 1,3,-1
 898 -82 l 1,0,-1
EndSplineSet
EndChar

StartChar: grave
Encoding: 96 96 86
Width: 562
GlyphClass: 2
Flags: W
LayerCount: 2
Fore
SplineSet
292 914 m 1,0,-1
 105 1171 l 1,1,-1
 312 1171 l 1,2,-1
 411 914 l 1,3,-1
 292 914 l 1,0,-1
EndSplineSet
EndChar

StartChar: a
Encoding: 97 97 87
Width: 889
GlyphClass: 2
Flags: W
LayerCount: 2
Fore
SplineSet
102 708 m 1,0,1
 156 762 156 762 236 791 c 128,-1,2
 316 820 316 820 419 820 c 0,3,4
 513 820 513 820 576 797.5 c 128,-1,5
 639 775 639 775 676 738 c 128,-1,6
 713 701 713 701 728.5 653 c 128,-1,7
 744 605 744 605 744 554 c 2,8,-1
 744 107 l 1,9,-1
 888 107 l 1,10,-1
 888 0 l 1,11,-1
 611 0 l 1,12,-1
 609 83 l 1,13,14
 569 54 569 54 534 34.5 c 128,-1,15
 499 15 499 15 465.5 3.5 c 128,-1,16
 432 -8 432 -8 398 -13 c 128,-1,17
 364 -18 364 -18 327 -18 c 0,18,19
 264 -18 264 -18 213.5 1.5 c 128,-1,20
 163 21 163 21 127.5 53 c 128,-1,21
 92 85 92 85 73.5 127.5 c 128,-1,22
 55 170 55 170 55 216 c 0,23,24
 55 291 55 291 82.5 340 c 128,-1,25
 110 389 110 389 157 418 c 128,-1,26
 204 447 204 447 267.5 458.5 c 128,-1,27
 331 470 331 470 402 470 c 0,28,29
 450 470 450 470 497 465 c 128,-1,30
 544 460 544 460 595 450 c 1,31,-1
 595 547 l 2,32,33
 595 589 595 589 580.5 618.5 c 128,-1,34
 566 648 566 648 540.5 666 c 128,-1,35
 515 684 515 684 481 692.5 c 128,-1,36
 447 701 447 701 409 701 c 0,37,38
 340 701 340 701 284.5 678.5 c 128,-1,39
 229 656 229 656 194 610 c 1,40,-1
 102 708 l 1,0,1
595 352 m 1,41,42
 563 353 563 353 514.5 360.5 c 128,-1,43
 466 368 466 368 412 368 c 0,44,45
 373 368 373 368 334 362.5 c 128,-1,46
 295 357 295 357 264.5 341 c 128,-1,47
 234 325 234 325 215 295 c 128,-1,48
 196 265 196 265 196 216 c 0,49,50
 196 190 196 190 206 166.5 c 128,-1,51
 216 143 216 143 235.5 126 c 128,-1,52
 255 109 255 109 283 99 c 128,-1,53
 311 89 311 89 348 89 c 0,54,55
 381 89 381 89 415 95 c 128,-1,56
 449 101 449 101 481.5 112.5 c 128,-1,57
 514 124 514 124 543 140.5 c 128,-1,58
 572 157 572 157 595 178 c 1,59,-1
 595 352 l 1,41,42
EndSplineSet
EndChar

StartChar: b
Encoding: 98 98 88
Width: 1071
GlyphClass: 2
Flags: W
LayerCount: 2
Fore
SplineSet
23 107 m 1,0,-1
 168 107 l 1,1,-1
 168 1032 l 1,2,-1
 25 1032 l 1,3,-1
 25 1153 l 1,4,-1
 319 1153 l 1,5,-1
 319 707 l 1,6,7
 382 765 382 765 453 792.5 c 128,-1,8
 524 820 524 820 615 820 c 0,9,10
 707 820 707 820 781 788 c 128,-1,11
 855 756 855 756 906.5 700.5 c 128,-1,12
 958 645 958 645 985.5 570 c 128,-1,13
 1013 495 1013 495 1013 410 c 0,14,15
 1013 321 1013 321 985 243 c 128,-1,16
 957 165 957 165 905.5 107 c 128,-1,17
 854 49 854 49 780 15.5 c 128,-1,18
 706 -18 706 -18 614 -18 c 0,19,20
 570 -18 570 -18 527 -9.5 c 128,-1,21
 484 -1 484 -1 445 15.5 c 128,-1,22
 406 32 406 32 373 56 c 128,-1,23
 340 80 340 80 318 111 c 1,24,-1
 314 0 l 1,25,-1
 23 0 l 1,26,-1
 23 107 l 1,0,-1
582 107 m 0,27,28
 646 107 646 107 696 129.5 c 128,-1,29
 746 152 746 152 780 191 c 128,-1,30
 814 230 814 230 832 282.5 c 128,-1,31
 850 335 850 335 850 396 c 0,32,33
 850 456 850 456 831.5 510 c 128,-1,34
 813 564 813 564 777.5 605 c 128,-1,35
 742 646 742 646 692 670 c 128,-1,36
 642 694 642 694 579 694 c 0,37,38
 534 694 534 694 495 681.5 c 128,-1,39
 456 669 456 669 423.5 649.5 c 128,-1,40
 391 630 391 630 364.5 607.5 c 128,-1,41
 338 585 338 585 319 564 c 1,42,-1
 319 229 l 1,43,44
 340 209 340 209 367.5 187.5 c 128,-1,45
 395 166 395 166 428 148 c 128,-1,46
 461 130 461 130 499.5 118.5 c 128,-1,47
 538 107 538 107 582 107 c 0,27,28
EndSplineSet
EndChar

StartChar: c
Encoding: 99 99 89
Width: 899
GlyphClass: 2
Flags: W
LayerCount: 2
Fore
SplineSet
829 157 m 1,0,1
 775 75 775 75 683 28 c 128,-1,2
 591 -19 591 -19 464 -19 c 0,3,4
 354 -19 354 -19 276.5 19.5 c 128,-1,5
 199 58 199 58 150.5 118 c 128,-1,6
 102 178 102 178 79.5 252 c 128,-1,7
 57 326 57 326 57 398 c 0,8,9
 57 490 57 490 87.5 567.5 c 128,-1,10
 118 645 118 645 172 701 c 128,-1,11
 226 757 226 757 300.5 788.5 c 128,-1,12
 375 820 375 820 463 820 c 0,13,14
 510 820 510 820 548.5 809 c 128,-1,15
 587 798 587 798 616.5 781.5 c 128,-1,16
 646 765 646 765 665 746.5 c 128,-1,17
 684 728 684 728 691 713 c 1,18,-1
 687 805 l 1,19,-1
 820 805 l 1,20,-1
 820 517 l 1,21,-1
 691 517 l 1,22,23
 683 553 683 553 667 585 c 128,-1,24
 651 617 651 617 624.5 641.5 c 128,-1,25
 598 666 598 666 560 680 c 128,-1,26
 522 694 522 694 471 694 c 0,27,28
 347 694 347 694 281.5 616 c 128,-1,29
 216 538 216 538 216 400 c 0,30,31
 216 334 216 334 232.5 280 c 128,-1,32
 249 226 249 226 280.5 187.5 c 128,-1,33
 312 149 312 149 359 128 c 128,-1,34
 406 107 406 107 468 107 c 0,35,36
 553 107 553 107 624 142 c 128,-1,37
 695 177 695 177 740 246 c 1,38,-1
 829 157 l 1,0,1
EndSplineSet
EndChar

StartChar: d
Encoding: 100 100 90
Width: 1071
GlyphClass: 2
Flags: W
LayerCount: 2
Fore
SplineSet
898 1153 m 1,0,-1
 898 107 l 1,1,-1
 1050 107 l 1,2,-1
 1050 0 l 1,3,-1
 746 0 l 1,4,-1
 745 99 l 1,5,6
 681 36 681 36 612.5 9 c 128,-1,7
 544 -18 544 -18 459 -18 c 0,8,9
 381 -18 381 -18 309 9 c 128,-1,10
 237 36 237 36 181 88.5 c 128,-1,11
 125 141 125 141 91.5 219 c 128,-1,12
 58 297 58 297 58 400 c 0,13,14
 58 485 58 485 86.5 561.5 c 128,-1,15
 115 638 115 638 167.5 695.5 c 128,-1,16
 220 753 220 753 295 786.5 c 128,-1,17
 370 820 370 820 462 820 c 0,18,19
 550 820 550 820 620 792.5 c 128,-1,20
 690 765 690 765 750 713 c 1,21,-1
 750 1035 l 1,22,-1
 588 1035 l 1,23,-1
 588 1153 l 1,24,-1
 898 1153 l 1,0,-1
485 107 m 0,25,26
 529 107 529 107 567.5 118 c 128,-1,27
 606 129 606 129 639 146 c 128,-1,28
 672 163 672 163 699 183 c 128,-1,29
 726 203 726 203 748 222 c 1,30,-1
 748 567 l 1,31,32
 727 587 727 587 699 609.5 c 128,-1,33
 671 632 671 632 637.5 650.5 c 128,-1,34
 604 669 604 669 564.5 681.5 c 128,-1,35
 525 694 525 694 480 694 c 0,36,37
 417 694 417 694 368 670.5 c 128,-1,38
 319 647 319 647 285.5 606.5 c 128,-1,39
 252 566 252 566 234.5 511.5 c 128,-1,40
 217 457 217 457 217 396 c 0,41,42
 217 338 217 338 235 285.5 c 128,-1,43
 253 233 253 233 287 193.5 c 128,-1,44
 321 154 321 154 371 130.5 c 128,-1,45
 421 107 421 107 485 107 c 0,25,26
EndSplineSet
EndChar

StartChar: e
Encoding: 101 101 91
Width: 955
GlyphClass: 2
Flags: W
LayerCount: 2
Fore
SplineSet
219 365 m 1,0,1
 222 307 222 307 243 259.5 c 128,-1,2
 264 212 264 212 301 178 c 128,-1,3
 338 144 338 144 389.5 125.5 c 128,-1,4
 441 107 441 107 506 107 c 0,5,6
 545 107 545 107 583 116 c 128,-1,7
 621 125 621 125 655 141.5 c 128,-1,8
 689 158 689 158 718 181 c 128,-1,9
 747 204 747 204 767 233 c 1,10,-1
 869 157 l 1,11,12
 818 79 818 79 727.5 30.5 c 128,-1,13
 637 -18 637 -18 502 -18 c 0,14,15
 398 -18 398 -18 315 15 c 128,-1,16
 232 48 232 48 174.5 105 c 128,-1,17
 117 162 117 162 86 238.5 c 128,-1,18
 55 315 55 315 55 402 c 0,19,20
 55 493 55 493 89 570 c 128,-1,21
 123 647 123 647 182 702.5 c 128,-1,22
 241 758 241 758 322 789 c 128,-1,23
 403 820 403 820 498 820 c 0,24,25
 597 820 597 820 672 784.5 c 128,-1,26
 747 749 747 749 797.5 688.5 c 128,-1,27
 848 628 848 628 873 548.5 c 128,-1,28
 898 469 898 469 898 382 c 2,29,-1
 898 365 l 1,30,-1
 219 365 l 1,0,1
754 467 m 1,31,32
 748 516 748 516 728 557.5 c 128,-1,33
 708 599 708 599 676 629.5 c 128,-1,34
 644 660 644 660 599.5 677 c 128,-1,35
 555 694 555 694 500 694 c 0,36,37
 439 694 439 694 391.5 677.5 c 128,-1,38
 344 661 344 661 309.5 631.5 c 128,-1,39
 275 602 275 602 253.5 560 c 128,-1,40
 232 518 232 518 223 467 c 1,41,-1
 754 467 l 1,31,32
EndSplineSet
EndChar

StartChar: f
Encoding: 102 102 92
Width: 555
GlyphClass: 2
Flags: W
LayerCount: 2
Fore
SplineSet
65 107 m 1,0,-1
 185 107 l 1,1,-1
 185 694 l 1,2,-1
 56 694 l 1,3,-1
 56 805 l 1,4,-1
 185 805 l 1,5,-1
 186 943 l 2,6,7
 186 1000 186 1000 203 1042.5 c 128,-1,8
 220 1085 220 1085 250.5 1113.5 c 128,-1,9
 281 1142 281 1142 323.5 1156.5 c 128,-1,10
 366 1171 366 1171 418 1171 c 0,11,12
 494 1171 494 1171 546 1130 c 128,-1,13
 598 1089 598 1089 610 1014 c 1,14,-1
 502 979 l 1,15,16
 491 1017 491 1017 468.5 1035 c 128,-1,17
 446 1053 446 1053 422 1053 c 0,18,19
 406 1053 406 1053 390.5 1048 c 128,-1,20
 375 1043 375 1043 363 1029.5 c 128,-1,21
 351 1016 351 1016 343.5 993 c 128,-1,22
 336 970 336 970 336 934 c 2,23,-1
 336 805 l 1,24,-1
 489 805 l 1,25,-1
 489 694 l 1,26,-1
 336 694 l 1,27,-1
 336 107 l 1,28,-1
 498 107 l 1,29,-1
 498 0 l 1,30,-1
 65 0 l 1,31,-1
 65 107 l 1,0,-1
EndSplineSet
EndChar

StartChar: g
Encoding: 103 103 93
Width: 1069
GlyphClass: 2
Flags: W
LayerCount: 2
Fore
SplineSet
485 -360 m 0,0,1
 438 -360 438 -360 398 -354.5 c 128,-1,2
 358 -349 358 -349 321.5 -337.5 c 128,-1,3
 285 -326 285 -326 250.5 -308 c 128,-1,4
 216 -290 216 -290 181 -265 c 1,5,-1
 248 -163 l 1,6,7
 299 -200 299 -200 358 -218 c 128,-1,8
 417 -236 417 -236 478 -236 c 0,9,10
 523 -236 523 -236 570.5 -224 c 128,-1,11
 618 -212 618 -212 657.5 -184 c 128,-1,12
 697 -156 697 -156 722.5 -110.5 c 128,-1,13
 748 -65 748 -65 748 3 c 2,14,-1
 748 93 l 1,15,16
 727 73 727 73 694.5 56.5 c 128,-1,17
 662 40 662 40 623 27 c 128,-1,18
 584 14 584 14 541.5 7 c 128,-1,19
 499 0 499 0 458 0 c 0,20,21
 365 0 365 0 291 31 c 128,-1,22
 217 62 217 62 165 115.5 c 128,-1,23
 113 169 113 169 85.5 240.5 c 128,-1,24
 58 312 58 312 58 392 c 0,25,26
 58 479 58 479 86.5 556.5 c 128,-1,27
 115 634 115 634 168 692.5 c 128,-1,28
 221 751 221 751 296 785.5 c 128,-1,29
 371 820 371 820 464 820 c 0,30,31
 623 820 623 820 748 709 c 1,32,-1
 748 805 l 1,33,-1
 1049 805 l 1,34,-1
 1049 694 l 1,35,-1
 898 694 l 1,36,-1
 898 381 l 2,37,38
 898 324 898 324 898 268 c 128,-1,39
 898 212 898 212 898.5 167 c 128,-1,40
 899 122 899 122 899 92.5 c 128,-1,41
 899 63 899 63 899 57 c 0,42,43
 899 -62 899 -62 862.5 -142 c 128,-1,44
 826 -222 826 -222 767.5 -270.5 c 128,-1,45
 709 -319 709 -319 635 -339.5 c 128,-1,46
 561 -360 561 -360 485 -360 c 0,0,1
485 125 m 0,47,48
 528 125 528 125 566.5 135 c 128,-1,49
 605 145 605 145 638 160 c 128,-1,50
 671 175 671 175 698.5 193.5 c 128,-1,51
 726 212 726 212 748 229 c 1,52,-1
 748 571 l 1,53,54
 728 590 728 590 701.5 611.5 c 128,-1,55
 675 633 675 633 642 651.5 c 128,-1,56
 609 670 609 670 570.5 682 c 128,-1,57
 532 694 532 694 488 694 c 0,58,59
 425 694 425 694 375 670.5 c 128,-1,60
 325 647 325 647 289.5 606.5 c 128,-1,61
 254 566 254 566 235.5 511.5 c 128,-1,62
 217 457 217 457 217 396 c 0,63,64
 217 340 217 340 235 290.5 c 128,-1,65
 253 241 253 241 287 204 c 128,-1,66
 321 167 321 167 371 146 c 128,-1,67
 421 125 421 125 485 125 c 0,47,48
EndSplineSet
EndChar

StartChar: h
Encoding: 104 104 94
Width: 1024
GlyphClass: 2
Flags: W
LayerCount: 2
Fore
SplineSet
21 107 m 1,0,-1
 173 107 l 1,1,-1
 173 1032 l 1,2,-1
 23 1032 l 1,3,-1
 23 1153 l 1,4,-1
 322 1153 l 1,5,-1
 322 726 l 1,6,7
 464 820 464 820 626 820 c 0,8,9
 882 820 882 820 882 556 c 0,10,11
 882 553 882 553 882 533.5 c 128,-1,12
 882 514 882 514 881.5 483 c 128,-1,13
 881 452 881 452 881 413.5 c 128,-1,14
 881 375 881 375 881 335 c 2,15,-1
 881 107 l 1,16,-1
 1025 107 l 1,17,-1
 1025 0 l 1,18,-1
 631 0 l 1,19,-1
 631 107 l 1,20,-1
 733 107 l 1,21,-1
 733 528 l 2,22,23
 733 562 733 562 727 592.5 c 128,-1,24
 721 623 721 623 705 645.5 c 128,-1,25
 689 668 689 668 662 681 c 128,-1,26
 635 694 635 694 593 694 c 0,27,28
 532 694 532 694 460.5 673 c 128,-1,29
 389 652 389 652 322 607 c 1,30,-1
 322 107 l 1,31,-1
 467 107 l 1,32,-1
 467 0 l 1,33,-1
 21 0 l 1,34,-1
 21 107 l 1,0,-1
EndSplineSet
EndChar

StartChar: i
Encoding: 105 105 95
Width: 509
GlyphClass: 2
Flags: W
LayerCount: 2
Fore
SplineSet
59 107 m 1,0,-1
 194 107 l 1,1,-1
 194 694 l 1,2,-1
 59 694 l 1,3,-1
 59 805 l 1,4,-1
 343 805 l 1,5,-1
 343 107 l 1,6,-1
 479 107 l 1,7,-1
 479 0 l 1,8,-1
 59 0 l 1,9,-1
 59 107 l 1,0,-1
176 1066 m 256,10,11
 176 1084 176 1084 183 1100 c 128,-1,12
 190 1116 190 1116 202.5 1128 c 128,-1,13
 215 1140 215 1140 231.5 1146.5 c 128,-1,14
 248 1153 248 1153 267 1153 c 0,15,16
 306 1153 306 1153 332.5 1128 c 128,-1,17
 359 1103 359 1103 359 1066 c 256,18,19
 359 1029 359 1029 332.5 1004 c 128,-1,20
 306 979 306 979 267 979 c 0,21,22
 248 979 248 979 231.5 985.5 c 128,-1,23
 215 992 215 992 202.5 1004 c 128,-1,24
 190 1016 190 1016 183 1032 c 128,-1,25
 176 1048 176 1048 176 1066 c 256,10,11
EndSplineSet
EndChar

StartChar: j
Encoding: 106 106 96
Width: 441
GlyphClass: 2
Flags: W
LayerCount: 2
Fore
SplineSet
-60 -235 m 1,0,1
 -37 -237 -37 -237 -20 -238 c 128,-1,2
 -3 -239 -3 -239 17 -239 c 0,3,4
 59 -239 59 -239 87 -228 c 128,-1,5
 115 -217 115 -217 132 -193.5 c 128,-1,6
 149 -170 149 -170 156 -133 c 128,-1,7
 163 -96 163 -96 163 -43 c 2,8,-1
 163 694 l 1,9,-1
 11 694 l 1,10,-1
 11 805 l 1,11,-1
 314 805 l 1,12,-1
 314 4 l 2,13,14
 314 -72 314 -72 307 -139 c 128,-1,15
 300 -206 300 -206 272 -256.5 c 128,-1,16
 244 -307 244 -307 187 -337 c 128,-1,17
 130 -367 130 -367 31 -368 c 0,18,19
 6 -368 6 -368 -15 -366.5 c 128,-1,20
 -36 -365 -36 -365 -60 -361 c 1,21,-1
 -60 -235 l 1,0,1
143 1066 m 256,22,23
 143 1103 143 1103 169.5 1128 c 128,-1,24
 196 1153 196 1153 235 1153 c 256,25,26
 274 1153 274 1153 300.5 1128 c 128,-1,27
 327 1103 327 1103 327 1066 c 256,28,29
 327 1029 327 1029 300.5 1004 c 128,-1,30
 274 979 274 979 235 979 c 256,31,32
 196 979 196 979 169.5 1004 c 128,-1,33
 143 1029 143 1029 143 1066 c 256,22,23
EndSplineSet
EndChar

StartChar: k
Encoding: 107 107 97
Width: 995
GlyphClass: 2
Flags: W
LayerCount: 2
Fore
SplineSet
20 107 m 1,0,-1
 173 107 l 1,1,-1
 173 1032 l 1,2,-1
 20 1032 l 1,3,-1
 20 1153 l 1,4,-1
 321 1153 l 1,5,-1
 321 430 l 1,6,-1
 650 694 l 1,7,-1
 511 694 l 1,8,-1
 511 805 l 1,9,-1
 958 805 l 1,10,-1
 958 694 l 1,11,-1
 826 694 l 1,12,-1
 494 415 l 1,13,-1
 836 107 l 1,14,-1
 966 107 l 1,15,-1
 966 0 l 1,16,-1
 545 0 l 1,17,-1
 545 107 l 1,18,-1
 651 107 l 1,19,-1
 321 405 l 1,20,-1
 321 107 l 1,21,-1
 426 107 l 1,22,-1
 426 0 l 1,23,-1
 20 0 l 1,24,-1
 20 107 l 1,0,-1
EndSplineSet
EndChar

StartChar: l
Encoding: 108 108 98
Width: 487
GlyphClass: 2
Flags: W
LayerCount: 2
Fore
SplineSet
21 107 m 1,0,-1
 173 107 l 1,1,-1
 173 1032 l 1,2,-1
 24 1032 l 1,3,-1
 24 1153 l 1,4,-1
 322 1153 l 1,5,-1
 322 107 l 1,6,-1
 455 107 l 1,7,-1
 455 0 l 1,8,-1
 21 0 l 1,9,-1
 21 107 l 1,0,-1
EndSplineSet
EndChar

StartChar: m
Encoding: 109 109 99
Width: 1554
GlyphClass: 2
Flags: W
LayerCount: 2
Fore
SplineSet
208 694 m 1,0,-1
 65 694 l 1,1,-1
 65 805 l 1,2,-1
 354 805 l 1,3,-1
 359 698 l 1,4,5
 428 756 428 756 495.5 788 c 128,-1,6
 563 820 563 820 641 820 c 0,7,8
 722 820 722 820 777 783 c 128,-1,9
 832 746 832 746 859 680 c 1,10,11
 939 748 939 748 1009 784 c 128,-1,12
 1079 820 1079 820 1159 820 c 0,13,14
 1221 820 1221 820 1266 800.5 c 128,-1,15
 1311 781 1311 781 1340 747 c 128,-1,16
 1369 713 1369 713 1383 667 c 128,-1,17
 1397 621 1397 621 1397 568 c 2,18,-1
 1397 107 l 1,19,-1
 1542 107 l 1,20,-1
 1542 0 l 1,21,-1
 1137 0 l 1,22,-1
 1137 107 l 1,23,-1
 1250 107 l 1,24,-1
 1250 537 l 2,25,26
 1250 609 1250 609 1220.5 651.5 c 128,-1,27
 1191 694 1191 694 1122 694 c 0,28,29
 1088 694 1088 694 1051.5 680.5 c 128,-1,30
 1015 667 1015 667 982 647 c 128,-1,31
 949 627 949 627 922 604 c 128,-1,32
 895 581 895 581 880 561 c 1,33,-1
 880 107 l 1,34,-1
 1005 107 l 1,35,-1
 1005 0 l 1,36,-1
 616 0 l 1,37,-1
 616 107 l 1,38,-1
 728 107 l 1,39,-1
 728 534 l 2,40,41
 728 619 728 619 695 656.5 c 128,-1,42
 662 694 662 694 599 694 c 256,43,44
 536 694 536 694 479.5 662.5 c 128,-1,45
 423 631 423 631 359 571 c 1,46,-1
 359 107 l 1,47,-1
 484 107 l 1,48,-1
 484 0 l 1,49,-1
 58 0 l 1,50,-1
 58 107 l 1,51,-1
 208 107 l 1,52,-1
 208 694 l 1,0,-1
EndSplineSet
EndChar

StartChar: n
Encoding: 110 110 100
Width: 1031
GlyphClass: 2
Flags: W
LayerCount: 2
Fore
SplineSet
63 107 m 1,0,-1
 206 107 l 1,1,-1
 206 694 l 1,2,-1
 57 694 l 1,3,-1
 57 805 l 1,4,-1
 353 805 l 1,5,-1
 357 701 l 1,6,7
 434 761 434 761 500 790.5 c 128,-1,8
 566 820 566 820 640 820 c 0,9,10
 695 820 695 820 738.5 802 c 128,-1,11
 782 784 782 784 812.5 750 c 128,-1,12
 843 716 843 716 859 668.5 c 128,-1,13
 875 621 875 621 875 562 c 2,14,-1
 874 107 l 1,15,-1
 1019 107 l 1,16,-1
 1019 0 l 1,17,-1
 617 0 l 1,18,-1
 617 107 l 1,19,-1
 727 107 l 1,20,-1
 727 507 l 2,21,22
 727 595 727 595 700 644.5 c 128,-1,23
 673 694 673 694 602 694 c 0,24,25
 533 694 533 694 472 658 c 128,-1,26
 411 622 411 622 357 570 c 1,27,-1
 357 107 l 1,28,-1
 502 107 l 1,29,-1
 502 0 l 1,30,-1
 63 0 l 1,31,-1
 63 107 l 1,0,-1
EndSplineSet
EndChar

StartChar: o
Encoding: 111 111 101
Width: 966
GlyphClass: 2
Flags: W
LayerCount: 2
Fore
SplineSet
482 107 m 256,0,1
 544 107 544 107 593.5 129.5 c 128,-1,2
 643 152 643 152 678 191.5 c 128,-1,3
 713 231 713 231 731.5 285 c 128,-1,4
 750 339 750 339 750 402 c 0,5,6
 750 463 750 463 731.5 516.5 c 128,-1,7
 713 570 713 570 678 609.5 c 128,-1,8
 643 649 643 649 593.5 671.5 c 128,-1,9
 544 694 544 694 482 694 c 256,10,11
 420 694 420 694 371 671.5 c 128,-1,12
 322 649 322 649 287.5 609.5 c 128,-1,13
 253 570 253 570 234.5 516.5 c 128,-1,14
 216 463 216 463 216 402 c 0,15,16
 216 339 216 339 234.5 285 c 128,-1,17
 253 231 253 231 287.5 191.5 c 128,-1,18
 322 152 322 152 371 129.5 c 128,-1,19
 420 107 420 107 482 107 c 256,0,1
482 -18 m 256,20,21
 384 -18 384 -18 305.5 15 c 128,-1,22
 227 48 227 48 172 105 c 128,-1,23
 117 162 117 162 87 238.5 c 128,-1,24
 57 315 57 315 57 402 c 256,25,26
 57 489 57 489 87 565 c 128,-1,27
 117 641 117 641 172.5 698 c 128,-1,28
 228 755 228 755 307 787.5 c 128,-1,29
 386 820 386 820 484 820 c 0,30,31
 581 820 581 820 660 787.5 c 128,-1,32
 739 755 739 755 794.5 698 c 128,-1,33
 850 641 850 641 880 565 c 128,-1,34
 910 489 910 489 910 402 c 256,35,36
 910 315 910 315 880 238.5 c 128,-1,37
 850 162 850 162 794 105 c 128,-1,38
 738 48 738 48 659 15 c 128,-1,39
 580 -18 580 -18 482 -18 c 256,20,21
EndSplineSet
EndChar

StartChar: p
Encoding: 112 112 102
Width: 1058
GlyphClass: 2
Flags: W
LayerCount: 2
Fore
SplineSet
13 -244 m 1,0,-1
 166 -244 l 1,1,-1
 166 694 l 1,2,-1
 25 694 l 1,3,-1
 25 805 l 1,4,-1
 305 805 l 1,5,-1
 313 698 l 1,6,7
 370 758 370 758 445.5 789 c 128,-1,8
 521 820 521 820 602 820 c 0,9,10
 695 820 695 820 769 787 c 128,-1,11
 843 754 843 754 894.5 697 c 128,-1,12
 946 640 946 640 973.5 563.5 c 128,-1,13
 1001 487 1001 487 1001 400 c 0,14,15
 1001 314 1001 314 972.5 238 c 128,-1,16
 944 162 944 162 891.5 105 c 128,-1,17
 839 48 839 48 765 15 c 128,-1,18
 691 -18 691 -18 600 -18 c 0,19,20
 519 -18 519 -18 444.5 8.5 c 128,-1,21
 370 35 370 35 313 87 c 1,22,-1
 313 -245 l 1,23,-1
 478 -245 l 1,24,-1
 478 -368 l 1,25,-1
 13 -368 l 1,26,-1
 13 -244 l 1,0,-1
578 107 m 0,27,28
 642 107 642 107 692 129.5 c 128,-1,29
 742 152 742 152 776 191 c 128,-1,30
 810 230 810 230 828 282.5 c 128,-1,31
 846 335 846 335 846 396 c 0,32,33
 846 456 846 456 827.5 510 c 128,-1,34
 809 564 809 564 773.5 605 c 128,-1,35
 738 646 738 646 688 670 c 128,-1,36
 638 694 638 694 575 694 c 0,37,38
 530 694 530 694 490.5 682 c 128,-1,39
 451 670 451 670 418 652 c 128,-1,40
 385 634 385 634 358.5 612 c 128,-1,41
 332 590 332 590 313 571 c 1,42,-1
 313 211 l 1,43,44
 336 193 336 193 363.5 174.5 c 128,-1,45
 391 156 391 156 424 141 c 128,-1,46
 457 126 457 126 495.5 116.5 c 128,-1,47
 534 107 534 107 578 107 c 0,27,28
EndSplineSet
EndChar

StartChar: q
Encoding: 113 113 103
Width: 1063
GlyphClass: 2
Flags: W
LayerCount: 2
Fore
SplineSet
583 -244 m 1,0,-1
 745 -244 l 1,1,-1
 745 90 l 1,2,3
 688 36 688 36 615 9 c 128,-1,4
 542 -18 542 -18 457 -18 c 0,5,6
 365 -18 365 -18 291.5 15 c 128,-1,7
 218 48 218 48 166 105 c 128,-1,8
 114 162 114 162 86 238.5 c 128,-1,9
 58 315 58 315 58 402 c 0,10,11
 58 488 58 488 86 564 c 128,-1,12
 114 640 114 640 167.5 697 c 128,-1,13
 221 754 221 754 298.5 787 c 128,-1,14
 376 820 376 820 475 820 c 0,15,16
 551 820 551 820 622 789.5 c 128,-1,17
 693 759 693 759 745 699 c 1,18,19
 745 701 745 701 745.5 717.5 c 128,-1,20
 746 734 746 734 748 754 c 2,21,-1
 751 805 l 1,22,-1
 1037 805 l 1,23,-1
 1037 694 l 1,24,-1
 895 694 l 1,25,-1
 895 -245 l 1,26,-1
 1047 -245 l 1,27,-1
 1047 -368 l 1,28,-1
 583 -368 l 1,29,-1
 583 -244 l 1,0,-1
480 107 m 0,30,31
 523 107 523 107 562 118.5 c 128,-1,32
 601 130 601 130 634 148 c 128,-1,33
 667 166 667 166 695 187.5 c 128,-1,34
 723 209 723 209 745 229 c 1,35,-1
 745 564 l 1,36,37
 725 585 725 585 698.5 608 c 128,-1,38
 672 631 672 631 640 650 c 128,-1,39
 608 669 608 669 570.5 681.5 c 128,-1,40
 533 694 533 694 491 694 c 0,41,42
 420 694 420 694 367.5 670 c 128,-1,43
 315 646 315 646 280.5 605 c 128,-1,44
 246 564 246 564 229 510 c 128,-1,45
 212 456 212 456 212 396 c 0,46,47
 212 335 212 335 230 282.5 c 128,-1,48
 248 230 248 230 282 191 c 128,-1,49
 316 152 316 152 366 129.5 c 128,-1,50
 416 107 416 107 480 107 c 0,30,31
EndSplineSet
EndChar

StartChar: r
Encoding: 114 114 104
Width: 761
GlyphClass: 2
Flags: W
LayerCount: 2
Fore
SplineSet
64 107 m 1,0,-1
 225 107 l 1,1,-1
 225 694 l 1,2,-1
 58 694 l 1,3,-1
 58 805 l 1,4,-1
 347 805 l 1,5,-1
 348 630 l 1,6,7
 375 685 375 685 406 721.5 c 128,-1,8
 437 758 437 758 473 780 c 128,-1,9
 509 802 509 802 551 811 c 128,-1,10
 593 820 593 820 641 820 c 0,11,12
 684 820 684 820 734 814 c 1,13,-1
 729 675 l 1,14,15
 728 676 728 676 713.5 676.5 c 128,-1,16
 699 677 699 677 682 677.5 c 128,-1,17
 665 678 665 678 649.5 678 c 128,-1,18
 634 678 634 678 631 678 c 0,19,20
 557 678 557 678 508 657 c 128,-1,21
 459 636 459 636 429.5 597 c 128,-1,22
 400 558 400 558 387.5 503 c 128,-1,23
 375 448 375 448 375 380 c 2,24,-1
 375 107 l 1,25,-1
 551 107 l 1,26,-1
 551 0 l 1,27,-1
 64 0 l 1,28,-1
 64 107 l 1,0,-1
EndSplineSet
EndChar

StartChar: s
Encoding: 115 115 105
Width: 809
GlyphClass: 2
Flags: W
LayerCount: 2
Fore
SplineSet
77 263 m 1,0,-1
 210 263 l 1,1,-1
 210 210 l 1,2,3
 223 185 223 185 240 165 c 128,-1,4
 257 145 257 145 281.5 130.5 c 128,-1,5
 306 116 306 116 339 108 c 128,-1,6
 372 100 372 100 416 100 c 0,7,8
 504 100 504 100 551.5 130 c 128,-1,9
 599 160 599 160 599 217 c 0,10,11
 599 249 599 249 586 268.5 c 128,-1,12
 573 288 573 288 549.5 300 c 128,-1,13
 526 312 526 312 493.5 318.5 c 128,-1,14
 461 325 461 325 421 331 c 0,15,16
 359 340 359 340 297.5 354 c 128,-1,17
 236 368 236 368 186.5 395.5 c 128,-1,18
 137 423 137 423 106 468.5 c 128,-1,19
 75 514 75 514 75 586 c 0,20,21
 75 635 75 635 96 678 c 128,-1,22
 117 721 117 721 156 752.5 c 128,-1,23
 195 784 195 784 249.5 802 c 128,-1,24
 304 820 304 820 372 820 c 0,25,26
 432 820 432 820 485 798.5 c 128,-1,27
 538 777 538 777 577 745 c 1,28,-1
 577 805 l 1,29,-1
 706 805 l 1,30,-1
 706 549 l 1,31,-1
 577 549 l 1,32,-1
 577 616 l 1,33,34
 506 702 506 702 378 702 c 0,35,36
 303 702 303 702 259.5 672.5 c 128,-1,37
 216 643 216 643 216 592 c 0,38,39
 216 559 216 559 239 539.5 c 128,-1,40
 262 520 262 520 299.5 507.5 c 128,-1,41
 337 495 337 495 385.5 486.5 c 128,-1,42
 434 478 434 478 484 468 c 128,-1,43
 534 458 534 458 582.5 442.5 c 128,-1,44
 631 427 631 427 668.5 400 c 128,-1,45
 706 373 706 373 729 331.5 c 128,-1,46
 752 290 752 290 752 228 c 0,47,48
 752 173 752 173 729.5 127.5 c 128,-1,49
 707 82 707 82 665.5 50 c 128,-1,50
 624 18 624 18 565 0 c 128,-1,51
 506 -18 506 -18 433 -18 c 0,52,53
 364 -18 364 -18 309.5 -2 c 128,-1,54
 255 14 255 14 210 50 c 1,55,-1
 210 0 l 1,56,-1
 77 0 l 1,57,-1
 77 263 l 1,0,-1
EndSplineSet
EndChar

StartChar: t
Encoding: 116 116 106
Width: 528
GlyphClass: 2
Flags: W
LayerCount: 2
Fore
SplineSet
35 805 m 1,0,-1
 159 805 l 1,1,-1
 159 1063 l 1,2,-1
 310 1095 l 1,3,-1
 310 805 l 1,4,-1
 483 805 l 1,5,-1
 483 694 l 1,6,-1
 310 694 l 1,7,-1
 310 289 l 2,8,9
 310 243 310 243 311.5 209 c 128,-1,10
 313 175 313 175 321 152.5 c 128,-1,11
 329 130 329 130 346 118.5 c 128,-1,12
 363 107 363 107 395 107 c 2,13,-1
 513 107 l 1,14,-1
 513 0 l 1,15,-1
 375 0 l 2,16,17
 297 0 297 0 253.5 23 c 128,-1,18
 210 46 210 46 189 86.5 c 128,-1,19
 168 127 168 127 163.5 181.5 c 128,-1,20
 159 236 159 236 159 300 c 2,21,-1
 159 694 l 1,22,-1
 35 694 l 1,23,-1
 35 805 l 1,0,-1
EndSplineSet
EndChar

StartChar: u
Encoding: 117 117 107
Width: 994
GlyphClass: 2
Flags: W
LayerCount: 2
Fore
SplineSet
678 0 m 1,0,-1
 673 100 l 1,1,2
 607 40 607 40 541.5 11 c 128,-1,3
 476 -18 476 -18 401 -18 c 0,4,5
 335 -18 335 -18 288 1.5 c 128,-1,6
 241 21 241 21 210.5 57 c 128,-1,7
 180 93 180 93 166 144.5 c 128,-1,8
 152 196 152 196 152 261 c 2,9,-1
 152 694 l 1,10,-1
 32 694 l 1,11,-1
 32 805 l 1,12,-1
 304 805 l 1,13,-1
 304 268 l 2,14,15
 304 190 304 190 332 148.5 c 128,-1,16
 360 107 360 107 429 107 c 0,17,18
 499 107 499 107 562 147 c 128,-1,19
 625 187 625 187 673 250 c 1,20,-1
 673 694 l 1,21,-1
 528 694 l 1,22,-1
 528 805 l 1,23,-1
 824 805 l 1,24,-1
 824 107 l 1,25,-1
 970 107 l 1,26,-1
 970 0 l 1,27,-1
 678 0 l 1,0,-1
EndSplineSet
EndChar

StartChar: v
Encoding: 118 118 108
Width: 960
GlyphClass: 2
Flags: W
LayerCount: 2
Fore
SplineSet
144 694 m 1,0,-1
 -2 694 l 1,1,-1
 -2 805 l 1,2,-1
 409 805 l 1,3,-1
 409 694 l 1,4,-1
 293 694 l 1,5,-1
 488 171 l 1,6,-1
 683 694 l 1,7,-1
 560 694 l 1,8,-1
 560 805 l 1,9,-1
 962 805 l 1,10,-1
 962 694 l 1,11,-1
 832 694 l 1,12,-1
 558 0 l 1,13,-1
 422 0 l 1,14,-1
 144 694 l 1,0,-1
EndSplineSet
EndChar

StartChar: w
Encoding: 119 119 109
Width: 1403
GlyphClass: 2
Flags: W
LayerCount: 2
Fore
SplineSet
111 694 m 1,0,-1
 2 694 l 1,1,-1
 2 805 l 1,2,-1
 356 805 l 1,3,-1
 356 694 l 1,4,-1
 240 694 l 1,5,-1
 327 412 l 1,6,-1
 413 157 l 1,7,-1
 503 413 l 1,8,-1
 590 694 l 1,9,-1
 495 694 l 1,10,-1
 495 805 l 1,11,-1
 893 805 l 1,12,-1
 893 694 l 1,13,-1
 798 694 l 1,14,-1
 979 146 l 1,15,-1
 1151 694 l 1,16,-1
 1029 694 l 1,17,-1
 1029 805 l 1,18,-1
 1402 805 l 1,19,-1
 1402 694 l 1,20,-1
 1280 694 l 1,21,-1
 1046 0 l 1,22,-1
 904 0 l 1,23,-1
 699 606 l 1,24,-1
 487 0 l 1,25,-1
 344 0 l 1,26,-1
 111 694 l 1,0,-1
EndSplineSet
EndChar

StartChar: x
Encoding: 120 120 110
Width: 989
GlyphClass: 2
Flags: W
LayerCount: 2
Fore
SplineSet
35 107 m 1,0,-1
 153 107 l 1,1,-1
 416 413 l 1,2,-1
 169 694 l 1,3,-1
 54 694 l 1,4,-1
 54 805 l 1,5,-1
 444 805 l 1,6,-1
 444 694 l 1,7,-1
 324 694 l 1,8,-1
 493 500 l 1,9,-1
 656 694 l 1,10,-1
 554 694 l 1,11,-1
 554 805 l 1,12,-1
 944 805 l 1,13,-1
 944 694 l 1,14,-1
 811 694 l 1,15,-1
 572 413 l 1,16,-1
 840 107 l 1,17,-1
 948 107 l 1,18,-1
 948 0 l 1,19,-1
 552 0 l 1,20,-1
 552 107 l 1,21,-1
 687 107 l 1,22,-1
 493 327 l 1,23,-1
 312 107 l 1,24,-1
 436 107 l 1,25,-1
 436 0 l 1,26,-1
 35 0 l 1,27,-1
 35 107 l 1,0,-1
EndSplineSet
EndChar

StartChar: y
Encoding: 121 121 111
Width: 982
GlyphClass: 2
Flags: W
LayerCount: 2
Fore
SplineSet
136 -108 m 1,0,-1
 247 -108 l 1,1,-1
 247 -187 l 1,2,3
 280 -187 280 -187 306.5 -184.5 c 128,-1,4
 333 -182 333 -182 355.5 -168 c 128,-1,5
 378 -154 378 -154 398 -125 c 128,-1,6
 418 -96 418 -96 439 -42 c 2,7,-1
 483 70 l 1,8,-1
 388 70 l 1,9,-1
 124 694 l 1,10,-1
 -1 694 l 1,11,-1
 -1 805 l 1,12,-1
 405 805 l 1,13,-1
 405 694 l 1,14,-1
 297 694 l 1,15,-1
 499 162 l 1,16,-1
 519 162 l 1,17,-1
 605 432 l 1,18,-1
 680 694 l 1,19,-1
 565 694 l 1,20,-1
 565 805 l 1,21,-1
 978 805 l 1,22,-1
 978 694 l 1,23,-1
 849 694 l 1,24,-1
 633 36 l 2,25,26
 604 -53 604 -53 573 -119.5 c 128,-1,27
 542 -186 542 -186 500 -230.5 c 128,-1,28
 458 -275 458 -275 400 -297 c 128,-1,29
 342 -319 342 -319 259 -319 c 0,30,31
 234 -319 234 -319 200.5 -316.5 c 128,-1,32
 167 -314 167 -314 136 -309 c 1,33,-1
 136 -108 l 1,0,-1
EndSplineSet
EndChar

StartChar: z
Encoding: 122 122 112
Width: 833
GlyphClass: 2
Flags: W
LayerCount: 2
Fore
SplineSet
754 0 m 1,0,-1
 54 0 l 1,1,-1
 54 116 l 1,2,-1
 579 694 l 1,3,-1
 215 694 l 1,4,-1
 215 537 l 1,5,-1
 94 537 l 1,6,-1
 94 805 l 1,7,-1
 757 805 l 1,8,-1
 757 683 l 1,9,-1
 225 107 l 1,10,-1
 626 107 l 1,11,-1
 626 276 l 1,12,-1
 754 276 l 1,13,-1
 754 0 l 1,0,-1
EndSplineSet
EndChar

StartChar: braceleft
Encoding: 123 123 113
Width: 528
GlyphClass: 2
Flags: W
LayerCount: 2
Fore
SplineSet
30 539 m 1,0,1
 77 539 77 539 106 556 c 128,-1,2
 135 573 135 573 151 605.5 c 128,-1,3
 167 638 167 638 172.5 684.5 c 128,-1,4
 178 731 178 731 178 790 c 0,5,6
 178 873 178 873 181.5 943 c 128,-1,7
 185 1013 185 1013 207.5 1063.5 c 128,-1,8
 230 1114 230 1114 279 1142.5 c 128,-1,9
 328 1171 328 1171 418 1171 c 2,10,-1
 492 1171 l 1,11,-1
 492 1052 l 1,12,13
 441 1052 441 1052 409 1046.5 c 128,-1,14
 377 1041 377 1041 358.5 1024 c 128,-1,15
 340 1007 340 1007 333.5 975.5 c 128,-1,16
 327 944 327 944 327 893 c 0,17,18
 327 792 327 792 323 722.5 c 128,-1,19
 319 653 319 653 305 606 c 128,-1,20
 291 559 291 559 264 528.5 c 128,-1,21
 237 498 237 498 192 475 c 1,22,23
 231 454 231 454 257 426 c 128,-1,24
 283 398 283 398 298.5 357 c 128,-1,25
 314 316 314 316 320 259 c 128,-1,26
 326 202 326 202 326 122 c 0,27,28
 326 47 326 47 328.5 2 c 128,-1,29
 331 -43 331 -43 346.5 -66 c 128,-1,30
 362 -89 362 -89 395.5 -96 c 128,-1,31
 429 -103 429 -103 492 -103 c 1,32,-1
 492 -223 l 1,33,-1
 419 -223 l 2,34,35
 329 -223 329 -223 280.5 -196 c 128,-1,36
 232 -169 232 -169 209 -119.5 c 128,-1,37
 186 -70 186 -70 182 -1.5 c 128,-1,38
 178 67 178 67 178 150 c 0,39,40
 178 211 178 211 173 259.5 c 128,-1,41
 168 308 168 308 152.5 341.5 c 128,-1,42
 137 375 137 375 108 392.5 c 128,-1,43
 79 410 79 410 30 410 c 1,44,-1
 30 539 l 1,0,1
EndSplineSet
EndChar

StartChar: bar
Encoding: 124 124 114
Width: 404
GlyphClass: 2
Flags: W
LayerCount: 2
Fore
SplineSet
263 1153 m 1,0,-1
 263 -96 l 1,1,-1
 141 -96 l 1,2,-1
 141 1153 l 1,3,-1
 263 1153 l 1,0,-1
EndSplineSet
EndChar

StartChar: braceright
Encoding: 125 125 115
Width: 528
GlyphClass: 2
Flags: W
LayerCount: 2
Fore
SplineSet
492 410 m 1,0,1
 443 410 443 410 414 392.5 c 128,-1,2
 385 375 385 375 369.5 341.5 c 128,-1,3
 354 308 354 308 349 259.5 c 128,-1,4
 344 211 344 211 344 150 c 0,5,6
 344 67 344 67 340 -1.5 c 128,-1,7
 336 -70 336 -70 313 -119.5 c 128,-1,8
 290 -169 290 -169 241.5 -196 c 128,-1,9
 193 -223 193 -223 103 -223 c 2,10,-1
 30 -223 l 1,11,-1
 30 -103 l 1,12,13
 92 -103 92 -103 125.5 -96.5 c 128,-1,14
 159 -90 159 -90 175 -67.5 c 128,-1,15
 191 -45 191 -45 193.5 -2 c 128,-1,16
 196 41 196 41 196 115 c 0,17,18
 196 197 196 197 202 255.5 c 128,-1,19
 208 314 208 314 223 356 c 128,-1,20
 238 398 238 398 264 426 c 128,-1,21
 290 454 290 454 330 475 c 1,22,23
 285 498 285 498 258 528.5 c 128,-1,24
 231 559 231 559 217 606 c 128,-1,25
 203 653 203 653 199 722.5 c 128,-1,26
 195 792 195 792 195 893 c 0,27,28
 195 944 195 944 188.5 975.5 c 128,-1,29
 182 1007 182 1007 163.5 1024 c 128,-1,30
 145 1041 145 1041 113 1046.5 c 128,-1,31
 81 1052 81 1052 30 1052 c 1,32,-1
 30 1171 l 1,33,-1
 104 1171 l 2,34,35
 194 1171 194 1171 242.5 1143 c 128,-1,36
 291 1115 291 1115 313.5 1065 c 128,-1,37
 336 1015 336 1015 340 946 c 128,-1,38
 344 877 344 877 344 795 c 0,39,40
 344 735 344 735 349.5 687.5 c 128,-1,41
 355 640 355 640 370.5 607 c 128,-1,42
 386 574 386 574 415 556.5 c 128,-1,43
 444 539 444 539 492 539 c 1,44,-1
 492 410 l 1,0,1
EndSplineSet
EndChar

StartChar: asciitilde
Encoding: 126 126 116
Width: 1062
GlyphClass: 2
Flags: W
LayerCount: 2
Fore
SplineSet
987 573 m 1,0,1
 942 500 942 500 890 470.5 c 128,-1,2
 838 441 838 441 778 441 c 0,3,4
 720 441 720 441 658 462.5 c 128,-1,5
 596 484 596 484 534 509.5 c 128,-1,6
 472 535 472 535 411 556.5 c 128,-1,7
 350 578 350 578 294 578 c 0,8,9
 249 578 249 578 208.5 559.5 c 128,-1,10
 168 541 168 541 132 496 c 1,11,-1
 77 573 l 1,12,13
 129 648 129 648 186.5 678.5 c 128,-1,14
 244 709 244 709 307 709 c 0,15,16
 364 709 364 709 424 689.5 c 128,-1,17
 484 670 484 670 544 647 c 128,-1,18
 604 624 604 624 662.5 604.5 c 128,-1,19
 721 585 721 585 775 585 c 0,20,21
 817 585 817 585 853.5 600 c 128,-1,22
 890 615 890 615 924 651 c 1,23,-1
 987 573 l 1,0,1
EndSplineSet
EndChar

StartChar: exclamdown
Encoding: 161 161 117
Width: 466
GlyphClass: 2
Flags: W
LayerCount: 2
Fore
SplineSet
189 847 m 1,0,-1
 277 847 l 1,1,-1
 319 350 l 1,2,-1
 319 0 l 1,3,-1
 147 0 l 1,4,-1
 147 350 l 1,5,-1
 189 847 l 1,0,-1
127 1171 m 1,6,-1
 339 1171 l 1,7,-1
 339 959 l 1,8,-1
 127 959 l 1,9,-1
 127 1171 l 1,6,-1
EndSplineSet
EndChar

StartChar: cent
Encoding: 162 162 118
Width: 918
GlyphClass: 2
Flags: W
LayerCount: 2
Fore
SplineSet
829 157 m 1,0,1
 775 75 775 75 683 28 c 128,-1,2
 591 -19 591 -19 464 -19 c 0,3,4
 435 -19 435 -19 409 -16 c 128,-1,5
 383 -13 383 -13 358 -8 c 1,6,-1
 238 -368 l 1,7,-1
 156 -368 l 1,8,-1
 284 16 l 1,9,10
 224 42 224 42 181 84.5 c 128,-1,11
 138 127 138 127 110.5 178.5 c 128,-1,12
 83 230 83 230 70 286.5 c 128,-1,13
 57 343 57 343 57 398 c 0,14,15
 57 490 57 490 87.5 567.5 c 128,-1,16
 118 645 118 645 172 701 c 128,-1,17
 226 757 226 757 300.5 788.5 c 128,-1,18
 375 820 375 820 463 820 c 0,19,20
 506 820 506 820 550 809 c 1,21,-1
 665 1153 l 1,22,-1
 748 1153 l 1,23,-1
 622 778 l 1,24,25
 649 762 649 762 666.5 744.5 c 128,-1,26
 684 727 684 727 691 713 c 1,27,-1
 687 805 l 1,28,-1
 820 805 l 1,29,-1
 820 517 l 1,30,-1
 691 517 l 1,31,32
 680 565 680 565 655 605 c 128,-1,33
 630 645 630 645 585 668 c 1,34,-1
 399 114 l 1,35,36
 424 107 424 107 468 107 c 0,37,38
 553 107 553 107 624 142 c 128,-1,39
 695 177 695 177 740 246 c 1,40,-1
 829 157 l 1,0,1
216 400 m 0,41,42
 216 312 216 312 244 246.5 c 128,-1,43
 272 181 272 181 327 145 c 1,44,-1
 510 691 l 1,45,46
 492 694 492 694 471 694 c 0,47,48
 347 694 347 694 281.5 616 c 128,-1,49
 216 538 216 538 216 400 c 0,41,42
EndSplineSet
EndChar

StartChar: sterling
Encoding: 163 163 119
Width: 993
GlyphClass: 2
Flags: W
LayerCount: 2
Fore
SplineSet
128 636 m 1,0,-1
 309 636 l 1,1,2
 292 664 292 664 277.5 698.5 c 128,-1,3
 263 733 263 733 252.5 767.5 c 128,-1,4
 242 802 242 802 236 834 c 128,-1,5
 230 866 230 866 230 889 c 0,6,7
 230 956 230 956 253 1008.5 c 128,-1,8
 276 1061 276 1061 317.5 1097 c 128,-1,9
 359 1133 359 1133 416 1152 c 128,-1,10
 473 1171 473 1171 542 1171 c 0,11,12
 618 1171 618 1171 677 1149.5 c 128,-1,13
 736 1128 736 1128 776 1087.5 c 128,-1,14
 816 1047 816 1047 836.5 990 c 128,-1,15
 857 933 857 933 857 863 c 1,16,-1
 722 863 l 1,17,18
 722 903 722 903 713 937.5 c 128,-1,19
 704 972 704 972 684 997.5 c 128,-1,20
 664 1023 664 1023 631 1037.5 c 128,-1,21
 598 1052 598 1052 549 1052 c 0,22,23
 470 1052 470 1052 421.5 1013 c 128,-1,24
 373 974 373 974 373 898 c 0,25,26
 373 873 373 873 380.5 841.5 c 128,-1,27
 388 810 388 810 400 775.5 c 128,-1,28
 412 741 412 741 427.5 705 c 128,-1,29
 443 669 443 669 459 636 c 1,30,-1
 708 636 l 1,31,-1
 708 549 l 1,32,-1
 494 549 l 1,33,34
 505 507 505 507 510 467.5 c 128,-1,35
 515 428 515 428 515 388 c 0,36,37
 515 343 515 343 509 298.5 c 128,-1,38
 503 254 503 254 492 215 c 1,39,40
 520 198 520 198 546.5 181.5 c 128,-1,41
 573 165 573 165 598.5 152 c 128,-1,42
 624 139 624 139 649.5 131.5 c 128,-1,43
 675 124 675 124 701 124 c 0,44,45
 770 124 770 124 803 166.5 c 128,-1,46
 836 209 836 209 841 290 c 1,47,-1
 934 290 l 1,48,49
 934 215 934 215 917 157.5 c 128,-1,50
 900 100 900 100 869 61 c 128,-1,51
 838 22 838 22 795.5 1.5 c 128,-1,52
 753 -19 753 -19 701 -19 c 0,53,54
 666 -19 666 -19 634 -10.5 c 128,-1,55
 602 -2 602 -2 571 13 c 128,-1,56
 540 28 540 28 509 49.5 c 128,-1,57
 478 71 478 71 444 98 c 1,58,59
 408 44 408 44 361.5 12.5 c 128,-1,60
 315 -19 315 -19 255 -19 c 0,61,62
 204 -19 204 -19 167.5 -4.5 c 128,-1,63
 131 10 131 10 107 33.5 c 128,-1,64
 83 57 83 57 71.5 87.5 c 128,-1,65
 60 118 60 118 60 150 c 0,66,67
 60 184 60 184 72.5 218 c 128,-1,68
 85 252 85 252 109 278.5 c 128,-1,69
 133 305 133 305 168 321.5 c 128,-1,70
 203 338 203 338 248 338 c 0,71,72
 288 338 288 338 323.5 326 c 128,-1,73
 359 314 359 314 396 291 c 1,74,75
 397 300 397 300 397 309 c 128,-1,76
 397 318 397 318 397 327 c 0,77,78
 397 387 397 387 386 438 c 128,-1,79
 375 489 375 489 352 549 c 1,80,-1
 128 549 l 1,81,-1
 128 636 l 1,0,-1
370 157 m 1,82,83
 328 205 328 205 296.5 226 c 128,-1,84
 265 247 265 247 234 247 c 0,85,86
 217 247 217 247 204 238.5 c 128,-1,87
 191 230 191 230 181.5 216.5 c 128,-1,88
 172 203 172 203 167 186 c 128,-1,89
 162 169 162 169 162 151 c 0,90,91
 162 118 162 118 182 91.5 c 128,-1,92
 202 65 202 65 247 65 c 0,93,94
 284 65 284 65 312.5 87 c 128,-1,95
 341 109 341 109 370 157 c 1,82,83
EndSplineSet
EndChar

StartChar: currency
Encoding: 164 164 120
Width: 929
GlyphClass: 2
Flags: W
LayerCount: 2
Fore
SplineSet
129 806 m 0,0,1
 129 925 129 925 202 1007 c 1,2,-1
 122 1088 l 1,3,-1
 191 1157 l 1,4,-1
 277 1071 l 1,5,6
 317 1096 317 1096 363.5 1110 c 128,-1,7
 410 1124 410 1124 464 1124 c 256,8,9
 518 1124 518 1124 565 1109.5 c 128,-1,10
 612 1095 612 1095 652 1069 c 1,11,-1
 740 1157 l 1,12,-1
 809 1088 l 1,13,-1
 726 1005 l 1,14,15
 798 919 798 919 798 806 c 0,16,17
 798 746 798 746 778.5 695.5 c 128,-1,18
 759 645 759 645 724 603 c 1,19,-1
 809 519 l 1,20,-1
 740 451 l 1,21,-1
 650 539 l 1,22,23
 570 486 570 486 464 486 c 0,24,25
 410 486 410 486 364 499.5 c 128,-1,26
 318 513 318 513 279 538 c 1,27,-1
 191 451 l 1,28,-1
 122 519 l 1,29,-1
 204 601 l 1,30,31
 169 643 169 643 149 694.5 c 128,-1,32
 129 746 129 746 129 806 c 0,0,1
464 1006 m 0,33,34
 415 1006 415 1006 378.5 988.5 c 128,-1,35
 342 971 342 971 317.5 942.5 c 128,-1,36
 293 914 293 914 281 877.5 c 128,-1,37
 269 841 269 841 269 804 c 0,38,39
 269 766 269 766 281.5 729 c 128,-1,40
 294 692 294 692 318.5 663.5 c 128,-1,41
 343 635 343 635 379.5 617.5 c 128,-1,42
 416 600 416 600 464 600 c 0,43,44
 513 600 513 600 549.5 617.5 c 128,-1,45
 586 635 586 635 610 663.5 c 128,-1,46
 634 692 634 692 646 728 c 128,-1,47
 658 764 658 764 658 802 c 256,48,49
 658 840 658 840 646 877 c 128,-1,50
 634 914 634 914 609.5 942.5 c 128,-1,51
 585 971 585 971 548.5 988.5 c 128,-1,52
 512 1006 512 1006 464 1006 c 0,33,34
EndSplineSet
EndChar

StartChar: yen
Encoding: 165 165 121
Width: 1261
GlyphClass: 2
Flags: W
LayerCount: 2
Fore
SplineSet
486 414 m 1,0,-1
 486 503 l 1,1,-1
 249 503 l 1,2,-1
 249 622 l 1,3,-1
 419 622 l 1,4,-1
 128 1026 l 1,5,-1
 -18 1026 l 1,6,-1
 -18 1153 l 1,7,-1
 454 1153 l 1,8,-1
 454 1026 l 1,9,-1
 304 1026 l 1,10,-1
 578 648 l 1,11,-1
 835 1026 l 1,12,-1
 685 1026 l 1,13,-1
 685 1153 l 1,14,-1
 1145 1153 l 1,15,-1
 1145 1026 l 1,16,-1
 989 1026 l 1,17,-1
 709 622 l 1,18,-1
 885 622 l 1,19,-1
 885 503 l 1,20,-1
 646 503 l 1,21,-1
 646 414 l 1,22,-1
 885 414 l 1,23,-1
 885 297 l 1,24,-1
 646 297 l 1,25,-1
 646 125 l 1,26,-1
 810 125 l 1,27,-1
 810 0 l 1,28,-1
 327 0 l 1,29,-1
 327 125 l 1,30,-1
 486 125 l 1,31,-1
 486 297 l 1,32,-1
 249 297 l 1,33,-1
 249 414 l 1,34,-1
 486 414 l 1,0,-1
EndSplineSet
EndChar

StartChar: brokenbar
Encoding: 166 166 122
Width: 404
GlyphClass: 2
Flags: W
LayerCount: 2
Fore
SplineSet
263 1153 m 1,0,-1
 263 734 l 1,1,-1
 141 734 l 1,2,-1
 141 1153 l 1,3,-1
 263 1153 l 1,0,-1
263 346 m 1,4,-1
 263 -102 l 1,5,-1
 141 -102 l 1,6,-1
 141 346 l 1,7,-1
 263 346 l 1,4,-1
EndSplineSet
EndChar

StartChar: section
Encoding: 167 167 123
Width: 877
GlyphClass: 2
Flags: W
LayerCount: 2
Fore
SplineSet
645 924 m 1,0,1
 626 990 626 990 578.5 1021.5 c 128,-1,2
 531 1053 531 1053 464 1053 c 0,3,4
 419 1053 419 1053 381.5 1042.5 c 128,-1,5
 344 1032 344 1032 317 1013.5 c 128,-1,6
 290 995 290 995 274.5 969.5 c 128,-1,7
 259 944 259 944 259 913 c 0,8,9
 259 869 259 869 282.5 837.5 c 128,-1,10
 306 806 306 806 345 782 c 128,-1,11
 384 758 384 758 433 738.5 c 128,-1,12
 482 719 482 719 534 698.5 c 128,-1,13
 586 678 586 678 635 654.5 c 128,-1,14
 684 631 684 631 723 599 c 128,-1,15
 762 567 762 567 785.5 523 c 128,-1,16
 809 479 809 479 809 419 c 0,17,18
 809 273 809 273 650 173 c 1,19,20
 713 136 713 136 747 79.5 c 128,-1,21
 781 23 781 23 781 -46 c 0,22,23
 781 -108 781 -108 758 -159.5 c 128,-1,24
 735 -211 735 -211 693 -248 c 128,-1,25
 651 -285 651 -285 593 -305.5 c 128,-1,26
 535 -326 535 -326 465 -326 c 0,27,28
 359 -326 359 -326 282.5 -281 c 128,-1,29
 206 -236 206 -236 160 -160 c 1,30,-1
 262 -77 l 1,31,32
 291 -137 291 -137 342 -170 c 128,-1,33
 393 -203 393 -203 468 -203 c 0,34,35
 508 -203 508 -203 539.5 -192 c 128,-1,36
 571 -181 571 -181 593.5 -161.5 c 128,-1,37
 616 -142 616 -142 628 -115.5 c 128,-1,38
 640 -89 640 -89 640 -58 c 0,39,40
 640 -16 640 -16 616.5 14 c 128,-1,41
 593 44 593 44 554 67.5 c 128,-1,42
 515 91 515 91 465.5 110 c 128,-1,43
 416 129 416 129 364 149 c 128,-1,44
 312 169 312 169 262.5 193 c 128,-1,45
 213 217 213 217 174 249.5 c 128,-1,46
 135 282 135 282 111.5 326 c 128,-1,47
 88 370 88 370 88 431 c 0,48,49
 88 502 88 502 126 560 c 128,-1,50
 164 618 164 618 248 674 c 1,51,52
 185 712 185 712 151.5 769.5 c 128,-1,53
 118 827 118 827 118 899 c 0,54,55
 118 956 118 956 143 1005.5 c 128,-1,56
 168 1055 168 1055 212 1091.5 c 128,-1,57
 256 1128 256 1128 317 1149.5 c 128,-1,58
 378 1171 378 1171 450 1171 c 0,59,60
 504 1171 504 1171 554.5 1159.5 c 128,-1,61
 605 1148 605 1148 647.5 1123 c 128,-1,62
 690 1098 690 1098 721.5 1060 c 128,-1,63
 753 1022 753 1022 770 969 c 1,64,-1
 645 924 l 1,0,1
560 220 m 1,65,66
 623 253 623 253 654 296 c 128,-1,67
 685 339 685 339 685 388 c 0,68,69
 685 439 685 439 653.5 470.5 c 128,-1,70
 622 502 622 502 572 526.5 c 128,-1,71
 522 551 522 551 458.5 573 c 128,-1,72
 395 595 395 595 331 626 c 1,73,74
 268 588 268 588 240.5 550 c 128,-1,75
 213 512 213 512 213 464 c 0,76,77
 213 413 213 413 242.5 381 c 128,-1,78
 272 349 272 349 321 324.5 c 128,-1,79
 370 300 370 300 432.5 276.5 c 128,-1,80
 495 253 495 253 560 220 c 1,65,66
EndSplineSet
EndChar

StartChar: dieresis
Encoding: 168 168 124
Width: 572
GlyphClass: 2
Flags: W
LayerCount: 2
Fore
SplineSet
523 1101 m 1,0,-1
 523 948 l 1,1,-1
 371 948 l 1,2,-1
 371 1101 l 1,3,-1
 523 1101 l 1,0,-1
212 1101 m 1,4,-1
 212 948 l 1,5,-1
 58 948 l 1,6,-1
 58 1101 l 1,7,-1
 212 1101 l 1,4,-1
EndSplineSet
EndChar

StartChar: copyright
Encoding: 169 169 125
Width: 1423
GlyphClass: 2
Flags: W
LayerCount: 2
Fore
SplineSet
658 1170 m 256,0,1
 808 1170 808 1170 920.5 1118.5 c 128,-1,2
 1033 1067 1033 1067 1108 983.5 c 128,-1,3
 1183 900 1183 900 1220.5 793 c 128,-1,4
 1258 686 1258 686 1258 575 c 256,5,6
 1258 464 1258 464 1220.5 357 c 128,-1,7
 1183 250 1183 250 1108 166.5 c 128,-1,8
 1033 83 1033 83 920.5 32 c 128,-1,9
 808 -19 808 -19 658 -19 c 256,10,11
 508 -19 508 -19 395.5 32 c 128,-1,12
 283 83 283 83 208 166.5 c 128,-1,13
 133 250 133 250 95.5 357 c 128,-1,14
 58 464 58 464 58 575 c 256,15,16
 58 686 58 686 95.5 793 c 128,-1,17
 133 900 133 900 208 983.5 c 128,-1,18
 283 1067 283 1067 395.5 1118.5 c 128,-1,19
 508 1170 508 1170 658 1170 c 256,0,1
658 1076 m 0,20,21
 536 1076 536 1076 445.5 1032.5 c 128,-1,22
 355 989 355 989 294.5 918.5 c 128,-1,23
 234 848 234 848 204 758 c 128,-1,24
 174 668 174 668 174 575 c 256,25,26
 174 482 174 482 204 391.5 c 128,-1,27
 234 301 234 301 294.5 230.5 c 128,-1,28
 355 160 355 160 445.5 116.5 c 128,-1,29
 536 73 536 73 658 73 c 0,30,31
 779 73 779 73 869.5 116.5 c 128,-1,32
 960 160 960 160 1020.5 230.5 c 128,-1,33
 1081 301 1081 301 1111 391.5 c 128,-1,34
 1141 482 1141 482 1141 575 c 256,35,36
 1141 668 1141 668 1111 758 c 128,-1,37
 1081 848 1081 848 1020.5 918.5 c 128,-1,38
 960 989 960 989 869.5 1032.5 c 128,-1,39
 779 1076 779 1076 658 1076 c 0,20,21
917 404 m 1,40,41
 879 344 879 344 811.5 310.5 c 128,-1,42
 744 277 744 277 653 277 c 0,43,44
 574 277 574 277 518 305 c 128,-1,45
 462 333 462 333 427 376.5 c 128,-1,46
 392 420 392 420 375.5 473.5 c 128,-1,47
 359 527 359 527 359 578 c 0,48,49
 359 645 359 645 381 701 c 128,-1,50
 403 757 403 757 442.5 797.5 c 128,-1,51
 482 838 482 838 536 860.5 c 128,-1,52
 590 883 590 883 653 883 c 0,53,54
 687 883 687 883 715 875 c 128,-1,55
 743 867 743 867 764 855.5 c 128,-1,56
 785 844 785 844 798.5 830.5 c 128,-1,57
 812 817 812 817 817 806 c 1,58,-1
 815 872 l 1,59,-1
 911 872 l 1,60,-1
 911 664 l 1,61,-1
 817 664 l 1,62,63
 811 690 811 690 799.5 713.5 c 128,-1,64
 788 737 788 737 769 754.5 c 128,-1,65
 750 772 750 772 722.5 782 c 128,-1,66
 695 792 695 792 658 792 c 0,67,68
 567 792 567 792 520.5 736 c 128,-1,69
 474 680 474 680 474 580 c 0,70,71
 474 532 474 532 486 493 c 128,-1,72
 498 454 498 454 521 426.5 c 128,-1,73
 544 399 544 399 578 383.5 c 128,-1,74
 612 368 612 368 656 368 c 0,75,76
 719 368 719 368 770 393 c 128,-1,77
 821 418 821 418 853 469 c 1,78,-1
 917 404 l 1,40,41
EndSplineSet
EndChar

StartChar: ordfeminine
Encoding: 170 170 126
Width: 696
GlyphClass: 2
Flags: W
LayerCount: 2
Fore
SplineSet
72 1087 m 1,0,1
 156 1171 156 1171 310 1171 c 0,2,3
 381 1171 381 1171 428 1154 c 128,-1,4
 475 1137 475 1137 503 1109.5 c 128,-1,5
 531 1082 531 1082 542.5 1046 c 128,-1,6
 554 1010 554 1010 554 971 c 2,7,-1
 554 640 l 1,8,-1
 662 640 l 1,9,-1
 662 555 l 1,10,-1
 454 555 l 1,11,-1
 453 617 l 1,12,13
 423 596 423 596 396.5 581.5 c 128,-1,14
 370 567 370 567 345 558 c 128,-1,15
 320 549 320 549 294.5 545 c 128,-1,16
 269 541 269 541 241 541 c 0,17,18
 193 541 193 541 155 555.5 c 128,-1,19
 117 570 117 570 90.5 594.5 c 128,-1,20
 64 619 64 619 50 650.5 c 128,-1,21
 36 682 36 682 36 717 c 0,22,23
 36 774 36 774 56.5 810.5 c 128,-1,24
 77 847 77 847 112.5 869 c 128,-1,25
 148 891 148 891 195.5 899.5 c 128,-1,26
 243 908 243 908 297 908 c 0,27,28
 367 908 367 908 442 893 c 1,29,-1
 442 966 l 2,30,31
 442 997 442 997 431 1019.5 c 128,-1,32
 420 1042 420 1042 401 1055.5 c 128,-1,33
 382 1069 382 1069 356.5 1075.5 c 128,-1,34
 331 1082 331 1082 302 1082 c 0,35,36
 250 1082 250 1082 208.5 1065 c 128,-1,37
 167 1048 167 1048 141 1014 c 1,38,-1
 72 1087 l 1,0,1
442 820 m 1,39,40
 418 820 418 820 382.5 826 c 128,-1,41
 347 832 347 832 305 832 c 0,42,43
 275 832 275 832 246 828 c 128,-1,44
 217 824 217 824 194 811.5 c 128,-1,45
 171 799 171 799 156.5 776.5 c 128,-1,46
 142 754 142 754 142 717 c 0,47,48
 142 678 142 678 171 650 c 128,-1,49
 200 622 200 622 257 622 c 0,50,51
 308 622 308 622 357.5 639.5 c 128,-1,52
 407 657 407 657 442 689 c 1,53,-1
 442 820 l 1,39,40
EndSplineSet
EndChar

StartChar: guillemotleft
Encoding: 171 171 127
Width: 904
GlyphClass: 2
Flags: W
LayerCount: 2
Fore
SplineSet
838 0 m 1,0,-1
 696 0 l 1,1,-1
 431 418 l 1,2,-1
 696 837 l 1,3,-1
 838 837 l 1,4,-1
 581 418 l 1,5,-1
 838 0 l 1,0,-1
468 0 m 1,6,-1
 325 0 l 1,7,-1
 62 418 l 1,8,-1
 325 837 l 1,9,-1
 468 837 l 1,10,-1
 210 418 l 1,11,-1
 468 0 l 1,6,-1
EndSplineSet
EndChar

StartChar: logicalnot
Encoding: 172 172 128
Width: 1113
GlyphClass: 2
Flags: W
LayerCount: 2
Fore
SplineSet
993 842 m 1,0,-1
 993 304 l 1,1,-1
 876 304 l 1,2,-1
 876 724 l 1,3,-1
 56 724 l 1,4,-1
 56 842 l 1,5,-1
 993 842 l 1,0,-1
EndSplineSet
EndChar

StartChar: registered
Encoding: 174 174 130
Width: 1338
GlyphClass: 2
Flags: W
LayerCount: 2
Fore
SplineSet
668 1170 m 256,0,1
 818 1170 818 1170 930.5 1118.5 c 128,-1,2
 1043 1067 1043 1067 1118 983.5 c 128,-1,3
 1193 900 1193 900 1230.5 793 c 128,-1,4
 1268 686 1268 686 1268 575 c 256,5,6
 1268 464 1268 464 1230.5 357 c 128,-1,7
 1193 250 1193 250 1118 166.5 c 128,-1,8
 1043 83 1043 83 930.5 32 c 128,-1,9
 818 -19 818 -19 668 -19 c 256,10,11
 518 -19 518 -19 405.5 32 c 128,-1,12
 293 83 293 83 218 166.5 c 128,-1,13
 143 250 143 250 105.5 357 c 128,-1,14
 68 464 68 464 68 575 c 256,15,16
 68 686 68 686 105.5 793 c 128,-1,17
 143 900 143 900 218 983.5 c 128,-1,18
 293 1067 293 1067 405.5 1118.5 c 128,-1,19
 518 1170 518 1170 668 1170 c 256,0,1
668 1076 m 0,20,21
 546 1076 546 1076 455.5 1032.5 c 128,-1,22
 365 989 365 989 304.5 918.5 c 128,-1,23
 244 848 244 848 214 758 c 128,-1,24
 184 668 184 668 184 575 c 256,25,26
 184 482 184 482 214 391.5 c 128,-1,27
 244 301 244 301 304.5 230.5 c 128,-1,28
 365 160 365 160 455.5 116.5 c 128,-1,29
 546 73 546 73 668 73 c 0,30,31
 789 73 789 73 879.5 116.5 c 128,-1,32
 970 160 970 160 1030.5 230.5 c 128,-1,33
 1091 301 1091 301 1121 391.5 c 128,-1,34
 1151 482 1151 482 1151 575 c 256,35,36
 1151 668 1151 668 1121 758 c 128,-1,37
 1091 848 1091 848 1030.5 918.5 c 128,-1,38
 970 989 970 989 879.5 1032.5 c 128,-1,39
 789 1076 789 1076 668 1076 c 0,20,21
393 337 m 1,40,-1
 481 337 l 1,41,-1
 481 826 l 1,42,-1
 393 826 l 1,43,-1
 393 895 l 1,44,-1
 692 895 l 2,45,46
 799 895 799 895 848.5 850.5 c 128,-1,47
 898 806 898 806 898 733 c 0,48,49
 898 670 898 670 863 628 c 128,-1,50
 828 586 828 586 758 572 c 1,51,-1
 885 337 l 1,52,-1
 964 337 l 1,53,-1
 964 269 l 1,54,-1
 827 269 l 1,55,-1
 673 561 l 1,56,-1
 568 561 l 1,57,-1
 568 337 l 1,58,-1
 653 337 l 1,59,-1
 653 269 l 1,60,-1
 393 269 l 1,61,-1
 393 337 l 1,40,-1
689 631 m 2,62,63
 724 631 724 631 747.5 640 c 128,-1,64
 771 649 771 649 784.5 663.5 c 128,-1,65
 798 678 798 678 803.5 696 c 128,-1,66
 809 714 809 714 809 733 c 0,67,68
 809 781 809 781 775.5 803.5 c 128,-1,69
 742 826 742 826 685 826 c 2,70,-1
 568 826 l 1,71,-1
 568 631 l 1,72,-1
 689 631 l 2,62,63
EndSplineSet
EndChar

StartChar: macron
Encoding: 175 175 131
Width: 593
GlyphClass: 2
Flags: W
LayerCount: 2
Fore
SplineSet
131 1171 m 1,0,-1
 457 1171 l 1,1,-1
 457 1086 l 1,2,-1
 131 1086 l 1,3,-1
 131 1171 l 1,0,-1
EndSplineSet
EndChar

StartChar: degree
Encoding: 176 176 132
Width: 653
GlyphClass: 2
Flags: W
LayerCount: 2
Fore
SplineSet
327 1130 m 0,0,1
 289 1130 289 1130 257.5 1116.5 c 128,-1,2
 226 1103 226 1103 203.5 1079.5 c 128,-1,3
 181 1056 181 1056 168 1025 c 128,-1,4
 155 994 155 994 155 958 c 0,5,6
 155 923 155 923 168 891.5 c 128,-1,7
 181 860 181 860 203.5 837 c 128,-1,8
 226 814 226 814 257.5 800.5 c 128,-1,9
 289 787 289 787 327 787 c 0,10,11
 362 787 362 787 393 800 c 128,-1,12
 424 813 424 813 447.5 835.5 c 128,-1,13
 471 858 471 858 484.5 889.5 c 128,-1,14
 498 921 498 921 498 958 c 0,15,16
 498 990 498 990 486.5 1021 c 128,-1,17
 475 1052 475 1052 453 1076 c 128,-1,18
 431 1100 431 1100 399 1115 c 128,-1,19
 367 1130 367 1130 327 1130 c 0,0,1
327 1216 m 256,20,21
 381 1216 381 1216 428 1196 c 128,-1,22
 475 1176 475 1176 510 1140.5 c 128,-1,23
 545 1105 545 1105 565 1058 c 128,-1,24
 585 1011 585 1011 585 957 c 256,25,26
 585 903 585 903 565 856 c 128,-1,27
 545 809 545 809 510 774 c 128,-1,28
 475 739 475 739 428 718.5 c 128,-1,29
 381 698 381 698 327 698 c 256,30,31
 273 698 273 698 226 718.5 c 128,-1,32
 179 739 179 739 144 774 c 128,-1,33
 109 809 109 809 88.5 856 c 128,-1,34
 68 903 68 903 68 957 c 256,35,36
 68 1011 68 1011 88.5 1058 c 128,-1,37
 109 1105 109 1105 144 1140.5 c 128,-1,38
 179 1176 179 1176 226 1196 c 128,-1,39
 273 1216 273 1216 327 1216 c 256,20,21
EndSplineSet
EndChar

StartChar: plusminus
Encoding: 177 177 133
Width: 1119
GlyphClass: 2
Flags: W
LayerCount: 2
Fore
SplineSet
1028 80 m 1,0,-1
 1028 -39 l 1,1,-1
 91 -39 l 1,2,-1
 91 80 l 1,3,-1
 1028 80 l 1,0,-1
1028 775 m 1,4,-1
 1028 656 l 1,5,-1
 617 656 l 1,6,-1
 617 247 l 1,7,-1
 502 247 l 1,8,-1
 502 656 l 1,9,-1
 91 656 l 1,10,-1
 91 775 l 1,11,-1
 502 775 l 1,12,-1
 502 1183 l 1,13,-1
 617 1183 l 1,14,-1
 617 775 l 1,15,-1
 1028 775 l 1,4,-1
EndSplineSet
EndChar

StartChar: twosuperior
Encoding: 178 178 134
Width: 747
GlyphClass: 2
Flags: W
LayerCount: 2
Fore
SplineSet
559 580 m 1,0,-1
 653 580 l 1,1,-1
 653 299 l 1,2,-1
 87 299 l 1,3,4
 86 309 86 309 85.5 318.5 c 128,-1,5
 85 328 85 328 85 338 c 0,6,7
 85 420 85 420 118 482 c 128,-1,8
 151 544 151 544 201 593 c 128,-1,9
 251 642 251 642 309 682 c 128,-1,10
 367 722 367 722 417 761 c 128,-1,11
 467 800 467 800 500 841.5 c 128,-1,12
 533 883 533 883 533 935 c 0,13,14
 533 998 533 998 494.5 1033.5 c 128,-1,15
 456 1069 456 1069 375 1069 c 0,16,17
 331 1069 331 1069 300.5 1057 c 128,-1,18
 270 1045 270 1045 251 1018.5 c 128,-1,19
 232 992 232 992 224 951 c 128,-1,20
 216 910 216 910 216 853 c 1,21,-1
 109 853 l 1,22,23
 109 1016 109 1016 175.5 1093 c 128,-1,24
 242 1170 242 1170 374 1170 c 0,25,26
 455 1170 455 1170 509 1148.5 c 128,-1,27
 563 1127 563 1127 596 1093 c 128,-1,28
 629 1059 629 1059 643 1018 c 128,-1,29
 657 977 657 977 657 938 c 0,30,31
 657 872 657 872 627 821.5 c 128,-1,32
 597 771 597 771 551 729 c 128,-1,33
 505 687 505 687 450 651 c 128,-1,34
 395 615 395 615 345 577 c 128,-1,35
 295 539 295 539 257 496.5 c 128,-1,36
 219 454 219 454 208 400 c 1,37,-1
 559 400 l 1,38,-1
 559 580 l 1,0,-1
EndSplineSet
EndChar

StartChar: threesuperior
Encoding: 179 179 135
Width: 783
GlyphClass: 2
Flags: W
LayerCount: 2
Fore
SplineSet
201 557 m 1,0,1
 209 475 209 475 256 429 c 128,-1,2
 303 383 303 383 384 383 c 0,3,4
 433 383 433 383 470 394.5 c 128,-1,5
 507 406 507 406 532 426 c 128,-1,6
 557 446 557 446 569.5 473.5 c 128,-1,7
 582 501 582 501 582 533 c 0,8,9
 582 581 582 581 560.5 612 c 128,-1,10
 539 643 539 643 502 661 c 128,-1,11
 465 679 465 679 415 686 c 128,-1,12
 365 693 365 693 308 693 c 1,13,-1
 308 792 l 1,14,-1
 373 792 l 2,15,16
 464 792 464 792 508.5 824.5 c 128,-1,17
 553 857 553 857 553 929 c 0,18,19
 553 959 553 959 542 984.5 c 128,-1,20
 531 1010 531 1010 509.5 1028.5 c 128,-1,21
 488 1047 488 1047 454.5 1058 c 128,-1,22
 421 1069 421 1069 376 1069 c 0,23,24
 301 1069 301 1069 264 1028 c 128,-1,25
 227 987 227 987 223 921 c 1,26,-1
 112 941 l 1,27,28
 114 993 114 993 133.5 1035.5 c 128,-1,29
 153 1078 153 1078 187 1108 c 128,-1,30
 221 1138 221 1138 268 1154.5 c 128,-1,31
 315 1171 315 1171 373 1171 c 0,32,33
 441 1171 441 1171 495.5 1155.5 c 128,-1,34
 550 1140 550 1140 588.5 1110.5 c 128,-1,35
 627 1081 627 1081 647.5 1038.5 c 128,-1,36
 668 996 668 996 668 941 c 0,37,38
 668 909 668 909 661 879 c 128,-1,39
 654 849 654 849 637 823.5 c 128,-1,40
 620 798 620 798 592 778 c 128,-1,41
 564 758 564 758 522 746 c 1,42,43
 610 730 610 730 656 673.5 c 128,-1,44
 702 617 702 617 702 539 c 0,45,46
 702 482 702 482 680 435 c 128,-1,47
 658 388 658 388 616.5 354 c 128,-1,48
 575 320 575 320 514.5 301.5 c 128,-1,49
 454 283 454 283 376 283 c 0,50,51
 314 283 314 283 262 299.5 c 128,-1,52
 210 316 210 316 172 350 c 128,-1,53
 134 384 134 384 112.5 434.5 c 128,-1,54
 91 485 91 485 91 554 c 1,55,-1
 201 557 l 1,0,1
EndSplineSet
EndChar

StartChar: acute
Encoding: 180 180 136
Width: 562
GlyphClass: 2
Flags: W
LayerCount: 2
Fore
SplineSet
165 914 m 1,0,-1
 264 1171 l 1,1,-1
 471 1171 l 1,2,-1
 284 914 l 1,3,-1
 165 914 l 1,0,-1
EndSplineSet
EndChar

StartChar: mu
Encoding: 181 181 137
AltUni2: 0003bc.ffffffff.0
Width: 925
GlyphClass: 2
Flags: W
LayerCount: 2
Fore
SplineSet
678 0 m 1,0,-1
 673 100 l 1,1,2
 607 40 607 40 541.5 11 c 128,-1,3
 476 -18 476 -18 401 -18 c 0,4,5
 328 -18 328 -18 281 4 c 1,6,-1
 281 -368 l 1,7,-1
 152 -368 l 1,8,-1
 152 689 l 1,9,-1
 32 689 l 1,10,-1
 32 805 l 1,11,-1
 304 805 l 1,12,-1
 304 268 l 2,13,14
 304 190 304 190 332 148.5 c 128,-1,15
 360 107 360 107 429 107 c 0,16,17
 499 107 499 107 562 147 c 128,-1,18
 625 187 625 187 673 250 c 1,19,-1
 673 689 l 1,20,-1
 528 689 l 1,21,-1
 528 805 l 1,22,-1
 824 805 l 1,23,-1
 824 113 l 1,24,-1
 970 113 l 1,25,-1
 970 0 l 1,26,-1
 678 0 l 1,0,-1
EndSplineSet
EndChar

StartChar: paragraph
Encoding: 182 182 138
Width: 1096
GlyphClass: 2
Flags: W
LayerCount: 2
Fore
SplineSet
1020 1056 m 1,0,-1
 882 1056 l 1,1,-1
 882 -373 l 1,2,-1
 747 -373 l 1,3,-1
 747 1056 l 1,4,-1
 546 1056 l 1,5,-1
 546 -373 l 1,6,-1
 411 -373 l 1,7,-1
 411 478 l 1,8,9
 325 481 325 481 258 509.5 c 128,-1,10
 191 538 191 538 144.5 585.5 c 128,-1,11
 98 633 98 633 74 697 c 128,-1,12
 50 761 50 761 50 836 c 0,13,14
 50 910 50 910 75 975.5 c 128,-1,15
 100 1041 100 1041 150 1090 c 128,-1,16
 200 1139 200 1139 275 1167.5 c 128,-1,17
 350 1196 350 1196 451 1196 c 2,18,-1
 1020 1196 l 1,19,-1
 1020 1056 l 1,0,-1
EndSplineSet
EndChar

StartChar: periodcentered
Encoding: 183 183 139
Width: 414
GlyphClass: 2
Flags: W
LayerCount: 2
Fore
SplineSet
86 657 m 1,0,-1
 313 657 l 1,1,-1
 313 446 l 1,2,-1
 86 446 l 1,3,-1
 86 657 l 1,0,-1
EndSplineSet
EndChar

StartChar: cedilla
Encoding: 184 184 140
Width: 587
GlyphClass: 2
Flags: W
LayerCount: 2
Fore
SplineSet
128 -263 m 1,0,1
 151 -267 151 -267 172.5 -269 c 128,-1,2
 194 -271 194 -271 214 -271 c 0,3,4
 256 -271 256 -271 282.5 -259 c 128,-1,5
 309 -247 309 -247 309 -218 c 0,6,7
 309 -193 309 -193 282.5 -178.5 c 128,-1,8
 256 -164 256 -164 211 -160 c 1,9,-1
 269 5 l 1,10,-1
 341 5 l 1,11,-1
 314 -119 l 1,12,13
 374 -126 374 -126 408 -151 c 128,-1,14
 442 -176 442 -176 442 -218 c 0,15,16
 442 -244 442 -244 431 -270 c 128,-1,17
 420 -296 420 -296 395 -316.5 c 128,-1,18
 370 -337 370 -337 329 -350 c 128,-1,19
 288 -363 288 -363 228 -363 c 0,20,21
 205 -363 205 -363 180.5 -361.5 c 128,-1,22
 156 -360 156 -360 128 -355 c 1,23,-1
 128 -263 l 1,0,1
EndSplineSet
EndChar

StartChar: onesuperior
Encoding: 185 185 141
Width: 476
GlyphClass: 2
Flags: W
LayerCount: 2
Fore
SplineSet
63 392 m 1,0,-1
 186 392 l 1,1,-1
 186 1059 l 1,2,-1
 57 1059 l 1,3,-1
 57 1153 l 1,4,-1
 297 1153 l 1,5,-1
 297 392 l 1,6,-1
 411 392 l 1,7,-1
 411 299 l 1,8,-1
 63 299 l 1,9,-1
 63 392 l 1,0,-1
EndSplineSet
EndChar

StartChar: ordmasculine
Encoding: 186 186 142
Width: 704
GlyphClass: 2
Flags: W
LayerCount: 2
Fore
SplineSet
180 951 m 256,0,1
 180 915 180 915 193 884 c 128,-1,2
 206 853 206 853 229.5 830.5 c 128,-1,3
 253 808 253 808 284.5 795 c 128,-1,4
 316 782 316 782 353 782 c 0,5,6
 389 782 389 782 420.5 795 c 128,-1,7
 452 808 452 808 475 830.5 c 128,-1,8
 498 853 498 853 511 884 c 128,-1,9
 524 915 524 915 524 951 c 256,10,11
 524 987 524 987 511 1017.5 c 128,-1,12
 498 1048 498 1048 475 1070.5 c 128,-1,13
 452 1093 452 1093 420.5 1105.5 c 128,-1,14
 389 1118 389 1118 353 1118 c 0,15,16
 316 1118 316 1118 284.5 1105.5 c 128,-1,17
 253 1093 253 1093 229.5 1070.5 c 128,-1,18
 206 1048 206 1048 193 1017.5 c 128,-1,19
 180 987 180 987 180 951 c 256,0,1
68 951 m 256,20,21
 68 1008 68 1008 89.5 1056.5 c 128,-1,22
 111 1105 111 1105 149.5 1140 c 128,-1,23
 188 1175 188 1175 240 1195 c 128,-1,24
 292 1215 292 1215 353 1215 c 256,25,26
 414 1215 414 1215 466 1195 c 128,-1,27
 518 1175 518 1175 556 1140 c 128,-1,28
 594 1105 594 1105 615.5 1056.5 c 128,-1,29
 637 1008 637 1008 637 951 c 256,30,31
 637 894 637 894 615.5 846 c 128,-1,32
 594 798 594 798 556 762.5 c 128,-1,33
 518 727 518 727 466 707 c 128,-1,34
 414 687 414 687 353 687 c 256,35,36
 292 687 292 687 240 707 c 128,-1,37
 188 727 188 727 149.5 762.5 c 128,-1,38
 111 798 111 798 89.5 846 c 128,-1,39
 68 894 68 894 68 951 c 256,20,21
EndSplineSet
EndChar

StartChar: guillemotright
Encoding: 187 187 143
Width: 905
GlyphClass: 2
Flags: W
LayerCount: 2
Fore
SplineSet
437 837 m 1,0,-1
 580 837 l 1,1,-1
 843 418 l 1,2,-1
 580 0 l 1,3,-1
 437 0 l 1,4,-1
 694 418 l 1,5,-1
 437 837 l 1,0,-1
66 837 m 1,6,-1
 209 837 l 1,7,-1
 473 418 l 1,8,-1
 209 0 l 1,9,-1
 66 0 l 1,10,-1
 323 418 l 1,11,-1
 66 837 l 1,6,-1
EndSplineSet
EndChar

StartChar: onequarter
Encoding: 188 188 144
Width: 1665
GlyphClass: 2
Flags: W
LayerCount: 2
Fore
SplineSet
915 1170 m 1,0,-1
 1004 1170 l 1,1,-1
 590 0 l 1,2,-1
 500 0 l 1,3,-1
 915 1170 l 1,0,-1
68 392 m 1,4,-1
 191 392 l 1,5,-1
 191 1059 l 1,6,-1
 62 1059 l 1,7,-1
 62 1153 l 1,8,-1
 302 1153 l 1,9,-1
 302 392 l 1,10,-1
 416 392 l 1,11,-1
 416 299 l 1,12,-1
 68 299 l 1,13,-1
 68 392 l 1,4,-1
1149 101 m 1,14,-1
 1281 101 l 1,15,-1
 1281 254 l 1,16,-1
 910 254 l 1,17,-1
 910 352 l 1,18,-1
 1284 931 l 1,19,-1
 1396 931 l 1,20,-1
 1396 352 l 1,21,-1
 1549 352 l 1,22,-1
 1549 254 l 1,23,-1
 1396 254 l 1,24,-1
 1396 101 l 1,25,-1
 1516 101 l 1,26,-1
 1516 0 l 1,27,-1
 1149 0 l 1,28,-1
 1149 101 l 1,14,-1
1281 765 m 1,29,-1
 1027 352 l 1,30,-1
 1281 352 l 1,31,-1
 1281 765 l 1,29,-1
EndSplineSet
EndChar

StartChar: onehalf
Encoding: 189 189 145
Width: 1690
GlyphClass: 2
Flags: W
LayerCount: 2
Fore
SplineSet
915 1170 m 1,0,-1
 1004 1170 l 1,1,-1
 590 0 l 1,2,-1
 500 0 l 1,3,-1
 915 1170 l 1,0,-1
63 392 m 1,4,-1
 186 392 l 1,5,-1
 186 1059 l 1,6,-1
 57 1059 l 1,7,-1
 57 1153 l 1,8,-1
 297 1153 l 1,9,-1
 297 392 l 1,10,-1
 411 392 l 1,11,-1
 411 299 l 1,12,-1
 63 299 l 1,13,-1
 63 392 l 1,4,-1
1492 265 m 1,14,-1
 1586 265 l 1,15,-1
 1586 -16 l 1,16,-1
 1020 -16 l 1,17,18
 1019 -6 1019 -6 1018.5 3.5 c 128,-1,19
 1018 13 1018 13 1018 23 c 0,20,21
 1018 105 1018 105 1051 167 c 128,-1,22
 1084 229 1084 229 1134 278 c 128,-1,23
 1184 327 1184 327 1242 367 c 128,-1,24
 1300 407 1300 407 1350 446 c 128,-1,25
 1400 485 1400 485 1433 526.5 c 128,-1,26
 1466 568 1466 568 1466 620 c 0,27,28
 1466 683 1466 683 1427.5 718.5 c 128,-1,29
 1389 754 1389 754 1308 754 c 0,30,31
 1264 754 1264 754 1233.5 742 c 128,-1,32
 1203 730 1203 730 1184 703.5 c 128,-1,33
 1165 677 1165 677 1157 636 c 128,-1,34
 1149 595 1149 595 1149 538 c 1,35,-1
 1042 538 l 1,36,37
 1042 701 1042 701 1108.5 778 c 128,-1,38
 1175 855 1175 855 1307 855 c 0,39,40
 1388 855 1388 855 1442 833.5 c 128,-1,41
 1496 812 1496 812 1529 778 c 128,-1,42
 1562 744 1562 744 1576 703 c 128,-1,43
 1590 662 1590 662 1590 623 c 0,44,45
 1590 557 1590 557 1560 506.5 c 128,-1,46
 1530 456 1530 456 1484 414 c 128,-1,47
 1438 372 1438 372 1383 336 c 128,-1,48
 1328 300 1328 300 1278 262 c 128,-1,49
 1228 224 1228 224 1190 181.5 c 128,-1,50
 1152 139 1152 139 1141 85 c 1,51,-1
 1492 85 l 1,52,-1
 1492 265 l 1,14,-1
EndSplineSet
EndChar

StartChar: threequarters
Encoding: 190 190 146
Width: 1936
GlyphClass: 2
Flags: W
LayerCount: 2
Fore
SplineSet
1146 1170 m 1,0,-1
 1235 1170 l 1,1,-1
 821 0 l 1,2,-1
 731 0 l 1,3,-1
 1146 1170 l 1,0,-1
206 557 m 1,4,5
 214 475 214 475 261 429 c 128,-1,6
 308 383 308 383 389 383 c 0,7,8
 438 383 438 383 475 394.5 c 128,-1,9
 512 406 512 406 537 426 c 128,-1,10
 562 446 562 446 574.5 473.5 c 128,-1,11
 587 501 587 501 587 533 c 0,12,13
 587 581 587 581 565.5 612 c 128,-1,14
 544 643 544 643 507 661 c 128,-1,15
 470 679 470 679 420 686 c 128,-1,16
 370 693 370 693 313 693 c 1,17,-1
 313 792 l 1,18,-1
 378 792 l 2,19,20
 469 792 469 792 513.5 824.5 c 128,-1,21
 558 857 558 857 558 929 c 0,22,23
 558 959 558 959 547 984.5 c 128,-1,24
 536 1010 536 1010 514.5 1028.5 c 128,-1,25
 493 1047 493 1047 459.5 1058 c 128,-1,26
 426 1069 426 1069 381 1069 c 0,27,28
 306 1069 306 1069 269 1028 c 128,-1,29
 232 987 232 987 228 921 c 1,30,-1
 117 941 l 1,31,32
 119 993 119 993 138.5 1035.5 c 128,-1,33
 158 1078 158 1078 192 1108 c 128,-1,34
 226 1138 226 1138 273 1154.5 c 128,-1,35
 320 1171 320 1171 378 1171 c 0,36,37
 446 1171 446 1171 500.5 1155.5 c 128,-1,38
 555 1140 555 1140 593.5 1110.5 c 128,-1,39
 632 1081 632 1081 652.5 1038.5 c 128,-1,40
 673 996 673 996 673 941 c 0,41,42
 673 909 673 909 666 879 c 128,-1,43
 659 849 659 849 642 823.5 c 128,-1,44
 625 798 625 798 597 778 c 128,-1,45
 569 758 569 758 527 746 c 1,46,47
 615 730 615 730 661 673.5 c 128,-1,48
 707 617 707 617 707 539 c 0,49,50
 707 482 707 482 685 435 c 128,-1,51
 663 388 663 388 621.5 354 c 128,-1,52
 580 320 580 320 519.5 301.5 c 128,-1,53
 459 283 459 283 381 283 c 0,54,55
 319 283 319 283 267 299.5 c 128,-1,56
 215 316 215 316 177 350 c 128,-1,57
 139 384 139 384 117.5 434.5 c 128,-1,58
 96 485 96 485 96 554 c 1,59,-1
 206 557 l 1,4,5
1404 101 m 1,60,-1
 1536 101 l 1,61,-1
 1536 254 l 1,62,-1
 1165 254 l 1,63,-1
 1165 352 l 1,64,-1
 1539 931 l 1,65,-1
 1651 931 l 1,66,-1
 1651 352 l 1,67,-1
 1804 352 l 1,68,-1
 1804 254 l 1,69,-1
 1651 254 l 1,70,-1
 1651 101 l 1,71,-1
 1771 101 l 1,72,-1
 1771 0 l 1,73,-1
 1404 0 l 1,74,-1
 1404 101 l 1,60,-1
1536 765 m 1,75,-1
 1282 352 l 1,76,-1
 1536 352 l 1,77,-1
 1536 765 l 1,75,-1
EndSplineSet
EndChar

StartChar: AE
Encoding: 198 198 154
Width: 1733
GlyphClass: 2
Flags: W
LayerCount: 2
Fore
SplineSet
1563 832 m 1,0,-1
 1431 832 l 1,1,-1
 1386 1026 l 1,2,-1
 870 1026 l 1,3,-1
 958 655 l 1,4,-1
 1320 655 l 1,5,-1
 1296 769 l 1,6,-1
 1393 769 l 1,7,-1
 1478 410 l 1,8,-1
 1380 410 l 1,9,-1
 1341 548 l 1,10,-1
 982 548 l 1,11,-1
 1086 125 l 1,12,-1
 1577 125 l 1,13,-1
 1528 328 l 1,14,-1
 1657 328 l 1,15,-1
 1735 0 l 1,16,-1
 744 0 l 1,17,-1
 756 125 l 1,18,-1
 925 125 l 1,19,-1
 854 424 l 1,20,-1
 393 424 l 1,21,-1
 291 125 l 1,22,-1
 441 125 l 1,23,-1
 430 0 l 1,24,-1
 -23 0 l 1,25,-1
 -12 125 l 1,26,-1
 125 125 l 1,27,-1
 496 1035 l 1,28,-1
 394 1035 l 1,29,-1
 410 1153 l 1,30,-1
 1487 1153 l 1,31,-1
 1563 832 l 1,0,-1
825 545 m 1,32,-1
 710 1026 l 1,33,-1
 634 1026 l 1,34,-1
 442 545 l 1,35,-1
 825 545 l 1,32,-1
EndSplineSet
EndChar

StartChar: Eth
Encoding: 208 208 164
Width: 1273
GlyphClass: 2
Flags: W
LayerCount: 2
Fore
SplineSet
59 125 m 1,0,-1
 218 125 l 1,1,-1
 218 506 l 1,2,-1
 61 506 l 1,3,-1
 61 650 l 1,4,-1
 218 650 l 1,5,-1
 218 1026 l 1,6,-1
 59 1026 l 1,7,-1
 59 1153 l 1,8,-1
 613 1153 l 2,9,10
 727 1153 727 1153 815 1130 c 128,-1,11
 903 1107 903 1107 968 1066.5 c 128,-1,12
 1033 1026 1033 1026 1077.5 971.5 c 128,-1,13
 1122 917 1122 917 1149 854 c 128,-1,14
 1176 791 1176 791 1187.5 722.5 c 128,-1,15
 1199 654 1199 654 1199 587 c 0,16,17
 1199 454 1199 454 1165.5 346 c 128,-1,18
 1132 238 1132 238 1060 161 c 128,-1,19
 988 84 988 84 874 42 c 128,-1,20
 760 0 760 0 599 0 c 2,21,-1
 59 0 l 1,22,-1
 59 125 l 1,0,-1
380 650 m 1,23,-1
 578 650 l 1,24,-1
 578 506 l 1,25,-1
 380 506 l 1,26,-1
 380 125 l 1,27,-1
 605 125 l 2,28,29
 731 125 731 125 814 161.5 c 128,-1,30
 897 198 897 198 945.5 260.5 c 128,-1,31
 994 323 994 323 1014 405.5 c 128,-1,32
 1034 488 1034 488 1034 581 c 0,33,34
 1034 676 1034 676 1011.5 757.5 c 128,-1,35
 989 839 989 839 938.5 898.5 c 128,-1,36
 888 958 888 958 807 992 c 128,-1,37
 726 1026 726 1026 609 1026 c 2,38,-1
 380 1026 l 1,39,-1
 380 650 l 1,23,-1
EndSplineSet
EndChar

StartChar: multiply
Encoding: 215 215 171
Width: 929
GlyphClass: 2
Flags: W
LayerCount: 2
Fore
SplineSet
390 434 m 1,0,-1
 180 644 l 1,1,-1
 263 727 l 1,2,-1
 473 517 l 1,3,-1
 684 727 l 1,4,-1
 767 644 l 1,5,-1
 556 434 l 1,6,-1
 767 225 l 1,7,-1
 683 143 l 1,8,-1
 473 352 l 1,9,-1
 264 143 l 1,10,-1
 180 225 l 1,11,-1
 390 434 l 1,0,-1
EndSplineSet
EndChar

StartChar: Oslash
Encoding: 216 216 172
Width: 1320
GlyphClass: 2
Flags: W
LayerCount: 2
Fore
SplineSet
65 575 m 0,0,1
 65 700 65 700 106 809 c 128,-1,2
 147 918 147 918 223.5 998.5 c 128,-1,3
 300 1079 300 1079 410.5 1125 c 128,-1,4
 521 1171 521 1171 659 1171 c 0,5,6
 784 1171 784 1171 893 1130 c 1,7,-1
 947 1235 l 1,8,-1
 1041 1192 l 1,9,-1
 987 1084 l 1,10,11
 1050 1045 1050 1045 1100 991.5 c 128,-1,12
 1150 938 1150 938 1184.5 872.5 c 128,-1,13
 1219 807 1219 807 1237 731.5 c 128,-1,14
 1255 656 1255 656 1255 575 c 0,15,16
 1255 451 1255 451 1214 342.5 c 128,-1,17
 1173 234 1173 234 1096 154 c 128,-1,18
 1019 74 1019 74 908.5 27.5 c 128,-1,19
 798 -19 798 -19 659 -19 c 0,20,21
 536 -19 536 -19 444 15 c 1,22,-1
 389 -92 l 1,23,-1
 295 -49 l 1,24,-1
 348 57 l 1,25,26
 280 94 280 94 227.5 148 c 128,-1,27
 175 202 175 202 139 269 c 128,-1,28
 103 336 103 336 84 413.5 c 128,-1,29
 65 491 65 491 65 575 c 0,0,1
242 575 m 0,30,31
 242 454 242 454 287.5 355.5 c 128,-1,32
 333 257 333 257 418 194 c 1,33,-1
 828 1002 l 1,34,35
 756 1036 756 1036 659 1036 c 0,36,37
 564 1036 564 1036 487.5 1000 c 128,-1,38
 411 964 411 964 356 902 c 128,-1,39
 301 840 301 840 271.5 755.5 c 128,-1,40
 242 671 242 671 242 575 c 0,30,31
1077 575 m 0,41,42
 1077 690 1077 690 1035 787 c 128,-1,43
 993 884 993 884 917 947 c 1,44,-1
 509 144 l 1,45,46
 582 118 582 118 659 118 c 0,47,48
 754 118 754 118 831.5 154 c 128,-1,49
 909 190 909 190 963.5 252 c 128,-1,50
 1018 314 1018 314 1047.5 397 c 128,-1,51
 1077 480 1077 480 1077 575 c 0,41,42
EndSplineSet
EndChar

StartChar: Thorn
Encoding: 222 222 178
Width: 1030
GlyphClass: 2
Flags: W
LayerCount: 2
Fore
SplineSet
63 125 m 1,0,-1
 214 125 l 1,1,-1
 214 1026 l 1,2,-1
 63 1026 l 1,3,-1
 63 1153 l 1,4,-1
 374 1153 l 1,5,-1
 374 1001 l 1,6,-1
 596 1001 l 2,7,8
 716 1001 716 1001 792.5 968.5 c 128,-1,9
 869 936 869 936 913.5 885.5 c 128,-1,10
 958 835 958 835 975 773 c 128,-1,11
 992 711 992 711 992 653 c 0,12,13
 992 547 992 547 957 478.5 c 128,-1,14
 922 410 922 410 859.5 370.5 c 128,-1,15
 797 331 797 331 710.5 315.5 c 128,-1,16
 624 300 624 300 522 300 c 2,17,-1
 376 300 l 1,18,-1
 376 125 l 1,19,-1
 534 125 l 1,20,-1
 534 0 l 1,21,-1
 63 0 l 1,22,-1
 63 125 l 1,0,-1
374 425 m 1,23,-1
 552 425 l 2,24,25
 633 425 633 425 686.5 442.5 c 128,-1,26
 740 460 740 460 771 491 c 128,-1,27
 802 522 802 522 814.5 564 c 128,-1,28
 827 606 827 606 827 655 c 0,29,30
 827 764 827 764 768.5 819 c 128,-1,31
 710 874 710 874 601 874 c 2,32,-1
 374 874 l 1,33,-1
 374 425 l 1,23,-1
EndSplineSet
EndChar

StartChar: germandbls
Encoding: 223 223 179
Width: 1114
GlyphClass: 2
Flags: W
LayerCount: 2
Fore
SplineSet
493 125 m 1,0,-1
 493 0 l 1,1,-1
 72 0 l 1,2,-1
 72 125 l 1,3,-1
 222 125 l 1,4,-1
 222 786 l 2,5,6
 222 877 222 877 245 948.5 c 128,-1,7
 268 1020 268 1020 315.5 1069.5 c 128,-1,8
 363 1119 363 1119 435 1145 c 128,-1,9
 507 1171 507 1171 606 1171 c 0,10,11
 678 1171 678 1171 736.5 1150.5 c 128,-1,12
 795 1130 795 1130 837 1093 c 128,-1,13
 879 1056 879 1056 902 1004 c 128,-1,14
 925 952 925 952 925 889 c 0,15,16
 925 802 925 802 883 736 c 128,-1,17
 841 670 841 670 748 641 c 1,18,19
 815 630 815 630 868.5 604 c 128,-1,20
 922 578 922 578 959 540 c 128,-1,21
 996 502 996 502 1015.5 453 c 128,-1,22
 1035 404 1035 404 1035 346 c 0,23,24
 1035 271 1035 271 1012 207.5 c 128,-1,25
 989 144 989 144 938 98 c 128,-1,26
 887 52 887 52 807 26 c 128,-1,27
 727 0 727 0 613 0 c 1,28,-1
 613 125 l 1,29,30
 669 125 669 125 719 134.5 c 128,-1,31
 769 144 769 144 807 168.5 c 128,-1,32
 845 193 845 193 867 236 c 128,-1,33
 889 279 889 279 889 346 c 0,34,35
 889 392 889 392 872.5 432.5 c 128,-1,36
 856 473 856 473 819 503.5 c 128,-1,37
 782 534 782 534 721.5 551.5 c 128,-1,38
 661 569 661 569 573 569 c 1,39,-1
 573 675 l 1,40,41
 630 675 630 675 670 692.5 c 128,-1,42
 710 710 710 710 735 739 c 128,-1,43
 760 768 760 768 771 804.5 c 128,-1,44
 782 841 782 841 782 879 c 256,45,46
 782 917 782 917 769.5 948 c 128,-1,47
 757 979 757 979 734 1001.5 c 128,-1,48
 711 1024 711 1024 678.5 1036 c 128,-1,49
 646 1048 646 1048 606 1048 c 0,50,51
 551 1048 551 1048 506 1034.5 c 128,-1,52
 461 1021 461 1021 429 990 c 128,-1,53
 397 959 397 959 379.5 910 c 128,-1,54
 362 861 362 861 362 790 c 2,55,-1
 362 125 l 1,56,-1
 493 125 l 1,0,-1
EndSplineSet
EndChar

StartChar: ae
Encoding: 230 230 186
Width: 1453
GlyphClass: 2
Flags: W
LayerCount: 2
Fore
SplineSet
327 -14 m 0,0,1
 264 -14 264 -14 213.5 5.5 c 128,-1,2
 163 25 163 25 127.5 57.5 c 128,-1,3
 92 90 92 90 73.5 132.5 c 128,-1,4
 55 175 55 175 55 221 c 0,5,6
 55 293 55 293 82.5 341 c 128,-1,7
 110 389 110 389 157 417.5 c 128,-1,8
 204 446 204 446 267.5 458 c 128,-1,9
 331 470 331 470 402 470 c 0,10,11
 450 470 450 470 497 465 c 128,-1,12
 544 460 544 460 595 450 c 1,13,-1
 595 547 l 2,14,15
 595 591 595 591 579.5 622 c 128,-1,16
 564 653 564 653 537 672.5 c 128,-1,17
 510 692 510 692 474.5 700.5 c 128,-1,18
 439 709 439 709 399 709 c 0,19,20
 273 709 273 709 214 626 c 1,21,-1
 74 665 l 1,22,23
 120 744 120 744 205.5 785.5 c 128,-1,24
 291 827 291 827 419 827 c 0,25,26
 477 827 477 827 522.5 816 c 128,-1,27
 568 805 568 805 602.5 785.5 c 128,-1,28
 637 766 637 766 661.5 739 c 128,-1,29
 686 712 686 712 702 680 c 1,30,31
 760 749 760 749 837.5 788 c 128,-1,32
 915 827 915 827 1012 827 c 0,33,34
 1107 827 1107 827 1178.5 791 c 128,-1,35
 1250 755 1250 755 1298 693.5 c 128,-1,36
 1346 632 1346 632 1370 551.5 c 128,-1,37
 1394 471 1394 471 1394 382 c 2,38,-1
 1394 363 l 1,39,-1
 759 365 l 1,40,41
 766 307 766 307 785.5 258.5 c 128,-1,42
 805 210 805 210 837.5 175 c 128,-1,43
 870 140 870 140 915 120.5 c 128,-1,44
 960 101 960 101 1019 101 c 0,45,46
 1094 101 1094 101 1159 131.5 c 128,-1,47
 1224 162 1224 162 1266 217 c 1,48,-1
 1394 161 l 1,49,50
 1339 73 1339 73 1243 25 c 128,-1,51
 1147 -23 1147 -23 1016 -23 c 0,52,53
 910 -23 910 -23 828.5 10 c 128,-1,54
 747 43 747 43 687 103 c 1,55,56
 640 74 640 74 598 52 c 128,-1,57
 556 30 556 30 513 15.5 c 128,-1,58
 470 1 470 1 425 -6.5 c 128,-1,59
 380 -14 380 -14 327 -14 c 0,0,1
1251 467 m 1,60,61
 1243 516 1243 516 1224 561 c 128,-1,62
 1205 606 1205 606 1175.5 639.5 c 128,-1,63
 1146 673 1146 673 1105.5 693 c 128,-1,64
 1065 713 1065 713 1014 713 c 0,65,66
 960 713 960 713 916.5 694.5 c 128,-1,67
 873 676 873 676 841.5 643 c 128,-1,68
 810 610 810 610 790 565 c 128,-1,69
 770 520 770 520 763 467 c 1,70,-1
 1251 467 l 1,60,61
595 352 m 1,71,72
 563 353 563 353 514.5 360.5 c 128,-1,73
 466 368 466 368 412 368 c 0,74,75
 373 368 373 368 334 362.5 c 128,-1,76
 295 357 295 357 264.5 341 c 128,-1,77
 234 325 234 325 215 296 c 128,-1,78
 196 267 196 267 196 221 c 0,79,80
 196 167 196 167 234.5 131.5 c 128,-1,81
 273 96 273 96 348 96 c 0,82,83
 381 96 381 96 415 102 c 128,-1,84
 449 108 449 108 481.5 118.5 c 128,-1,85
 514 129 514 129 543 144 c 128,-1,86
 572 159 572 159 595 178 c 1,87,-1
 595 352 l 1,71,72
EndSplineSet
EndChar

StartChar: eth
Encoding: 240 240 196
Width: 932
GlyphClass: 2
Flags: W
LayerCount: 2
Fore
SplineSet
122 1052 m 1,0,1
 171 1109 171 1109 247.5 1140 c 128,-1,2
 324 1171 324 1171 424 1171 c 0,3,4
 545 1171 545 1171 628 1118.5 c 128,-1,5
 711 1066 711 1066 763 969 c 1,6,-1
 946 1006 l 1,7,-1
 967 905 l 1,8,-1
 804 872 l 1,9,10
 846 743 846 743 846 568 c 0,11,12
 846 427 846 427 819.5 318 c 128,-1,13
 793 209 793 209 741.5 134 c 128,-1,14
 690 59 690 59 612.5 20 c 128,-1,15
 535 -19 535 -19 433 -19 c 0,16,17
 346 -19 346 -19 277.5 11 c 128,-1,18
 209 41 209 41 161.5 93 c 128,-1,19
 114 145 114 145 89 215.5 c 128,-1,20
 64 286 64 286 64 367 c 0,21,22
 64 442 64 442 88.5 506.5 c 128,-1,23
 113 571 113 571 158 618 c 128,-1,24
 203 665 203 665 266 691.5 c 128,-1,25
 329 718 329 718 407 718 c 0,26,27
 450 718 450 718 492.5 710.5 c 128,-1,28
 535 703 535 703 573.5 689 c 128,-1,29
 612 675 612 675 645 654.5 c 128,-1,30
 678 634 678 634 702 607 c 1,31,32
 702 679 702 679 694.5 738.5 c 128,-1,33
 687 798 687 798 673 846 c 1,34,-1
 460 804 l 1,35,-1
 440 905 l 1,36,-1
 630 943 l 1,37,38
 600 1001 600 1001 546 1026 c 128,-1,39
 492 1051 492 1051 429 1051 c 0,40,41
 394 1051 394 1051 359 1044 c 128,-1,42
 324 1037 324 1037 292.5 1025 c 128,-1,43
 261 1013 261 1013 234 996.5 c 128,-1,44
 207 980 207 980 188 961 c 1,45,-1
 122 1052 l 1,0,1
696 457 m 1,46,47
 667 490 667 490 631.5 513.5 c 128,-1,48
 596 537 596 537 559 552.5 c 128,-1,49
 522 568 522 568 487 575.5 c 128,-1,50
 452 583 452 583 424 583 c 0,51,52
 371 583 371 583 330 566 c 128,-1,53
 289 549 289 549 260.5 519 c 128,-1,54
 232 489 232 489 217.5 448 c 128,-1,55
 203 407 203 407 203 358 c 0,56,57
 203 305 203 305 218 259 c 128,-1,58
 233 213 233 213 263 179 c 128,-1,59
 293 145 293 145 337 125.5 c 128,-1,60
 381 106 381 106 439 106 c 0,61,62
 502 106 502 106 547 128.5 c 128,-1,63
 592 151 592 151 622.5 195 c 128,-1,64
 653 239 653 239 670.5 304.5 c 128,-1,65
 688 370 688 370 696 457 c 1,46,47
EndSplineSet
EndChar

StartChar: divide
Encoding: 247 247 203
Width: 1164
GlyphClass: 2
Flags: W
LayerCount: 2
Fore
SplineSet
931 593 m 1,0,-1
 931 475 l 1,1,-1
 220 475 l 1,2,-1
 220 593 l 1,3,-1
 931 593 l 1,0,-1
501 944 m 1,4,-1
 654 944 l 1,5,-1
 654 792 l 1,6,-1
 501 792 l 1,7,-1
 501 944 l 1,4,-1
501 275 m 1,8,-1
 654 275 l 1,9,-1
 654 121 l 1,10,-1
 501 121 l 1,11,-1
 501 275 l 1,8,-1
EndSplineSet
EndChar

StartChar: oslash
Encoding: 248 248 204
Width: 967
GlyphClass: 2
Flags: W
LayerCount: 2
Fore
SplineSet
482 -18 m 0,0,1
 444 -18 444 -18 410 -13 c 128,-1,2
 376 -8 376 -8 344 1 c 1,3,-1
 279 -126 l 1,4,-1
 185 -83 l 1,5,-1
 250 43 l 1,6,7
 156 100 156 100 106.5 193.5 c 128,-1,8
 57 287 57 287 57 402 c 0,9,10
 57 489 57 489 87 565 c 128,-1,11
 117 641 117 641 172.5 698 c 128,-1,12
 228 755 228 755 307 787.5 c 128,-1,13
 386 820 386 820 484 820 c 0,14,15
 567 820 567 820 636 796 c 1,16,-1
 702 926 l 1,17,-1
 796 883 l 1,18,-1
 728 751 l 1,19,20
 816 694 816 694 863 604 c 128,-1,21
 910 514 910 514 910 402 c 0,22,23
 910 315 910 315 880 238.5 c 128,-1,24
 850 162 850 162 794 105 c 128,-1,25
 738 48 738 48 659 15 c 128,-1,26
 580 -18 580 -18 482 -18 c 0,0,1
216 402 m 0,27,28
 216 327 216 327 240.5 266.5 c 128,-1,29
 265 206 265 206 313 166 c 1,30,-1
 575 678 l 1,31,32
 536 694 536 694 482 694 c 0,33,34
 420 694 420 694 371 671.5 c 128,-1,35
 322 649 322 649 287.5 609.5 c 128,-1,36
 253 570 253 570 234.5 516.5 c 128,-1,37
 216 463 216 463 216 402 c 0,27,28
482 107 m 0,38,39
 544 107 544 107 593.5 129.5 c 128,-1,40
 643 152 643 152 678 191.5 c 128,-1,41
 713 231 713 231 731.5 285 c 128,-1,42
 750 339 750 339 750 402 c 0,43,44
 750 471 750 471 727.5 527.5 c 128,-1,45
 705 584 705 584 663 624 c 1,46,-1
 404 117 l 1,47,48
 435 107 435 107 482 107 c 0,38,39
EndSplineSet
EndChar

StartChar: thorn
Encoding: 254 254 210
Width: 1026
GlyphClass: 2
Flags: W
LayerCount: 2
Fore
SplineSet
24 -163 m 1,0,-1
 168 -163 l 1,1,-1
 168 1032 l 1,2,-1
 25 1032 l 1,3,-1
 25 1153 l 1,4,-1
 319 1153 l 1,5,-1
 319 707 l 1,6,7
 382 765 382 765 453 792.5 c 128,-1,8
 524 820 524 820 615 820 c 0,9,10
 707 820 707 820 781 788 c 128,-1,11
 855 756 855 756 906.5 700.5 c 128,-1,12
 958 645 958 645 985.5 570 c 128,-1,13
 1013 495 1013 495 1013 410 c 0,14,15
 1013 321 1013 321 985 243 c 128,-1,16
 957 165 957 165 905.5 107 c 128,-1,17
 854 49 854 49 780 15.5 c 128,-1,18
 706 -18 706 -18 614 -18 c 0,19,20
 570 -18 570 -18 527 -9.5 c 128,-1,21
 484 -1 484 -1 445 15.5 c 128,-1,22
 406 32 406 32 373 56 c 128,-1,23
 340 80 340 80 318 111 c 1,24,-1
 318 -276 l 1,25,-1
 24 -276 l 1,26,-1
 24 -163 l 1,0,-1
582 107 m 0,27,28
 646 107 646 107 696 129.5 c 128,-1,29
 746 152 746 152 780 191 c 128,-1,30
 814 230 814 230 832 282.5 c 128,-1,31
 850 335 850 335 850 396 c 0,32,33
 850 456 850 456 831.5 510 c 128,-1,34
 813 564 813 564 777.5 605 c 128,-1,35
 742 646 742 646 692 670 c 128,-1,36
 642 694 642 694 579 694 c 0,37,38
 534 694 534 694 495 681.5 c 128,-1,39
 456 669 456 669 423.5 649.5 c 128,-1,40
 391 630 391 630 364.5 607.5 c 128,-1,41
 338 585 338 585 319 564 c 1,42,-1
 319 229 l 1,43,44
 340 209 340 209 367.5 187.5 c 128,-1,45
 395 166 395 166 428 148 c 128,-1,46
 461 130 461 130 499.5 118.5 c 128,-1,47
 538 107 538 107 582 107 c 0,27,28
EndSplineSet
EndChar

StartChar: dotlessi
Encoding: 305 305 215
Width: 509
GlyphClass: 2
Flags: W
LayerCount: 2
Fore
SplineSet
59 113 m 1,0,-1
 194 113 l 1,1,-1
 194 689 l 1,2,-1
 59 689 l 1,3,-1
 59 805 l 1,4,-1
 343 805 l 1,5,-1
 343 113 l 1,6,-1
 479 113 l 1,7,-1
 479 0 l 1,8,-1
 59 0 l 1,9,-1
 59 113 l 1,0,-1
EndSplineSet
EndChar

StartChar: kgreenlandic
Encoding: 312 312 221
Width: 995
GlyphClass: 2
Flags: W
LayerCount: 2
Fore
SplineSet
20 113 m 1,0,-1
 173 113 l 1,1,-1
 173 698 l 1,2,-1
 20 698 l 1,3,-1
 20 819 l 1,4,-1
 321 819 l 1,5,-1
 321 420 l 1,6,-1
 650 689 l 1,7,-1
 511 689 l 1,8,-1
 511 805 l 1,9,-1
 958 805 l 1,10,-1
 958 689 l 1,11,-1
 826 689 l 1,12,-1
 494 405 l 1,13,-1
 836 113 l 1,14,-1
 966 113 l 1,15,-1
 966 0 l 1,16,-1
 545 0 l 1,17,-1
 545 113 l 1,18,-1
 651 113 l 1,19,-1
 321 395 l 1,20,-1
 321 113 l 1,21,-1
 426 113 l 1,22,-1
 426 0 l 1,23,-1
 20 0 l 1,24,-1
 20 113 l 1,0,-1
EndSplineSet
EndChar

StartChar: ldot
Encoding: 320 320 223
Width: 861
GlyphClass: 2
Flags: W
LayerCount: 2
Fore
SplineSet
588 679 m 1,0,-1
 760 679 l 1,1,-1
 760 482 l 1,2,-1
 588 482 l 1,3,-1
 588 679 l 1,0,-1
21 107 m 1,4,-1
 173 107 l 1,5,-1
 173 1032 l 1,6,-1
 24 1032 l 1,7,-1
 24 1153 l 1,8,-1
 322 1153 l 1,9,-1
 322 107 l 1,10,-1
 455 107 l 1,11,-1
 455 0 l 1,12,-1
 21 0 l 1,13,-1
 21 107 l 1,4,-1
EndSplineSet
EndChar

StartChar: Lslash
Encoding: 321 321 224
Width: 985
GlyphClass: 2
Flags: W
LayerCount: 2
Fore
SplineSet
59 125 m 1,0,-1
 217 125 l 1,1,-1
 217 512 l 1,2,-1
 60 450 l 1,3,-1
 60 579 l 1,4,-1
 217 641 l 1,5,-1
 217 1026 l 1,6,-1
 59 1026 l 1,7,-1
 59 1153 l 1,8,-1
 533 1153 l 1,9,-1
 533 1026 l 1,10,-1
 378 1026 l 1,11,-1
 378 705 l 1,12,-1
 627 805 l 1,13,-1
 627 676 l 1,14,-1
 378 576 l 1,15,-1
 378 125 l 1,16,-1
 788 125 l 1,17,-1
 788 482 l 1,18,-1
 933 482 l 1,19,-1
 933 0 l 1,20,-1
 59 0 l 1,21,-1
 59 125 l 1,0,-1
EndSplineSet
EndChar

StartChar: lslash
Encoding: 322 322 225
Width: 511
GlyphClass: 2
Flags: W
LayerCount: 2
Fore
SplineSet
21 113 m 1,0,-1
 173 113 l 1,1,-1
 173 501 l 1,2,-1
 36 450 l 1,3,-1
 36 579 l 1,4,-1
 173 632 l 1,5,-1
 173 1032 l 1,6,-1
 24 1032 l 1,7,-1
 24 1153 l 1,8,-1
 322 1153 l 1,9,-1
 322 690 l 1,10,-1
 472 748 l 1,11,-1
 472 612 l 1,12,-1
 322 556 l 1,13,-1
 322 113 l 1,14,-1
 455 113 l 1,15,-1
 455 0 l 1,16,-1
 21 0 l 1,17,-1
 21 113 l 1,0,-1
EndSplineSet
EndChar

StartChar: OE
Encoding: 338 338 228
Width: 1920
GlyphClass: 2
Flags: W
LayerCount: 2
Fore
SplineSet
1832 1153 m 1,0,-1
 1832 832 l 1,1,-1
 1700 832 l 1,2,-1
 1700 1026 l 1,3,-1
 1176 1026 l 1,4,-1
 1176 655 l 1,5,-1
 1538 655 l 1,6,-1
 1551 769 l 1,7,-1
 1638 769 l 1,8,-1
 1638 410 l 1,9,-1
 1550 410 l 1,10,-1
 1537 526 l 1,11,-1
 1178 526 l 1,12,-1
 1178 127 l 1,13,-1
 1703 127 l 1,14,-1
 1703 328 l 1,15,-1
 1832 328 l 1,16,-1
 1832 0 l 1,17,-1
 1017 0 l 1,18,-1
 1017 95 l 1,19,20
 948 41 948 41 852.5 11 c 128,-1,21
 757 -19 757 -19 636 -19 c 0,22,23
 503 -19 503 -19 397.5 27 c 128,-1,24
 292 73 292 73 218.5 153.5 c 128,-1,25
 145 234 145 234 106 342 c 128,-1,26
 67 450 67 450 67 575 c 256,27,28
 67 700 67 700 106 809 c 128,-1,29
 145 918 145 918 218.5 998.5 c 128,-1,30
 292 1079 292 1079 397.5 1125 c 128,-1,31
 503 1171 503 1171 636 1171 c 0,32,33
 757 1171 757 1171 852.5 1141 c 128,-1,34
 948 1111 948 1111 1017 1057 c 1,35,-1
 1017 1153 l 1,36,-1
 1832 1153 l 1,0,-1
245 575 m 0,37,38
 245 458 245 458 280.5 372.5 c 128,-1,39
 316 287 316 287 375 231.5 c 128,-1,40
 434 176 434 176 512 149 c 128,-1,41
 590 122 590 122 674 122 c 0,42,43
 762 122 762 122 850.5 150 c 128,-1,44
 939 178 939 178 1017 235 c 1,45,-1
 1017 933 l 1,46,47
 929 987 929 987 840 1013.5 c 128,-1,48
 751 1040 751 1040 663 1040 c 0,49,50
 577 1040 577 1040 501 1012 c 128,-1,51
 425 984 425 984 368 926.5 c 128,-1,52
 311 869 311 869 278 781.5 c 128,-1,53
 245 694 245 694 245 575 c 0,37,38
EndSplineSet
EndChar

StartChar: oe
Encoding: 339 339 229
Width: 1648
GlyphClass: 2
Flags: W
LayerCount: 2
Fore
SplineSet
482 -18 m 0,0,1
 384 -18 384 -18 305.5 15 c 128,-1,2
 227 48 227 48 172 105 c 128,-1,3
 117 162 117 162 87 238.5 c 128,-1,4
 57 315 57 315 57 402 c 256,5,6
 57 489 57 489 87 565 c 128,-1,7
 117 641 117 641 172.5 698 c 128,-1,8
 228 755 228 755 307 787.5 c 128,-1,9
 386 820 386 820 484 820 c 0,10,11
 602 820 602 820 689.5 774.5 c 128,-1,12
 777 729 777 729 832 653 c 1,13,14
 892 731 892 731 984 775.5 c 128,-1,15
 1076 820 1076 820 1188 820 c 0,16,17
 1287 820 1287 820 1362 784.5 c 128,-1,18
 1437 749 1437 749 1487.5 688.5 c 128,-1,19
 1538 628 1538 628 1563 548.5 c 128,-1,20
 1588 469 1588 469 1588 382 c 2,21,-1
 1588 365 l 1,22,-1
 909 365 l 1,23,24
 912 307 912 307 933 259.5 c 128,-1,25
 954 212 954 212 991 178 c 128,-1,26
 1028 144 1028 144 1079.5 125.5 c 128,-1,27
 1131 107 1131 107 1196 107 c 0,28,29
 1235 107 1235 107 1273 116 c 128,-1,30
 1311 125 1311 125 1345 141.5 c 128,-1,31
 1379 158 1379 158 1408 181 c 128,-1,32
 1437 204 1437 204 1457 233 c 1,33,-1
 1559 157 l 1,34,35
 1508 79 1508 79 1417.5 30.5 c 128,-1,36
 1327 -18 1327 -18 1192 -18 c 0,37,38
 1071 -18 1071 -18 979 26.5 c 128,-1,39
 887 71 887 71 830 149 c 1,40,41
 775 73 775 73 687.5 27.5 c 128,-1,42
 600 -18 600 -18 482 -18 c 0,0,1
482 107 m 256,43,44
 544 107 544 107 593.5 129.5 c 128,-1,45
 643 152 643 152 678 191.5 c 128,-1,46
 713 231 713 231 731.5 285 c 128,-1,47
 750 339 750 339 750 402 c 0,48,49
 750 463 750 463 731.5 516.5 c 128,-1,50
 713 570 713 570 678 609.5 c 128,-1,51
 643 649 643 649 593.5 671.5 c 128,-1,52
 544 694 544 694 482 694 c 256,53,54
 420 694 420 694 371 671.5 c 128,-1,55
 322 649 322 649 287.5 609.5 c 128,-1,56
 253 570 253 570 234.5 516.5 c 128,-1,57
 216 463 216 463 216 402 c 0,58,59
 216 339 216 339 234.5 285 c 128,-1,60
 253 231 253 231 287.5 191.5 c 128,-1,61
 322 152 322 152 371 129.5 c 128,-1,62
 420 107 420 107 482 107 c 256,43,44
1444 467 m 1,63,64
 1438 516 1438 516 1418 557.5 c 128,-1,65
 1398 599 1398 599 1366 629.5 c 128,-1,66
 1334 660 1334 660 1289.5 677 c 128,-1,67
 1245 694 1245 694 1190 694 c 0,68,69
 1129 694 1129 694 1081.5 677.5 c 128,-1,70
 1034 661 1034 661 999.5 631.5 c 128,-1,71
 965 602 965 602 943.5 560 c 128,-1,72
 922 518 922 518 913 467 c 1,73,-1
 1444 467 l 1,63,64
EndSplineSet
EndChar

StartChar: dotlessj
Encoding: 567 567 268
Width: 441
GlyphClass: 2
Flags: W
LayerCount: 2
Fore
SplineSet
-60 -235 m 1,0,1
 -37 -237 -37 -237 -20 -238 c 128,-1,2
 -3 -239 -3 -239 17 -239 c 0,3,4
 59 -239 59 -239 87 -228 c 128,-1,5
 115 -217 115 -217 132 -193.5 c 128,-1,6
 149 -170 149 -170 156 -133 c 128,-1,7
 163 -96 163 -96 163 -43 c 2,8,-1
 163 689 l 1,9,-1
 11 689 l 1,10,-1
 11 805 l 1,11,-1
 314 805 l 1,12,-1
 314 4 l 2,13,14
 314 -72 314 -72 307 -139 c 128,-1,15
 300 -206 300 -206 272 -256.5 c 128,-1,16
 244 -307 244 -307 187 -337 c 128,-1,17
 130 -367 130 -367 31 -368 c 0,18,19
 6 -368 6 -368 -15 -366.5 c 128,-1,20
 -36 -365 -36 -365 -60 -361 c 1,21,-1
 -60 -235 l 1,0,1
143 1066 m 256,22,23
 143 1103 143 1103 169.5 1128 c 128,-1,24
 196 1153 196 1153 235 1153 c 256,25,26
 274 1153 274 1153 300.5 1128 c 128,-1,27
 327 1103 327 1103 327 1066 c 256,28,29
 327 1029 327 1029 300.5 1004 c 128,-1,30
 274 979 274 979 235 979 c 256,31,32
 196 979 196 979 169.5 1004 c 128,-1,33
 143 1029 143 1029 143 1066 c 256,22,23
EndSplineSet
EndChar

StartChar: circumflex
Encoding: 710 710 269
Width: 593
GlyphClass: 2
Flags: W
LayerCount: 2
Fore
SplineSet
58 896 m 1,0,-1
 156 1171 l 1,1,-1
 431 1171 l 1,2,-1
 535 896 l 1,3,-1
 387 896 l 1,4,-1
 294 1126 l 1,5,-1
 201 896 l 1,6,-1
 58 896 l 1,0,-1
EndSplineSet
EndChar

StartChar: caron
Encoding: 711 711 270
Width: 593
GlyphClass: 2
Flags: W
LayerCount: 2
Fore
SplineSet
145 1171 m 1,0,-1
 299 1017 l 1,1,-1
 451 1171 l 1,2,-1
 555 1171 l 1,3,-1
 396 912 l 1,4,-1
 200 912 l 1,5,-1
 38 1171 l 1,6,-1
 145 1171 l 1,0,-1
EndSplineSet
EndChar

StartChar: breve
Encoding: 728 728 271
Width: 584
GlyphClass: 2
Flags: W
LayerCount: 2
Fore
SplineSet
144 1153 m 1,0,1
 154 1096 154 1096 191.5 1065.5 c 128,-1,2
 229 1035 229 1035 292 1035 c 0,3,4
 352 1035 352 1035 391.5 1065.5 c 128,-1,5
 431 1096 431 1096 439 1153 c 1,6,-1
 550 1153 l 1,7,8
 545 1105 545 1105 524.5 1066 c 128,-1,9
 504 1027 504 1027 470 999 c 128,-1,10
 436 971 436 971 391 955.5 c 128,-1,11
 346 940 346 940 292 940 c 256,12,13
 238 940 238 940 192.5 955.5 c 128,-1,14
 147 971 147 971 113.5 998.5 c 128,-1,15
 80 1026 80 1026 59 1065.5 c 128,-1,16
 38 1105 38 1105 34 1153 c 1,17,-1
 144 1153 l 1,0,1
EndSplineSet
EndChar

StartChar: dotaccent
Encoding: 729 729 272
Width: 535
GlyphClass: 2
Flags: W
LayerCount: 2
Fore
SplineSet
268 1125 m 256,0,1
 287 1125 287 1125 303.5 1118.5 c 128,-1,2
 320 1112 320 1112 332.5 1100 c 128,-1,3
 345 1088 345 1088 352 1072 c 128,-1,4
 359 1056 359 1056 359 1038 c 256,5,6
 359 1020 359 1020 352 1004 c 128,-1,7
 345 988 345 988 332.5 976 c 128,-1,8
 320 964 320 964 303.5 957 c 128,-1,9
 287 950 287 950 268 950 c 256,10,11
 249 950 249 950 232.5 957 c 128,-1,12
 216 964 216 964 203.5 976 c 128,-1,13
 191 988 191 988 184 1004 c 128,-1,14
 177 1020 177 1020 177 1038 c 256,15,16
 177 1056 177 1056 184 1072 c 128,-1,17
 191 1088 191 1088 203.5 1100 c 128,-1,18
 216 1112 216 1112 232.5 1118.5 c 128,-1,19
 249 1125 249 1125 268 1125 c 256,0,1
EndSplineSet
EndChar

StartChar: ring
Encoding: 730 730 273
Width: 565
GlyphClass: 2
Flags: W
LayerCount: 2
Fore
SplineSet
282 1201 m 256,0,1
 317 1201 317 1201 348 1189 c 128,-1,2
 379 1177 379 1177 402 1155.5 c 128,-1,3
 425 1134 425 1134 438 1105 c 128,-1,4
 451 1076 451 1076 451 1042 c 256,5,6
 451 1008 451 1008 438 978.5 c 128,-1,7
 425 949 425 949 402 927.5 c 128,-1,8
 379 906 379 906 348 893.5 c 128,-1,9
 317 881 317 881 282 881 c 256,10,11
 247 881 247 881 216 893.5 c 128,-1,12
 185 906 185 906 162.5 927.5 c 128,-1,13
 140 949 140 949 127 978.5 c 128,-1,14
 114 1008 114 1008 114 1042 c 256,15,16
 114 1076 114 1076 127 1105 c 128,-1,17
 140 1134 140 1134 162.5 1155.5 c 128,-1,18
 185 1177 185 1177 216 1189 c 128,-1,19
 247 1201 247 1201 282 1201 c 256,0,1
282 1140 m 256,20,21
 260 1140 260 1140 241 1132.5 c 128,-1,22
 222 1125 222 1125 207.5 1112 c 128,-1,23
 193 1099 193 1099 185 1081 c 128,-1,24
 177 1063 177 1063 177 1042 c 256,25,26
 177 1021 177 1021 185 1003 c 128,-1,27
 193 985 193 985 207.5 971.5 c 128,-1,28
 222 958 222 958 241 950.5 c 128,-1,29
 260 943 260 943 282 943 c 256,30,31
 304 943 304 943 323 950.5 c 128,-1,32
 342 958 342 958 356 971.5 c 128,-1,33
 370 985 370 985 378 1003 c 128,-1,34
 386 1021 386 1021 386 1042 c 256,35,36
 386 1063 386 1063 378 1081 c 128,-1,37
 370 1099 370 1099 356 1112 c 128,-1,38
 342 1125 342 1125 323 1132.5 c 128,-1,39
 304 1140 304 1140 282 1140 c 256,20,21
EndSplineSet
EndChar

StartChar: ogonek
Encoding: 731 731 274
Width: 587
GlyphClass: 2
Flags: W
LayerCount: 2
Fore
SplineSet
311 0 m 1,0,1
 285 -36 285 -36 275.5 -65 c 128,-1,2
 266 -94 266 -94 266 -126 c 0,3,4
 266 -233 266 -233 364 -233 c 0,5,6
 387 -233 387 -233 407 -228.5 c 128,-1,7
 427 -224 427 -224 451 -213 c 1,8,-1
 451 -316 l 1,9,10
 410 -336 410 -336 381 -344.5 c 128,-1,11
 352 -353 352 -353 317 -353 c 0,12,13
 278 -353 278 -353 245 -340 c 128,-1,14
 212 -327 212 -327 188 -304 c 128,-1,15
 164 -281 164 -281 150.5 -248.5 c 128,-1,16
 137 -216 137 -216 137 -177 c 0,17,18
 137 -158 137 -158 139.5 -138.5 c 128,-1,19
 142 -119 142 -119 149 -98 c 128,-1,20
 156 -77 156 -77 167.5 -53 c 128,-1,21
 179 -29 179 -29 197 0 c 1,22,-1
 311 0 l 1,0,1
EndSplineSet
EndChar

StartChar: tilde
Encoding: 732 732 275
Width: 587
GlyphClass: 2
Flags: W
LayerCount: 2
Fore
SplineSet
-11 980 m 1,0,1
 -6 1035 -6 1035 10 1074.5 c 128,-1,2
 26 1114 26 1114 49.5 1139.5 c 128,-1,3
 73 1165 73 1165 102.5 1177 c 128,-1,4
 132 1189 132 1189 165 1189 c 0,5,6
 203 1189 203 1189 240.5 1178 c 128,-1,7
 278 1167 278 1167 313.5 1154 c 128,-1,8
 349 1141 349 1141 381.5 1130 c 128,-1,9
 414 1119 414 1119 443 1119 c 0,10,11
 505 1119 505 1119 520 1184 c 1,12,-1
 598 1184 l 1,13,14
 590 1084 590 1084 544 1027.5 c 128,-1,15
 498 971 498 971 419 971 c 0,16,17
 377 971 377 971 338.5 982 c 128,-1,18
 300 993 300 993 265 1006.5 c 128,-1,19
 230 1020 230 1020 198 1031 c 128,-1,20
 166 1042 166 1042 137 1042 c 0,21,22
 105 1042 105 1042 90 1026 c 128,-1,23
 75 1010 75 1010 69 980 c 1,24,-1
 -11 980 l 1,0,1
EndSplineSet
EndChar

StartChar: hungarumlaut
Encoding: 733 733 276
Width: 587
GlyphClass: 2
Flags: W
LayerCount: 2
Fore
SplineSet
287 899 m 1,0,-1
 377 1171 l 1,1,-1
 567 1171 l 1,2,-1
 382 899 l 1,3,-1
 287 899 l 1,0,-1
25 899 m 1,4,-1
 116 1171 l 1,5,-1
 306 1171 l 1,6,-1
 121 899 l 1,7,-1
 25 899 l 1,4,-1
EndSplineSet
EndChar

StartChar: dotaccentcmb
Encoding: 775 775 277
Width: 535
GlyphClass: 2
Flags: W
LayerCount: 2
Fore
SplineSet
268 1125 m 256,0,1
 287 1125 287 1125 303.5 1118.5 c 128,-1,2
 320 1112 320 1112 332.5 1100 c 128,-1,3
 345 1088 345 1088 352 1072 c 128,-1,4
 359 1056 359 1056 359 1038 c 256,5,6
 359 1020 359 1020 352 1004 c 128,-1,7
 345 988 345 988 332.5 976 c 128,-1,8
 320 964 320 964 303.5 957 c 128,-1,9
 287 950 287 950 268 950 c 256,10,11
 249 950 249 950 232.5 957 c 128,-1,12
 216 964 216 964 203.5 976 c 128,-1,13
 191 988 191 988 184 1004 c 128,-1,14
 177 1020 177 1020 177 1038 c 256,15,16
 177 1056 177 1056 184 1072 c 128,-1,17
 191 1088 191 1088 203.5 1100 c 128,-1,18
 216 1112 216 1112 232.5 1118.5 c 128,-1,19
 249 1125 249 1125 268 1125 c 256,0,1
EndSplineSet
EndChar

StartChar: uni030F
Encoding: 783 783 278
Width: 587
GlyphClass: 2
Flags: W
LayerCount: 2
Fore
SplineSet
181 899 m 1,0,-1
 -3 1171 l 1,1,-1
 187 1171 l 1,2,-1
 277 899 l 1,3,-1
 181 899 l 1,0,-1
443 899 m 1,4,-1
 258 1171 l 1,5,-1
 448 1171 l 1,6,-1
 538 899 l 1,7,-1
 443 899 l 1,4,-1
EndSplineSet
EndChar

StartChar: uni0311
Encoding: 785 785 279
Width: 584
GlyphClass: 2
Flags: W
LayerCount: 2
Fore
SplineSet
34 940 m 1,0,1
 38 988 38 988 59 1027.5 c 128,-1,2
 80 1067 80 1067 113.5 1094.5 c 128,-1,3
 147 1122 147 1122 192.5 1137.5 c 128,-1,4
 238 1153 238 1153 292 1153 c 256,5,6
 346 1153 346 1153 391 1137.5 c 128,-1,7
 436 1122 436 1122 470 1094 c 128,-1,8
 504 1066 504 1066 524.5 1027 c 128,-1,9
 545 988 545 988 550 940 c 1,10,-1
 439 940 l 1,11,12
 431 997 431 997 391.5 1027.5 c 128,-1,13
 352 1058 352 1058 292 1058 c 0,14,15
 229 1058 229 1058 191.5 1027.5 c 128,-1,16
 154 997 154 997 144 940 c 1,17,-1
 34 940 l 1,0,1
EndSplineSet
EndChar

StartChar: uni0326
Encoding: 806 806 280
Width: 554
GlyphClass: 2
Flags: W
LayerCount: 2
Fore
SplineSet
151 -66 m 1,0,-1
 363 -66 l 1,1,-1
 363 -278 l 2,2,3
 363 -335 363 -335 352 -379 c 128,-1,4
 341 -423 341 -423 316 -453 c 128,-1,5
 291 -483 291 -483 250.5 -498.5 c 128,-1,6
 210 -514 210 -514 151 -515 c 1,7,-1
 151 -427 l 1,8,9
 208 -415 208 -415 232.5 -382.5 c 128,-1,10
 257 -350 257 -350 257 -278 c 1,11,-1
 151 -278 l 1,12,-1
 151 -66 l 1,0,-1
EndSplineSet
EndChar

StartChar: endash
Encoding: 8211 8211 281
Width: 874
GlyphClass: 2
Flags: W
LayerCount: 2
Fore
SplineSet
874 117 m 1,0,-1
 874 0 l 1,1,-1
 0 0 l 1,2,-1
 0 117 l 1,3,-1
 874 117 l 1,0,-1
EndSplineSet
EndChar

StartChar: emdash
Encoding: 8212 8212 282
Width: 1648
GlyphClass: 2
Flags: W
LayerCount: 2
Fore
SplineSet
1648 117 m 1,0,-1
 1648 0 l 1,1,-1
 0 0 l 1,2,-1
 0 117 l 1,3,-1
 1648 117 l 1,0,-1
EndSplineSet
EndChar

StartChar: quoteleft
Encoding: 8216 8216 283
Width: 382
GlyphClass: 2
Flags: W
LayerCount: 2
Fore
SplineSet
299 723 m 1,0,-1
 82 723 l 1,1,-1
 82 934 l 2,2,3
 82 991 82 991 93 1035.5 c 128,-1,4
 104 1080 104 1080 129.5 1110 c 128,-1,5
 155 1140 155 1140 196.5 1155.5 c 128,-1,6
 238 1171 238 1171 299 1171 c 1,7,-1
 299 1084 l 1,8,9
 267 1077 267 1077 246 1066.5 c 128,-1,10
 225 1056 225 1056 212 1038.5 c 128,-1,11
 199 1021 199 1021 193.5 995.5 c 128,-1,12
 188 970 188 970 188 934 c 1,13,-1
 299 934 l 1,14,-1
 299 723 l 1,0,-1
EndSplineSet
EndChar

StartChar: quoteright
Encoding: 8217 8217 284
Width: 364
GlyphClass: 2
Flags: W
LayerCount: 2
Fore
SplineSet
82 1153 m 1,0,-1
 299 1153 l 1,1,-1
 299 942 l 2,2,3
 299 885 299 885 288 840.5 c 128,-1,4
 277 796 277 796 251.5 766 c 128,-1,5
 226 736 226 736 184.5 720.5 c 128,-1,6
 143 705 143 705 82 705 c 1,7,-1
 82 792 l 1,8,9
 113 799 113 799 134.5 809.5 c 128,-1,10
 156 820 156 820 169 837.5 c 128,-1,11
 182 855 182 855 187.5 880.5 c 128,-1,12
 193 906 193 906 193 942 c 1,13,-1
 82 942 l 1,14,-1
 82 1153 l 1,0,-1
EndSplineSet
EndChar

StartChar: quotesinglbase
Encoding: 8218 8218 285
Width: 389
GlyphClass: 2
Flags: W
LayerCount: 2
Fore
SplineSet
82 211 m 1,0,-1
 299 211 l 1,1,-1
 299 0 l 2,2,3
 299 -57 299 -57 288 -101.5 c 128,-1,4
 277 -146 277 -146 251.5 -176 c 128,-1,5
 226 -206 226 -206 184.5 -221.5 c 128,-1,6
 143 -237 143 -237 82 -237 c 1,7,-1
 82 -150 l 1,8,9
 113 -143 113 -143 134.5 -132.5 c 128,-1,10
 156 -122 156 -122 169 -104.5 c 128,-1,11
 182 -87 182 -87 187.5 -61.5 c 128,-1,12
 193 -36 193 -36 193 0 c 1,13,-1
 82 0 l 1,14,-1
 82 211 l 1,0,-1
EndSplineSet
EndChar

StartChar: quotedblleft
Encoding: 8220 8220 286
Width: 720
GlyphClass: 2
Flags: W
LayerCount: 2
Fore
SplineSet
632 723 m 1,0,-1
 415 723 l 1,1,-1
 415 934 l 2,2,3
 415 991 415 991 426 1035.5 c 128,-1,4
 437 1080 437 1080 462.5 1110 c 128,-1,5
 488 1140 488 1140 529.5 1155.5 c 128,-1,6
 571 1171 571 1171 632 1171 c 1,7,-1
 632 1084 l 1,8,9
 600 1077 600 1077 579 1066.5 c 128,-1,10
 558 1056 558 1056 545 1038.5 c 128,-1,11
 532 1021 532 1021 526.5 995.5 c 128,-1,12
 521 970 521 970 521 934 c 1,13,-1
 632 934 l 1,14,-1
 632 723 l 1,0,-1
299 723 m 1,15,-1
 82 723 l 1,16,-1
 82 934 l 2,17,18
 82 991 82 991 93 1035.5 c 128,-1,19
 104 1080 104 1080 129.5 1110 c 128,-1,20
 155 1140 155 1140 196.5 1155.5 c 128,-1,21
 238 1171 238 1171 299 1171 c 1,22,-1
 299 1084 l 1,23,24
 267 1077 267 1077 246 1066.5 c 128,-1,25
 225 1056 225 1056 212 1038.5 c 128,-1,26
 199 1021 199 1021 193.5 995.5 c 128,-1,27
 188 970 188 970 188 934 c 1,28,-1
 299 934 l 1,29,-1
 299 723 l 1,15,-1
EndSplineSet
EndChar

StartChar: quotedblright
Encoding: 8221 8221 287
Width: 704
GlyphClass: 2
Flags: W
LayerCount: 2
Fore
SplineSet
82 1153 m 1,0,-1
 299 1153 l 1,1,-1
 299 942 l 2,2,3
 299 885 299 885 288 840.5 c 128,-1,4
 277 796 277 796 251.5 766 c 128,-1,5
 226 736 226 736 184.5 720.5 c 128,-1,6
 143 705 143 705 82 705 c 1,7,-1
 82 792 l 1,8,9
 113 799 113 799 134.5 809.5 c 128,-1,10
 156 820 156 820 169 837.5 c 128,-1,11
 182 855 182 855 187.5 880.5 c 128,-1,12
 193 906 193 906 193 942 c 1,13,-1
 82 942 l 1,14,-1
 82 1153 l 1,0,-1
415 1153 m 1,15,-1
 632 1153 l 1,16,-1
 632 942 l 2,17,18
 632 885 632 885 621 840.5 c 128,-1,19
 610 796 610 796 584.5 766 c 128,-1,20
 559 736 559 736 517.5 720.5 c 128,-1,21
 476 705 476 705 415 705 c 1,22,-1
 415 792 l 1,23,24
 446 799 446 799 467.5 809.5 c 128,-1,25
 489 820 489 820 502 837.5 c 128,-1,26
 515 855 515 855 520.5 880.5 c 128,-1,27
 526 906 526 906 526 942 c 1,28,-1
 415 942 l 1,29,-1
 415 1153 l 1,15,-1
EndSplineSet
EndChar

StartChar: quotedblbase
Encoding: 8222 8222 288
Width: 785
GlyphClass: 2
Flags: W
LayerCount: 2
Fore
SplineSet
481 211 m 1,0,-1
 698 211 l 1,1,-1
 698 0 l 2,2,3
 698 -57 698 -57 687 -101.5 c 128,-1,4
 676 -146 676 -146 650.5 -176 c 128,-1,5
 625 -206 625 -206 583.5 -221.5 c 128,-1,6
 542 -237 542 -237 481 -237 c 1,7,-1
 481 -150 l 1,8,9
 512 -143 512 -143 533.5 -132.5 c 128,-1,10
 555 -122 555 -122 568 -104.5 c 128,-1,11
 581 -87 581 -87 586.5 -61.5 c 128,-1,12
 592 -36 592 -36 592 0 c 1,13,-1
 481 0 l 1,14,-1
 481 211 l 1,0,-1
82 211 m 1,15,-1
 299 211 l 1,16,-1
 299 0 l 2,17,18
 299 -57 299 -57 288 -101.5 c 128,-1,19
 277 -146 277 -146 251.5 -176 c 128,-1,20
 226 -206 226 -206 184.5 -221.5 c 128,-1,21
 143 -237 143 -237 82 -237 c 1,22,-1
 82 -150 l 1,23,24
 113 -143 113 -143 134.5 -132.5 c 128,-1,25
 156 -122 156 -122 169 -104.5 c 128,-1,26
 182 -87 182 -87 187.5 -61.5 c 128,-1,27
 193 -36 193 -36 193 0 c 1,28,-1
 82 0 l 1,29,-1
 82 211 l 1,15,-1
EndSplineSet
EndChar

StartChar: bullet
Encoding: 8226 8226 289
Width: 559
GlyphClass: 2
Flags: W
LayerCount: 2
Fore
SplineSet
280 754 m 256,0,1
 322 754 322 754 358.5 739 c 128,-1,2
 395 724 395 724 422 698.5 c 128,-1,3
 449 673 449 673 465 637.5 c 128,-1,4
 481 602 481 602 481 562 c 256,5,6
 481 522 481 522 465 486.5 c 128,-1,7
 449 451 449 451 422 425 c 128,-1,8
 395 399 395 399 358.5 383.5 c 128,-1,9
 322 368 322 368 280 368 c 256,10,11
 238 368 238 368 201.5 383.5 c 128,-1,12
 165 399 165 399 138 425 c 128,-1,13
 111 451 111 451 95.5 486.5 c 128,-1,14
 80 522 80 522 80 562 c 256,15,16
 80 602 80 602 95.5 637.5 c 128,-1,17
 111 673 111 673 138 698.5 c 128,-1,18
 165 724 165 724 201.5 739 c 128,-1,19
 238 754 238 754 280 754 c 256,0,1
EndSplineSet
EndChar

StartChar: guilsinglleft
Encoding: 8249 8249 290
Width: 534
GlyphClass: 2
Flags: W
LayerCount: 2
Fore
SplineSet
468 0 m 1,0,-1
 325 0 l 1,1,-1
 61 418 l 1,2,-1
 325 837 l 1,3,-1
 468 837 l 1,4,-1
 210 418 l 1,5,-1
 468 0 l 1,0,-1
EndSplineSet
EndChar

StartChar: guilsinglright
Encoding: 8250 8250 291
Width: 533
GlyphClass: 2
Flags: W
LayerCount: 2
Fore
SplineSet
65 837 m 1,0,-1
 208 837 l 1,1,-1
 472 418 l 1,2,-1
 208 0 l 1,3,-1
 65 0 l 1,4,-1
 323 418 l 1,5,-1
 65 837 l 1,0,-1
EndSplineSet
EndChar

StartChar: Euro
Encoding: 8364 8364 292
Width: 1093
GlyphClass: 2
Flags: W
LayerCount: 2
Fore
SplineSet
169 544 m 1,0,-1
 169 575 l 2,1,2
 169 596 169 596 170 616.5 c 128,-1,3
 171 637 171 637 173 658 c 1,4,-1
 30 658 l 1,5,-1
 30 771 l 1,6,-1
 192 771 l 1,7,8
 212 855 212 855 250 928 c 128,-1,9
 288 1001 288 1001 343 1055 c 128,-1,10
 398 1109 398 1109 470 1140 c 128,-1,11
 542 1171 542 1171 630 1171 c 0,12,13
 683 1171 683 1171 725 1159 c 128,-1,14
 767 1147 767 1147 799 1128 c 128,-1,15
 831 1109 831 1109 855 1086.5 c 128,-1,16
 879 1064 879 1064 897 1042 c 1,17,-1
 897 1153 l 1,18,-1
 1027 1153 l 1,19,-1
 1027 804 l 1,20,-1
 902 804 l 1,21,22
 864 922 864 922 800 978.5 c 128,-1,23
 736 1035 736 1035 648 1035 c 0,24,25
 595 1035 595 1035 550.5 1016 c 128,-1,26
 506 997 506 997 471 962.5 c 128,-1,27
 436 928 436 928 410 879.5 c 128,-1,28
 384 831 384 831 369 771 c 1,29,-1
 618 771 l 1,30,-1
 618 658 l 1,31,-1
 349 658 l 1,32,33
 346 620 346 620 346 580 c 2,34,-1
 346 544 l 1,35,-1
 618 544 l 1,36,-1
 618 430 l 1,37,-1
 357 430 l 1,38,39
 368 361 368 361 390.5 303.5 c 128,-1,40
 413 246 413 246 449 204.5 c 128,-1,41
 485 163 485 163 535.5 140 c 128,-1,42
 586 117 586 117 654 117 c 0,43,44
 697 117 697 117 739 130 c 128,-1,45
 781 143 781 143 817 174 c 128,-1,46
 853 205 853 205 880.5 254.5 c 128,-1,47
 908 304 908 304 923 378 c 1,48,-1
 1058 307 l 1,49,50
 1026 208 1026 208 978 145 c 128,-1,51
 930 82 930 82 874 45.5 c 128,-1,52
 818 9 818 9 758 -5 c 128,-1,53
 698 -19 698 -19 643 -19 c 0,54,55
 549 -19 549 -19 471 13 c 128,-1,56
 393 45 393 45 333.5 103.5 c 128,-1,57
 274 162 274 162 235 245 c 128,-1,58
 196 328 196 328 180 430 c 1,59,-1
 30 430 l 1,60,-1
 30 544 l 1,61,-1
 169 544 l 1,0,-1
EndSplineSet
EndChar

StartChar: trademark
Encoding: 8482 8482 293
Width: 1547
GlyphClass: 2
Flags: W
LayerCount: 2
Fore
SplineSet
655 1153 m 1,0,-1
 655 1058 l 1,1,-1
 428 1058 l 1,2,-1
 428 494 l 1,3,-1
 321 494 l 1,4,-1
 321 1058 l 1,5,-1
 92 1058 l 1,6,-1
 92 1153 l 1,7,-1
 655 1153 l 1,0,-1
1245 1153 m 1,8,-1
 1404 1153 l 1,9,-1
 1404 494 l 1,10,-1
 1307 494 l 1,11,-1
 1307 1052 l 1,12,-1
 1304 1052 l 1,13,-1
 1115 494 l 1,14,-1
 1025 494 l 1,15,-1
 838 1052 l 1,16,-1
 834 1052 l 1,17,-1
 834 494 l 1,18,-1
 736 494 l 1,19,-1
 736 1153 l 1,20,-1
 895 1153 l 1,21,-1
 1071 635 l 1,22,-1
 1245 1153 l 1,8,-1
EndSplineSet
EndChar

StartChar: dotlessj.001
Encoding: 65539 -1 294
Width: 441
GlyphClass: 2
Flags: W
LayerCount: 2
Fore
SplineSet
-60 -235 m 1,0,1
 -37 -237 -37 -237 -20 -238 c 128,-1,2
 -3 -239 -3 -239 17 -239 c 0,3,4
 59 -239 59 -239 87.5 -228 c 128,-1,5
 116 -217 116 -217 133.5 -193.5 c 128,-1,6
 151 -170 151 -170 158.5 -133 c 128,-1,7
 166 -96 166 -96 166 -43 c 0,8,9
 166 -34 166 -34 165.5 2.5 c 128,-1,10
 165 39 165 39 164.5 93.5 c 128,-1,11
 164 148 164 148 163.5 215 c 128,-1,12
 163 282 163 282 163 351 c 2,13,-1
 163 685 l 1,14,-1
 31 685 l 1,15,-1
 31 805 l 1,16,-1
 314 805 l 1,17,-1
 314 220 l 2,18,19
 314 181 314 181 314 142.5 c 128,-1,20
 314 104 314 104 314.5 74 c 128,-1,21
 315 44 315 44 315 24.5 c 128,-1,22
 315 5 315 5 315 4 c 0,23,24
 315 -72 315 -72 308 -139 c 128,-1,25
 301 -206 301 -206 272.5 -256 c 128,-1,26
 244 -306 244 -306 187 -336 c 128,-1,27
 130 -366 130 -366 31 -367 c 0,28,29
 6 -367 6 -367 -15 -366 c 128,-1,30
 -36 -365 -36 -365 -60 -361 c 1,31,-1
 -60 -235 l 1,0,1
EndSplineSet
EndChar

StartChar: commaaccent
Encoding: 65542 -1 297
Width: 430
GlyphClass: 2
Flags: W
LayerCount: 2
Fore
SplineSet
101 559 m 1,0,-1
 328 559 l 1,1,-1
 328 348 l 2,2,3
 328 291 328 291 316.5 246.5 c 128,-1,4
 305 202 305 202 278.5 172 c 128,-1,5
 252 142 252 142 208.5 126.5 c 128,-1,6
 165 111 165 111 101 111 c 1,7,-1
 101 198 l 1,8,9
 135 205 135 205 158 215.5 c 128,-1,10
 181 226 181 226 195 243.5 c 128,-1,11
 209 261 209 261 215.5 286.5 c 128,-1,12
 222 312 222 312 222 348 c 1,13,-1
 101 348 l 1,14,-1
 101 559 l 1,0,-1
EndSplineSet
EndChar

StartChar: grave.cap
Encoding: 65543 -1 298
Width: 562
GlyphClass: 2
Flags: W
LayerCount: 2
Fore
SplineSet
292 914 m 1,0,-1
 105 1171 l 1,1,-1
 312 1171 l 1,2,-1
 411 914 l 1,3,-1
 292 914 l 1,0,-1
EndSplineSet
EndChar

StartChar: acute.cap
Encoding: 65544 -1 299
Width: 562
GlyphClass: 2
Flags: W
LayerCount: 2
Fore
SplineSet
165 914 m 1,0,-1
 264 1171 l 1,1,-1
 471 1171 l 1,2,-1
 284 914 l 1,3,-1
 165 914 l 1,0,-1
EndSplineSet
EndChar

StartChar: circumflex.cap
Encoding: 65545 -1 300
Width: 593
GlyphClass: 2
Flags: W
LayerCount: 2
Fore
SplineSet
58 896 m 1,0,-1
 156 1171 l 1,1,-1
 431 1171 l 1,2,-1
 535 896 l 1,3,-1
 387 896 l 1,4,-1
 294 1126 l 1,5,-1
 201 896 l 1,6,-1
 58 896 l 1,0,-1
EndSplineSet
EndChar

StartChar: dieresis.cap
Encoding: 65546 -1 301
Width: 572
GlyphClass: 2
Flags: W
LayerCount: 2
Fore
SplineSet
523 1101 m 1,0,-1
 523 948 l 1,1,-1
 371 948 l 1,2,-1
 371 1101 l 1,3,-1
 523 1101 l 1,0,-1
212 1101 m 1,4,-1
 212 948 l 1,5,-1
 58 948 l 1,6,-1
 58 1101 l 1,7,-1
 212 1101 l 1,4,-1
EndSplineSet
EndChar

StartChar: caron.cap
Encoding: 65547 -1 302
Width: 593
GlyphClass: 2
Flags: W
LayerCount: 2
Fore
SplineSet
145 1171 m 1,0,-1
 299 1017 l 1,1,-1
 451 1171 l 1,2,-1
 555 1171 l 1,3,-1
 396 912 l 1,4,-1
 200 912 l 1,5,-1
 38 1171 l 1,6,-1
 145 1171 l 1,0,-1
EndSplineSet
EndChar

StartChar: ring.cap
Encoding: 65548 -1 303
Width: 565
GlyphClass: 2
Flags: W
LayerCount: 2
Fore
SplineSet
282 1201 m 256,0,1
 317 1201 317 1201 348 1189 c 128,-1,2
 379 1177 379 1177 402 1155.5 c 128,-1,3
 425 1134 425 1134 438 1105 c 128,-1,4
 451 1076 451 1076 451 1042 c 256,5,6
 451 1008 451 1008 438 978.5 c 128,-1,7
 425 949 425 949 402 927.5 c 128,-1,8
 379 906 379 906 348 893.5 c 128,-1,9
 317 881 317 881 282 881 c 256,10,11
 247 881 247 881 216 893.5 c 128,-1,12
 185 906 185 906 162.5 927.5 c 128,-1,13
 140 949 140 949 127 978.5 c 128,-1,14
 114 1008 114 1008 114 1042 c 256,15,16
 114 1076 114 1076 127 1105 c 128,-1,17
 140 1134 140 1134 162.5 1155.5 c 128,-1,18
 185 1177 185 1177 216 1189 c 128,-1,19
 247 1201 247 1201 282 1201 c 256,0,1
282 1140 m 256,20,21
 260 1140 260 1140 241 1132.5 c 128,-1,22
 222 1125 222 1125 207.5 1112 c 128,-1,23
 193 1099 193 1099 185 1081 c 128,-1,24
 177 1063 177 1063 177 1042 c 256,25,26
 177 1021 177 1021 185 1003 c 128,-1,27
 193 985 193 985 207.5 971.5 c 128,-1,28
 222 958 222 958 241 950.5 c 128,-1,29
 260 943 260 943 282 943 c 256,30,31
 304 943 304 943 323 950.5 c 128,-1,32
 342 958 342 958 356 971.5 c 128,-1,33
 370 985 370 985 378 1003 c 128,-1,34
 386 1021 386 1021 386 1042 c 256,35,36
 386 1063 386 1063 378 1081 c 128,-1,37
 370 1099 370 1099 356 1112 c 128,-1,38
 342 1125 342 1125 323 1132.5 c 128,-1,39
 304 1140 304 1140 282 1140 c 256,20,21
EndSplineSet
EndChar

StartChar: tilde.cap
Encoding: 65549 -1 304
Width: 587
GlyphClass: 2
Flags: W
LayerCount: 2
Fore
SplineSet
-11 980 m 1,0,1
 -6 1035 -6 1035 10 1074.5 c 128,-1,2
 26 1114 26 1114 49.5 1139.5 c 128,-1,3
 73 1165 73 1165 102.5 1177 c 128,-1,4
 132 1189 132 1189 165 1189 c 0,5,6
 203 1189 203 1189 240.5 1178 c 128,-1,7
 278 1167 278 1167 313.5 1154 c 128,-1,8
 349 1141 349 1141 381.5 1130 c 128,-1,9
 414 1119 414 1119 443 1119 c 0,10,11
 505 1119 505 1119 520 1184 c 1,12,-1
 598 1184 l 1,13,14
 590 1084 590 1084 544 1027.5 c 128,-1,15
 498 971 498 971 419 971 c 0,16,17
 377 971 377 971 338.5 982 c 128,-1,18
 300 993 300 993 265 1006.5 c 128,-1,19
 230 1020 230 1020 198 1031 c 128,-1,20
 166 1042 166 1042 137 1042 c 0,21,22
 105 1042 105 1042 90 1026 c 128,-1,23
 75 1010 75 1010 69 980 c 1,24,-1
 -11 980 l 1,0,1
EndSplineSet
EndChar

StartChar: dotaccentcmb.cap
Encoding: 65550 -1 305
Width: 535
GlyphClass: 2
Flags: W
LayerCount: 2
Fore
SplineSet
268 1125 m 256,0,1
 287 1125 287 1125 303.5 1118.5 c 128,-1,2
 320 1112 320 1112 332.5 1100 c 128,-1,3
 345 1088 345 1088 352 1072 c 128,-1,4
 359 1056 359 1056 359 1038 c 256,5,6
 359 1020 359 1020 352 1004 c 128,-1,7
 345 988 345 988 332.5 976 c 128,-1,8
 320 964 320 964 303.5 957 c 128,-1,9
 287 950 287 950 268 950 c 256,10,11
 249 950 249 950 232.5 957 c 128,-1,12
 216 964 216 964 203.5 976 c 128,-1,13
 191 988 191 988 184 1004 c 128,-1,14
 177 1020 177 1020 177 1038 c 256,15,16
 177 1056 177 1056 184 1072 c 128,-1,17
 191 1088 191 1088 203.5 1100 c 128,-1,18
 216 1112 216 1112 232.5 1118.5 c 128,-1,19
 249 1125 249 1125 268 1125 c 256,0,1
EndSplineSet
EndChar

